  0
SECTION
  2
HEADER
  9
$ACADVER
1
AC1014
  0
ENDSEC
  0
SECTION
  2
ENTITIES
  0
LWPOLYLINE
100
AcDbPolyline
 90
32
 70
0
 43
0.0
 10
488.6790000000001
 20
295.271
 10
488.7460000000001
 20
295.241
 10
488.8190000000001
 20
295.231
 10
488.8910000000001
 20
295.24199999999996
 10
488.9570000000001
 20
295.274
 10
489.0110000000001
 20
295.324
 10
489.0380000000001
 20
295.365
 10
489.06500000000005
 20
295.459
 10
491.1680000000001
 20
297.226
 10
492.3520000000001
 20
295.817
 10
490.2490000000001
 20
294.05
 10
490.20000000000005
 20
294.049
 10
490.1290000000001
 20
294.031
 10
490.0860000000001
 20
294.007
 10
490.0320000000001
 20
293.957
 10
489.9950000000001
 20
293.894
 10
489.97800000000007
 20
293.822
 10
489.98300000000006
 20
293.749
 10
489.99700000000007
 20
293.702
 10
490.03600000000006
 20
293.64
 10
490.0910000000001
 20
293.591
 10
490.1570000000001
 20
293.56100000000004
 10
490.2060000000001
 20
293.552
 10
491.4940000000001
 20
292.01800000000003
 10
486.4000000000001
 20
292.01800000000003
 10
484.23800000000006
 20
294.591
 10
487.22400000000005
 20
297.1
 10
488.5670000000001
 20
295.502
 10
488.5710000000001
 20
295.429
 10
488.5970000000001
 20
295.36
 10
488.6410000000001
 20
295.302
 10
488.6790000000001
 20
295.271
  0
SEQEND
  0
LWPOLYLINE
100
AcDbPolyline
 90
32
 70
0
 43
0.0
 10
479.56500000000005
 20
295.271
 10
479.63200000000006
 20
295.241
 10
479.70500000000004
 20
295.231
 10
479.77700000000004
 20
295.24199999999996
 10
479.8430000000001
 20
295.274
 10
479.89700000000005
 20
295.324
 10
479.9240000000001
 20
295.365
 10
479.9510000000001
 20
295.459
 10
482.0540000000001
 20
297.226
 10
483.23800000000006
 20
295.817
 10
481.1350000000001
 20
294.05
 10
481.08600000000007
 20
294.049
 10
481.0150000000001
 20
294.031
 10
480.9720000000001
 20
294.007
 10
480.9180000000001
 20
293.957
 10
480.8810000000001
 20
293.894
 10
480.8640000000001
 20
293.822
 10
480.8690000000001
 20
293.749
 10
480.8830000000001
 20
293.702
 10
480.9220000000001
 20
293.64
 10
480.9770000000001
 20
293.591
 10
481.0430000000001
 20
293.56100000000004
 10
481.0920000000001
 20
293.552
 10
482.3800000000001
 20
292.01800000000003
 10
477.28600000000006
 20
292.01800000000003
 10
475.1240000000001
 20
294.591
 10
478.11000000000007
 20
297.1
 10
479.4530000000001
 20
295.502
 10
479.4570000000001
 20
295.429
 10
479.48300000000006
 20
295.36
 10
479.52700000000004
 20
295.302
 10
479.56500000000005
 20
295.271
  0
SEQEND
  0
LWPOLYLINE
100
AcDbPolyline
 90
32
 70
0
 43
0.0
 10
470.4510000000001
 20
295.271
 10
470.5180000000001
 20
295.241
 10
470.59100000000007
 20
295.231
 10
470.66300000000007
 20
295.24199999999996
 10
470.72900000000004
 20
295.274
 10
470.7830000000001
 20
295.324
 10
470.81000000000006
 20
295.365
 10
470.8370000000001
 20
295.459
 10
472.94000000000005
 20
297.226
 10
474.1240000000001
 20
295.817
 10
472.0210000000001
 20
294.05
 10
471.9720000000001
 20
294.049
 10
471.90100000000007
 20
294.031
 10
471.85800000000006
 20
294.007
 10
471.8040000000001
 20
293.957
 10
471.76700000000005
 20
293.894
 10
471.7500000000001
 20
293.822
 10
471.7550000000001
 20
293.749
 10
471.76900000000006
 20
293.702
 10
471.8080000000001
 20
293.64
 10
471.86300000000006
 20
293.591
 10
471.9290000000001
 20
293.56100000000004
 10
471.97800000000007
 20
293.552
 10
473.2660000000001
 20
292.01800000000003
 10
468.1720000000001
 20
292.01800000000003
 10
466.0100000000001
 20
294.591
 10
468.9960000000001
 20
297.1
 10
470.33900000000006
 20
295.502
 10
470.3430000000001
 20
295.429
 10
470.3690000000001
 20
295.36
 10
470.41300000000007
 20
295.302
 10
470.4510000000001
 20
295.271
  0
SEQEND
  0
LWPOLYLINE
100
AcDbPolyline
 90
109
 70
0
 43
0.0
 10
471.6300000000001
 20
252.958
 10
472.60800000000006
 20
257.13800000000003
 10
473.1830000000001
 20
261.391
 10
473.35000000000014
 20
265.68
 10
473.10800000000006
 20
269.966
 10
472.4580000000001
 20
274.209
 10
471.4070000000001
 20
278.371
 10
469.96400000000006
 20
282.413
 10
473.3330000000001
 20
283.80899999999997
 10
473.4050000000001
 20
283.791
 10
473.47800000000007
 20
283.795
 10
473.5470000000001
 20
283.819
 10
473.6060000000001
 20
283.863
 10
473.6500000000001
 20
283.922
 10
473.6740000000001
 20
283.991
 10
473.6780000000001
 20
284.064
 10
473.6600000000001
 20
284.136
 10
473.63700000000006
 20
284.179
 10
473.5880000000001
 20
284.233
 10
473.5250000000001
 20
284.271
 10
472.4740000000001
 20
286.808
 10
475.6150000000001
 20
288.109
 10
476.6660000000001
 20
285.572
 10
476.6480000000001
 20
285.501
 10
476.6520000000001
 20
285.428
 10
476.6760000000001
 20
285.358
 10
476.7200000000001
 20
285.3
 10
476.7580000000001
 20
285.26800000000003
 10
476.82400000000007
 20
285.237
 10
476.8970000000001
 20
285.226
 10
476.9700000000001
 20
285.237
 10
477.03600000000006
 20
285.26800000000003
 10
477.0900000000001
 20
285.318
 10
477.1280000000001
 20
285.381
 10
480.35500000000013
 20
286.717
 10
480.4260000000001
 20
286.699
 10
480.4990000000001
 20
286.703
 10
480.5900000000001
 20
286.74
 10
480.6440000000001
 20
286.79
 10
480.68200000000013
 20
286.853
 10
480.70100000000014
 20
286.948
 10
480.6900000000001
 20
287.021
 10
480.6590000000001
 20
287.087
 10
480.6090000000001
 20
287.142
 10
480.5460000000001
 20
287.179
 10
479.4950000000001
 20
289.717
 10
482.63700000000006
 20
291.01800000000003
 10
483.6870000000001
 20
288.48
 10
483.6700000000001
 20
288.409
 10
483.6730000000001
 20
288.336
 10
483.6870000000001
 20
288.289
 10
483.7250000000001
 20
288.226
 10
483.7600000000001
 20
288.19100000000003
 10
483.8230000000001
 20
288.154
 10
483.8940000000001
 20
288.136
 10
483.9670000000001
 20
288.14
 10
484.03600000000006
 20
288.164
 10
484.1120000000001
 20
288.226
 10
484.1490000000001
 20
288.289
 10
487.5180000000001
 20
289.684
 10
489.6180000000001
 20
283.79200000000003
 10
491.13200000000006
 20
277.722
 10
492.0460000000001
 20
271.533
 10
492.3520000000001
 20
265.28499999999997
 10
491.8520000000001
 20
265.28499999999997
 10
491.5460000000001
 20
259.06100000000004
 10
490.63200000000006
 20
252.897
 10
489.1170000000001
 20
246.852
 10
487.0180000000001
 20
240.985
 10
484.3540000000001
 20
235.351
 10
481.1500000000001
 20
230.006
 10
477.4380000000001
 20
225.001
 10
473.2530000000001
 20
220.38400000000001
 10
473.6070000000001
 20
220.03
 10
472.0670000000001
 20
218.542
 10
469.6040000000001
 20
217.52100000000002
 10
468.5530000000001
 20
220.059
 10
468.5700000000001
 20
220.13
 10
468.5670000000001
 20
220.203
 10
468.5530000000001
 20
220.25
 10
468.5150000000001
 20
220.313
 10
468.4610000000001
 20
220.362
 10
468.3940000000001
 20
220.394
 10
468.3220000000001
 20
220.404
 10
468.24900000000014
 20
220.394
 10
468.1830000000001
 20
220.362
 10
468.1280000000001
 20
220.313
 10
468.0910000000001
 20
220.25
 10
466.2800000000001
 20
219.5
 10
466.20900000000006
 20
219.518
 10
466.1360000000001
 20
219.514
 10
466.0670000000001
 20
219.49
 10
466.0080000000001
 20
219.446
 10
465.96400000000006
 20
219.387
 10
465.9390000000001
 20
219.318
 10
465.9390000000001
 20
219.22
 10
465.95400000000006
 20
219.173
 10
465.9910000000001
 20
219.11
 10
466.02600000000007
 20
219.076
 10
466.08900000000006
 20
219.038
 10
467.1400000000001
 20
216.501
 10
464.6760000000001
 20
215.48000000000002
 10
458.05000000000007
 20
231.477
 10
461.1360000000001
 20
234.46
 10
463.9240000000001
 20
237.724
 10
466.3880000000001
 20
241.239
 10
468.5060000000001
 20
244.972
 10
470.2590000000001
 20
248.89100000000002
 10
471.6300000000001
 20
252.958
  0
SEQEND
  0
LWPOLYLINE
100
AcDbPolyline
 90
110
 70
0
 43
0.0
 10
436.3280000000001
 20
253.54
 10
434.9570000000001
 20
257.60699999999997
 10
433.20400000000006
 20
261.526
 10
431.0860000000001
 20
265.259
 10
428.62200000000007
 20
268.774
 10
425.8340000000001
 20
272.038
 10
422.7480000000001
 20
275.021
 10
429.37400000000014
 20
291.01800000000003
 10
431.8380000000001
 20
289.997
 10
430.7870000000001
 20
287.46
 10
430.7240000000001
 20
287.422
 10
430.6890000000001
 20
287.38800000000003
 10
430.6520000000001
 20
287.325
 10
430.6370000000001
 20
287.278
 10
430.6370000000001
 20
287.18
 10
430.6620000000001
 20
287.111
 10
430.70600000000013
 20
287.052
 10
430.7650000000001
 20
287.008
 10
430.8340000000001
 20
286.984
 10
430.9070000000001
 20
286.98
 10
430.97800000000007
 20
286.998
 10
432.7890000000001
 20
286.248
 10
432.82600000000014
 20
286.185
 10
432.8810000000001
 20
286.136
 10
432.9470000000001
 20
286.104
 10
433.0200000000001
 20
286.094
 10
433.0920000000001
 20
286.104
 10
433.1590000000001
 20
286.136
 10
433.2130000000001
 20
286.185
 10
433.2510000000001
 20
286.248
 10
433.2650000000001
 20
286.295
 10
433.26800000000014
 20
286.368
 10
433.2510000000001
 20
286.439
 10
434.30200000000013
 20
288.977
 10
436.7650000000001
 20
287.956
 10
438.30500000000006
 20
286.468
 10
437.95100000000014
 20
286.11400000000003
 10
442.1360000000001
 20
281.497
 10
445.84800000000007
 20
276.492
 10
449.05200000000013
 20
271.147
 10
451.7160000000001
 20
265.51300000000003
 10
453.8150000000001
 20
259.646
 10
455.3300000000001
 20
253.601
 10
456.2440000000001
 20
247.437
 10
456.55000000000007
 20
241.213
 10
457.05000000000007
 20
241.213
 10
456.7440000000001
 20
234.965
 10
455.8300000000001
 20
228.776
 10
454.3160000000001
 20
222.70600000000002
 10
452.2160000000001
 20
216.814
 10
448.8470000000001
 20
218.209
 10
448.8100000000001
 20
218.272
 10
448.7340000000001
 20
218.334
 10
448.6650000000001
 20
218.358
 10
448.5920000000001
 20
218.362
 10
448.5210000000001
 20
218.344
 10
448.4580000000001
 20
218.30700000000002
 10
448.4230000000001
 20
218.272
 10
448.3850000000001
 20
218.209
 10
448.3710000000001
 20
218.162
 10
448.3680000000001
 20
218.089
 10
448.3850000000001
 20
218.018
 10
447.3340000000001
 20
215.48000000000002
 10
444.1930000000001
 20
216.781
 10
445.24400000000014
 20
219.31900000000002
 10
445.30700000000013
 20
219.356
 10
445.3420000000001
 20
219.39100000000002
 10
445.3800000000001
 20
219.454
 10
445.3970000000001
 20
219.525
 10
445.3970000000001
 20
219.574
 10
445.3800000000001
 20
219.645
 10
445.3420000000001
 20
219.708
 10
445.2880000000001
 20
219.758
 10
445.1970000000001
 20
219.79500000000002
 10
445.12400000000014
 20
219.798
 10
445.0530000000001
 20
219.781
 10
441.82600000000014
 20
221.11700000000002
 10
441.7880000000001
 20
221.18
 10
441.7340000000001
 20
221.23000000000002
 10
441.6680000000001
 20
221.261
 10
441.59500000000014
 20
221.272
 10
441.5220000000001
 20
221.261
 10
441.45600000000013
 20
221.23000000000002
 10
441.4180000000001
 20
221.198
 10
441.37400000000014
 20
221.14
 10
441.35000000000014
 20
221.07
 10
441.3460000000001
 20
220.997
 10
441.3640000000001
 20
220.926
 10
440.3130000000001
 20
218.389
 10
437.17200000000014
 20
219.69
 10
438.22300000000007
 20
222.227
 10
438.2860000000001
 20
222.265
 10
438.3350000000001
 20
222.31900000000002
 10
438.3580000000001
 20
222.362
 10
438.3760000000001
 20
222.434
 10
438.37200000000007
 20
222.507
 10
438.34800000000007
 20
222.57600000000002
 10
438.3040000000001
 20
222.635
 10
438.2450000000001
 20
222.679
 10
438.1760000000001
 20
222.703
 10
438.10300000000007
 20
222.707
 10
438.03100000000006
 20
222.68900000000002
 10
434.6620000000001
 20
224.085
 10
436.10500000000013
 20
228.127
 10
437.15600000000006
 20
232.289
 10
437.8060000000001
 20
236.532
 10
438.0480000000001
 20
240.818
 10
437.8810000000001
 20
245.107
 10
437.3060000000001
 20
249.36
 10
436.3280000000001
 20
253.54
  0
SEQEND
  0
LWPOLYLINE
100
AcDbPolyline
 90
110
 70
0
 43
0.0
 10
401.02600000000007
 20
252.958
 10
402.0040000000001
 20
257.13800000000003
 10
402.57900000000006
 20
261.391
 10
402.7460000000001
 20
265.68
 10
402.5040000000001
 20
269.966
 10
401.85400000000004
 20
274.209
 10
400.8030000000001
 20
278.371
 10
399.36000000000007
 20
282.413
 10
402.72900000000004
 20
283.80899999999997
 10
402.80100000000004
 20
283.791
 10
402.8740000000001
 20
283.795
 10
402.9430000000001
 20
283.819
 10
403.00200000000007
 20
283.863
 10
403.04600000000005
 20
283.922
 10
403.07000000000005
 20
283.991
 10
403.07400000000007
 20
284.064
 10
403.0560000000001
 20
284.136
 10
403.0330000000001
 20
284.179
 10
402.9840000000001
 20
284.233
 10
402.92100000000005
 20
284.271
 10
401.8700000000001
 20
286.808
 10
405.0110000000001
 20
288.109
 10
406.06200000000007
 20
285.572
 10
406.0440000000001
 20
285.501
 10
406.0480000000001
 20
285.428
 10
406.0720000000001
 20
285.358
 10
406.1160000000001
 20
285.3
 10
406.1540000000001
 20
285.26800000000003
 10
406.2200000000001
 20
285.237
 10
406.2930000000001
 20
285.226
 10
406.3660000000001
 20
285.237
 10
406.4320000000001
 20
285.26800000000003
 10
406.4860000000001
 20
285.318
 10
406.5240000000001
 20
285.381
 10
409.7510000000001
 20
286.717
 10
409.8220000000001
 20
286.699
 10
409.8950000000001
 20
286.703
 10
409.9860000000001
 20
286.74
 10
410.0400000000001
 20
286.79
 10
410.0780000000001
 20
286.853
 10
410.0950000000001
 20
286.924
 10
410.0950000000001
 20
286.973
 10
410.0780000000001
 20
287.044
 10
410.0400000000001
 20
287.10699999999997
 10
410.0050000000001
 20
287.142
 10
409.9420000000001
 20
287.179
 10
408.8910000000001
 20
289.717
 10
412.0320000000001
 20
291.01800000000003
 10
413.0830000000001
 20
288.48
 10
413.0660000000001
 20
288.409
 10
413.0690000000001
 20
288.336
 10
413.0830000000001
 20
288.289
 10
413.1210000000001
 20
288.226
 10
413.15600000000006
 20
288.19100000000003
 10
413.21900000000005
 20
288.154
 10
413.2900000000001
 20
288.136
 10
413.36300000000006
 20
288.14
 10
413.4320000000001
 20
288.164
 10
413.5080000000001
 20
288.226
 10
413.5450000000001
 20
288.289
 10
416.9140000000001
 20
289.684
 10
419.01400000000007
 20
283.79200000000003
 10
420.5280000000001
 20
277.722
 10
421.44200000000006
 20
271.533
 10
421.74800000000005
 20
265.28499999999997
 10
421.24800000000005
 20
265.28499999999997
 10
420.94200000000006
 20
259.06100000000004
 10
420.0280000000001
 20
252.897
 10
418.5130000000001
 20
246.852
 10
416.4140000000001
 20
240.985
 10
413.7500000000001
 20
235.351
 10
410.54600000000005
 20
230.006
 10
406.83400000000006
 20
225.001
 10
402.6490000000001
 20
220.38400000000001
 10
403.00300000000004
 20
220.03
 10
401.4630000000001
 20
218.542
 10
399.0000000000001
 20
217.52100000000002
 10
397.94900000000007
 20
220.059
 10
397.9660000000001
 20
220.13
 10
397.9630000000001
 20
220.203
 10
397.94900000000007
 20
220.25
 10
397.91100000000006
 20
220.313
 10
397.8570000000001
 20
220.362
 10
397.7900000000001
 20
220.394
 10
397.7180000000001
 20
220.404
 10
397.6450000000001
 20
220.394
 10
397.57900000000006
 20
220.362
 10
397.5240000000001
 20
220.313
 10
397.4870000000001
 20
220.25
 10
395.67600000000004
 20
219.5
 10
395.6050000000001
 20
219.518
 10
395.5320000000001
 20
219.514
 10
395.4630000000001
 20
219.49
 10
395.4040000000001
 20
219.446
 10
395.36000000000007
 20
219.387
 10
395.3350000000001
 20
219.318
 10
395.3350000000001
 20
219.22
 10
395.3500000000001
 20
219.173
 10
395.38700000000006
 20
219.11
 10
395.4220000000001
 20
219.076
 10
395.48500000000007
 20
219.038
 10
396.53600000000006
 20
216.501
 10
394.0720000000001
 20
215.48000000000002
 10
387.4460000000001
 20
231.477
 10
390.5320000000001
 20
234.46
 10
393.32000000000005
 20
237.724
 10
395.7840000000001
 20
241.239
 10
397.90200000000004
 20
244.972
 10
399.6550000000001
 20
248.89100000000002
 10
401.02600000000007
 20
252.958
  0
SEQEND
  0
LWPOLYLINE
100
AcDbPolyline
 90
110
 70
0
 43
0.0
 10
365.7240000000001
 20
252.958
 10
366.7020000000001
 20
257.13800000000003
 10
367.2770000000001
 20
261.391
 10
367.4440000000001
 20
265.68
 10
367.2020000000001
 20
269.966
 10
366.5520000000001
 20
274.209
 10
365.5010000000001
 20
278.371
 10
364.0580000000001
 20
282.413
 10
367.4270000000001
 20
283.80899999999997
 10
367.4990000000001
 20
283.791
 10
367.5720000000001
 20
283.795
 10
367.6410000000001
 20
283.819
 10
367.7000000000001
 20
283.863
 10
367.7440000000001
 20
283.922
 10
367.7680000000001
 20
283.991
 10
367.7720000000001
 20
284.064
 10
367.7540000000001
 20
284.136
 10
367.7310000000001
 20
284.179
 10
367.6820000000001
 20
284.233
 10
367.6190000000001
 20
284.271
 10
366.5680000000001
 20
286.808
 10
369.70900000000006
 20
288.109
 10
370.7600000000001
 20
285.572
 10
370.7420000000001
 20
285.501
 10
370.7460000000001
 20
285.428
 10
370.7700000000001
 20
285.358
 10
370.8140000000001
 20
285.3
 10
370.8520000000001
 20
285.26800000000003
 10
370.9180000000001
 20
285.237
 10
370.9910000000001
 20
285.226
 10
371.0640000000001
 20
285.237
 10
371.1300000000001
 20
285.26800000000003
 10
371.1840000000001
 20
285.318
 10
371.2220000000001
 20
285.381
 10
374.44900000000007
 20
286.717
 10
374.5200000000001
 20
286.699
 10
374.5930000000001
 20
286.703
 10
374.6840000000001
 20
286.74
 10
374.73800000000006
 20
286.79
 10
374.77600000000007
 20
286.853
 10
374.7930000000001
 20
286.924
 10
374.7930000000001
 20
286.973
 10
374.77600000000007
 20
287.044
 10
374.73800000000006
 20
287.10699999999997
 10
374.7030000000001
 20
287.142
 10
374.6400000000001
 20
287.179
 10
373.58900000000006
 20
289.717
 10
376.7300000000001
 20
291.01800000000003
 10
377.78100000000006
 20
288.48
 10
377.7640000000001
 20
288.409
 10
377.76700000000005
 20
288.336
 10
377.78100000000006
 20
288.289
 10
377.8190000000001
 20
288.226
 10
377.8540000000001
 20
288.19100000000003
 10
377.9170000000001
 20
288.154
 10
377.98800000000006
 20
288.136
 10
378.0610000000001
 20
288.14
 10
378.1300000000001
 20
288.164
 10
378.2060000000001
 20
288.226
 10
378.24300000000005
 20
288.289
 10
381.6120000000001
 20
289.684
 10
383.7120000000001
 20
283.79200000000003
 10
385.2260000000001
 20
277.722
 10
386.1400000000001
 20
271.533
 10
386.4460000000001
 20
265.28499999999997
 10
385.9460000000001
 20
265.28499999999997
 10
385.6400000000001
 20
259.06100000000004
 10
384.7260000000001
 20
252.897
 10
383.2110000000001
 20
246.852
 10
381.1120000000001
 20
240.985
 10
378.4480000000001
 20
235.351
 10
375.2440000000001
 20
230.006
 10
371.5320000000001
 20
225.001
 10
367.3470000000001
 20
220.38400000000001
 10
367.7010000000001
 20
220.03
 10
366.16100000000006
 20
218.542
 10
363.6980000000001
 20
217.52100000000002
 10
362.6470000000001
 20
220.059
 10
362.6640000000001
 20
220.13
 10
362.66100000000006
 20
220.203
 10
362.6470000000001
 20
220.25
 10
362.6090000000001
 20
220.313
 10
362.55500000000006
 20
220.362
 10
362.48800000000006
 20
220.394
 10
362.4160000000001
 20
220.404
 10
362.3430000000001
 20
220.394
 10
362.2770000000001
 20
220.362
 10
362.2220000000001
 20
220.313
 10
362.18500000000006
 20
220.25
 10
360.3740000000001
 20
219.5
 10
360.3030000000001
 20
219.518
 10
360.2300000000001
 20
219.514
 10
360.16100000000006
 20
219.49
 10
360.1020000000001
 20
219.446
 10
360.0580000000001
 20
219.387
 10
360.0330000000001
 20
219.318
 10
360.0330000000001
 20
219.22
 10
360.0480000000001
 20
219.173
 10
360.0850000000001
 20
219.11
 10
360.1200000000001
 20
219.076
 10
360.1830000000001
 20
219.038
 10
361.2340000000001
 20
216.501
 10
358.7700000000001
 20
215.48000000000002
 10
352.1440000000001
 20
231.477
 10
355.2300000000001
 20
234.46
 10
358.0180000000001
 20
237.724
 10
360.4820000000001
 20
241.239
 10
362.6000000000001
 20
244.972
 10
364.35300000000007
 20
248.89100000000002
 10
365.7240000000001
 20
252.958
  0
SEQEND
  0
LWPOLYLINE
100
AcDbPolyline
 90
110
 70
0
 43
0.0
 10
330.4220000000001
 20
253.54
 10
329.0510000000001
 20
257.60699999999997
 10
327.2980000000001
 20
261.526
 10
325.18000000000006
 20
265.259
 10
322.7160000000001
 20
268.774
 10
319.9280000000001
 20
272.038
 10
316.8420000000001
 20
275.021
 10
323.4680000000001
 20
291.01800000000003
 10
325.93200000000013
 20
289.997
 10
324.8810000000001
 20
287.46
 10
324.8180000000001
 20
287.422
 10
324.78300000000013
 20
287.38800000000003
 10
324.7460000000001
 20
287.325
 10
324.7310000000001
 20
287.278
 10
324.7310000000001
 20
287.18
 10
324.7560000000001
 20
287.111
 10
324.80000000000007
 20
287.052
 10
324.8590000000001
 20
287.008
 10
324.9280000000001
 20
286.984
 10
325.0010000000001
 20
286.98
 10
325.0720000000001
 20
286.998
 10
326.8830000000001
 20
286.248
 10
326.9200000000001
 20
286.185
 10
326.9750000000001
 20
286.136
 10
327.0410000000001
 20
286.104
 10
327.1140000000001
 20
286.094
 10
327.1860000000001
 20
286.104
 10
327.2530000000001
 20
286.136
 10
327.30700000000013
 20
286.185
 10
327.3450000000001
 20
286.248
 10
327.3590000000001
 20
286.295
 10
327.3620000000001
 20
286.368
 10
327.3450000000001
 20
286.439
 10
328.3960000000001
 20
288.977
 10
330.8590000000001
 20
287.956
 10
332.3990000000001
 20
286.468
 10
332.0450000000001
 20
286.11400000000003
 10
336.23000000000013
 20
281.497
 10
339.9420000000001
 20
276.492
 10
343.1460000000001
 20
271.147
 10
345.8100000000001
 20
265.51300000000003
 10
347.9090000000001
 20
259.646
 10
349.4240000000001
 20
253.601
 10
350.3380000000001
 20
247.437
 10
350.6440000000001
 20
241.213
 10
351.1440000000001
 20
241.213
 10
350.8380000000001
 20
234.965
 10
349.9240000000001
 20
228.776
 10
348.4100000000001
 20
222.70600000000002
 10
346.3100000000001
 20
216.814
 10
342.9410000000001
 20
218.209
 10
342.9040000000001
 20
218.272
 10
342.8280000000001
 20
218.334
 10
342.7590000000001
 20
218.358
 10
342.6860000000001
 20
218.362
 10
342.6150000000001
 20
218.344
 10
342.55200000000013
 20
218.30700000000002
 10
342.5170000000001
 20
218.272
 10
342.4790000000001
 20
218.209
 10
342.4650000000001
 20
218.162
 10
342.4620000000001
 20
218.089
 10
342.4790000000001
 20
218.018
 10
341.4280000000001
 20
215.48000000000002
 10
338.2870000000001
 20
216.781
 10
339.3380000000001
 20
219.31900000000002
 10
339.40100000000007
 20
219.356
 10
339.4360000000001
 20
219.39100000000002
 10
339.4740000000001
 20
219.454
 10
339.4910000000001
 20
219.525
 10
339.4910000000001
 20
219.574
 10
339.4740000000001
 20
219.645
 10
339.4360000000001
 20
219.708
 10
339.38200000000006
 20
219.758
 10
339.2910000000001
 20
219.79500000000002
 10
339.2180000000001
 20
219.798
 10
339.1470000000001
 20
219.781
 10
335.9200000000001
 20
221.11700000000002
 10
335.88200000000006
 20
221.18
 10
335.8280000000001
 20
221.23000000000002
 10
335.7620000000001
 20
221.261
 10
335.6890000000001
 20
221.272
 10
335.6160000000001
 20
221.261
 10
335.55000000000007
 20
221.23000000000002
 10
335.5120000000001
 20
221.198
 10
335.4680000000001
 20
221.14
 10
335.4440000000001
 20
221.07
 10
335.4400000000001
 20
220.997
 10
335.4580000000001
 20
220.926
 10
334.4070000000001
 20
218.389
 10
331.2660000000001
 20
219.69
 10
332.3170000000001
 20
222.227
 10
332.3800000000001
 20
222.265
 10
332.4290000000001
 20
222.31900000000002
 10
332.4520000000001
 20
222.362
 10
332.4700000000001
 20
222.434
 10
332.4660000000001
 20
222.507
 10
332.4420000000001
 20
222.57600000000002
 10
332.3980000000001
 20
222.635
 10
332.3390000000001
 20
222.679
 10
332.2700000000001
 20
222.703
 10
332.1970000000001
 20
222.707
 10
332.1250000000001
 20
222.68900000000002
 10
328.7560000000001
 20
224.085
 10
330.19900000000007
 20
228.127
 10
331.2500000000001
 20
232.289
 10
331.9000000000001
 20
236.532
 10
332.1420000000001
 20
240.818
 10
331.9750000000001
 20
245.107
 10
331.4000000000001
 20
249.36
 10
330.4220000000001
 20
253.54
  0
SEQEND
  0
LWPOLYLINE
100
AcDbPolyline
 90
110
 70
0
 43
0.0
 10
295.1200000000001
 20
253.54
 10
293.74900000000014
 20
257.60699999999997
 10
291.9960000000001
 20
261.526
 10
289.8780000000001
 20
265.259
 10
287.4140000000001
 20
268.774
 10
284.6260000000001
 20
272.038
 10
281.5400000000001
 20
275.021
 10
288.1660000000001
 20
291.01800000000003
 10
290.6300000000001
 20
289.997
 10
289.5790000000001
 20
287.46
 10
289.5160000000001
 20
287.422
 10
289.4810000000001
 20
287.38800000000003
 10
289.4440000000001
 20
287.325
 10
289.4290000000001
 20
287.278
 10
289.4290000000001
 20
287.18
 10
289.4540000000001
 20
287.111
 10
289.4980000000001
 20
287.052
 10
289.55700000000013
 20
287.008
 10
289.6260000000001
 20
286.984
 10
289.6990000000001
 20
286.98
 10
289.7700000000001
 20
286.998
 10
291.58100000000013
 20
286.248
 10
291.6180000000001
 20
286.185
 10
291.6730000000001
 20
286.136
 10
291.7390000000001
 20
286.104
 10
291.8120000000001
 20
286.094
 10
291.8840000000001
 20
286.104
 10
291.95100000000014
 20
286.136
 10
292.0050000000001
 20
286.185
 10
292.0430000000001
 20
286.248
 10
292.05700000000013
 20
286.295
 10
292.0600000000001
 20
286.368
 10
292.0430000000001
 20
286.439
 10
293.0940000000001
 20
288.977
 10
295.55700000000013
 20
287.956
 10
297.0970000000001
 20
286.468
 10
296.7430000000001
 20
286.11400000000003
 10
300.9280000000001
 20
281.497
 10
304.6400000000001
 20
276.492
 10
307.8440000000001
 20
271.147
 10
310.5080000000001
 20
265.51300000000003
 10
312.6070000000001
 20
259.646
 10
314.12200000000007
 20
253.601
 10
315.0360000000001
 20
247.437
 10
315.3420000000001
 20
241.213
 10
315.8420000000001
 20
241.213
 10
315.5360000000001
 20
234.965
 10
314.62200000000007
 20
228.776
 10
313.1080000000001
 20
222.70600000000002
 10
311.0080000000001
 20
216.814
 10
307.6390000000001
 20
218.209
 10
307.6020000000001
 20
218.272
 10
307.5260000000001
 20
218.334
 10
307.4570000000001
 20
218.358
 10
307.3840000000001
 20
218.362
 10
307.3130000000001
 20
218.344
 10
307.2500000000001
 20
218.30700000000002
 10
307.2150000000001
 20
218.272
 10
307.17700000000013
 20
218.209
 10
307.1630000000001
 20
218.162
 10
307.1600000000001
 20
218.089
 10
307.17700000000013
 20
218.018
 10
306.1260000000001
 20
215.48000000000002
 10
302.9850000000001
 20
216.781
 10
304.0360000000001
 20
219.31900000000002
 10
304.0990000000001
 20
219.356
 10
304.1340000000001
 20
219.39100000000002
 10
304.1720000000001
 20
219.454
 10
304.1890000000001
 20
219.525
 10
304.1890000000001
 20
219.574
 10
304.1720000000001
 20
219.645
 10
304.1340000000001
 20
219.708
 10
304.0800000000001
 20
219.758
 10
303.9890000000001
 20
219.79500000000002
 10
303.9160000000001
 20
219.798
 10
303.8450000000001
 20
219.781
 10
300.6180000000001
 20
221.11700000000002
 10
300.5800000000001
 20
221.18
 10
300.5260000000001
 20
221.23000000000002
 10
300.4600000000001
 20
221.261
 10
300.3870000000001
 20
221.272
 10
300.3140000000001
 20
221.261
 10
300.2480000000001
 20
221.23000000000002
 10
300.2100000000001
 20
221.198
 10
300.1660000000001
 20
221.14
 10
300.1420000000001
 20
221.07
 10
300.1380000000001
 20
220.997
 10
300.1560000000001
 20
220.926
 10
299.10500000000013
 20
218.389
 10
295.9640000000001
 20
219.69
 10
297.0150000000001
 20
222.227
 10
297.0780000000001
 20
222.265
 10
297.1270000000001
 20
222.31900000000002
 10
297.1500000000001
 20
222.362
 10
297.1680000000001
 20
222.434
 10
297.1640000000001
 20
222.507
 10
297.1400000000001
 20
222.57600000000002
 10
297.0960000000001
 20
222.635
 10
297.0370000000001
 20
222.679
 10
296.9680000000001
 20
222.703
 10
296.8950000000001
 20
222.707
 10
296.8230000000001
 20
222.68900000000002
 10
293.4540000000001
 20
224.085
 10
294.8970000000001
 20
228.127
 10
295.9480000000001
 20
232.289
 10
296.5980000000001
 20
236.532
 10
296.8400000000001
 20
240.818
 10
296.6730000000001
 20
245.107
 10
296.0980000000001
 20
249.36
 10
295.1200000000001
 20
253.54
  0
SEQEND
  0
LWPOLYLINE
100
AcDbPolyline
 90
110
 70
0
 43
0.0
 10
259.8180000000001
 20
253.54
 10
258.4470000000001
 20
257.60699999999997
 10
256.69400000000013
 20
261.526
 10
254.5760000000001
 20
265.259
 10
252.1120000000001
 20
268.774
 10
249.32400000000013
 20
272.038
 10
246.2380000000001
 20
275.021
 10
252.86400000000012
 20
291.01800000000003
 10
255.32800000000012
 20
289.997
 10
254.2770000000001
 20
287.46
 10
254.2140000000001
 20
287.422
 10
254.17900000000012
 20
287.38800000000003
 10
254.1420000000001
 20
287.325
 10
254.12700000000012
 20
287.278
 10
254.12700000000012
 20
287.18
 10
254.1520000000001
 20
287.111
 10
254.1960000000001
 20
287.052
 10
254.2550000000001
 20
287.008
 10
254.32400000000013
 20
286.984
 10
254.3970000000001
 20
286.98
 10
254.4680000000001
 20
286.998
 10
256.2790000000001
 20
286.248
 10
256.3160000000001
 20
286.185
 10
256.3710000000001
 20
286.136
 10
256.4370000000001
 20
286.104
 10
256.5100000000001
 20
286.094
 10
256.5820000000001
 20
286.104
 10
256.6490000000001
 20
286.136
 10
256.7030000000001
 20
286.185
 10
256.7410000000001
 20
286.248
 10
256.7550000000001
 20
286.295
 10
256.7580000000001
 20
286.368
 10
256.7410000000001
 20
286.439
 10
257.7920000000001
 20
288.977
 10
260.2550000000001
 20
287.956
 10
261.79500000000013
 20
286.468
 10
261.4410000000001
 20
286.11400000000003
 10
265.6260000000001
 20
281.497
 10
269.33800000000014
 20
276.492
 10
272.54200000000014
 20
271.147
 10
275.20600000000013
 20
265.51300000000003
 10
277.3050000000001
 20
259.646
 10
278.8200000000001
 20
253.601
 10
279.7340000000001
 20
247.437
 10
280.04000000000013
 20
241.213
 10
280.54000000000013
 20
241.213
 10
280.2340000000001
 20
234.965
 10
279.3200000000001
 20
228.776
 10
277.8060000000001
 20
222.70600000000002
 10
275.70600000000013
 20
216.814
 10
272.3370000000001
 20
218.209
 10
272.3000000000001
 20
218.272
 10
272.2240000000001
 20
218.334
 10
272.1550000000001
 20
218.358
 10
272.0820000000001
 20
218.362
 10
272.01100000000014
 20
218.344
 10
271.9480000000001
 20
218.30700000000002
 10
271.9130000000001
 20
218.272
 10
271.8750000000001
 20
218.209
 10
271.8610000000001
 20
218.162
 10
271.8580000000001
 20
218.089
 10
271.8750000000001
 20
218.018
 10
270.8240000000001
 20
215.48000000000002
 10
267.6830000000001
 20
216.781
 10
268.7340000000001
 20
219.31900000000002
 10
268.79700000000014
 20
219.356
 10
268.8320000000001
 20
219.39100000000002
 10
268.8700000000001
 20
219.454
 10
268.8870000000001
 20
219.525
 10
268.8870000000001
 20
219.574
 10
268.8700000000001
 20
219.645
 10
268.8320000000001
 20
219.708
 10
268.77800000000013
 20
219.758
 10
268.6870000000001
 20
219.79500000000002
 10
268.6140000000001
 20
219.798
 10
268.5430000000001
 20
219.781
 10
265.3160000000001
 20
221.11700000000002
 10
265.27800000000013
 20
221.18
 10
265.2240000000001
 20
221.23000000000002
 10
265.15800000000013
 20
221.261
 10
265.0850000000001
 20
221.272
 10
265.0120000000001
 20
221.261
 10
264.94600000000014
 20
221.23000000000002
 10
264.90800000000013
 20
221.198
 10
264.8640000000001
 20
221.14
 10
264.8400000000001
 20
221.07
 10
264.8360000000001
 20
220.997
 10
264.8540000000001
 20
220.926
 10
263.8030000000001
 20
218.389
 10
260.6620000000001
 20
219.69
 10
261.71300000000014
 20
222.227
 10
261.7760000000001
 20
222.265
 10
261.8250000000001
 20
222.31900000000002
 10
261.8480000000001
 20
222.362
 10
261.8660000000001
 20
222.434
 10
261.86200000000014
 20
222.507
 10
261.83800000000014
 20
222.57600000000002
 10
261.7940000000001
 20
222.635
 10
261.7350000000001
 20
222.679
 10
261.6660000000001
 20
222.703
 10
261.59300000000013
 20
222.707
 10
261.52100000000013
 20
222.68900000000002
 10
258.1520000000001
 20
224.085
 10
259.59500000000014
 20
228.127
 10
260.64600000000013
 20
232.289
 10
261.2960000000001
 20
236.532
 10
261.5380000000001
 20
240.818
 10
261.3710000000001
 20
245.107
 10
260.7960000000001
 20
249.36
 10
259.8180000000001
 20
253.54
  0
SEQEND
  0
LWPOLYLINE
100
AcDbPolyline
 90
110
 70
0
 43
0.0
 10
224.51600000000008
 20
253.54
 10
223.1450000000001
 20
257.60699999999997
 10
221.39200000000008
 20
261.526
 10
219.2740000000001
 20
265.259
 10
216.8100000000001
 20
268.774
 10
214.0220000000001
 20
272.038
 10
210.9360000000001
 20
275.021
 10
217.5620000000001
 20
291.01800000000003
 10
220.0260000000001
 20
289.997
 10
218.97500000000008
 20
287.46
 10
218.9120000000001
 20
287.422
 10
218.8770000000001
 20
287.38800000000003
 10
218.8400000000001
 20
287.325
 10
218.8250000000001
 20
287.278
 10
218.8250000000001
 20
287.18
 10
218.85000000000008
 20
287.111
 10
218.8940000000001
 20
287.052
 10
218.9530000000001
 20
287.008
 10
219.0220000000001
 20
286.984
 10
219.09500000000008
 20
286.98
 10
219.16600000000008
 20
286.998
 10
220.9770000000001
 20
286.248
 10
221.0140000000001
 20
286.185
 10
221.0690000000001
 20
286.136
 10
221.1350000000001
 20
286.104
 10
221.20800000000008
 20
286.094
 10
221.2800000000001
 20
286.104
 10
221.3470000000001
 20
286.136
 10
221.4010000000001
 20
286.185
 10
221.43900000000008
 20
286.248
 10
221.4530000000001
 20
286.295
 10
221.4560000000001
 20
286.368
 10
221.43900000000008
 20
286.439
 10
222.4900000000001
 20
288.977
 10
224.9530000000001
 20
287.956
 10
226.4930000000001
 20
286.468
 10
226.1390000000001
 20
286.11400000000003
 10
230.3240000000001
 20
281.497
 10
234.0360000000001
 20
276.492
 10
237.2400000000001
 20
271.147
 10
239.90400000000008
 20
265.51300000000003
 10
242.0030000000001
 20
259.646
 10
243.5180000000001
 20
253.601
 10
244.43200000000007
 20
247.437
 10
244.73800000000008
 20
241.213
 10
245.23800000000008
 20
241.213
 10
244.93200000000007
 20
234.965
 10
244.0180000000001
 20
228.776
 10
242.50400000000008
 20
222.70600000000002
 10
240.40400000000008
 20
216.814
 10
237.03500000000008
 20
218.209
 10
236.9980000000001
 20
218.272
 10
236.92200000000008
 20
218.334
 10
236.8530000000001
 20
218.358
 10
236.7800000000001
 20
218.362
 10
236.7090000000001
 20
218.344
 10
236.6460000000001
 20
218.30700000000002
 10
236.6110000000001
 20
218.272
 10
236.5730000000001
 20
218.209
 10
236.55900000000008
 20
218.162
 10
236.5560000000001
 20
218.089
 10
236.5730000000001
 20
218.018
 10
235.5220000000001
 20
215.48000000000002
 10
232.38100000000009
 20
216.781
 10
233.4320000000001
 20
219.31900000000002
 10
233.4950000000001
 20
219.356
 10
233.5300000000001
 20
219.39100000000002
 10
233.5680000000001
 20
219.454
 10
233.5850000000001
 20
219.525
 10
233.5720000000001
 20
219.6335
 10
233.5440000000001
 20
219.689
 10
233.4950000000001
 20
219.743
 10
233.4320000000001
 20
219.781
 10
233.3850000000001
 20
219.79500000000002
 10
233.3120000000001
 20
219.799
 10
233.2410000000001
 20
219.781
 10
230.0140000000001
 20
221.11700000000002
 10
229.97600000000008
 20
221.18
 10
229.92200000000008
 20
221.23000000000002
 10
229.85600000000008
 20
221.261
 10
229.7830000000001
 20
221.272
 10
229.7100000000001
 20
221.261
 10
229.6440000000001
 20
221.23000000000002
 10
229.60600000000008
 20
221.198
 10
229.5620000000001
 20
221.14
 10
229.5380000000001
 20
221.07
 10
229.5340000000001
 20
220.997
 10
229.55200000000008
 20
220.926
 10
228.5010000000001
 20
218.389
 10
225.3600000000001
 20
219.69
 10
226.4110000000001
 20
222.227
 10
226.4740000000001
 20
222.265
 10
226.52300000000008
 20
222.31900000000002
 10
226.5460000000001
 20
222.362
 10
226.56400000000008
 20
222.434
 10
226.5600000000001
 20
222.507
 10
226.5360000000001
 20
222.57600000000002
 10
226.49200000000008
 20
222.635
 10
226.4330000000001
 20
222.679
 10
226.3640000000001
 20
222.703
 10
226.29100000000008
 20
222.707
 10
226.2190000000001
 20
222.68900000000002
 10
222.85000000000008
 20
224.085
 10
224.2930000000001
 20
228.127
 10
225.3440000000001
 20
232.289
 10
225.99400000000009
 20
236.532
 10
226.2360000000001
 20
240.818
 10
226.0690000000001
 20
245.107
 10
225.49400000000009
 20
249.36
 10
224.51600000000008
 20
253.54
  0
SEQEND
  0
LWPOLYLINE
100
AcDbPolyline
 90
110
 70
0
 43
0.0
 10
189.21400000000006
 20
252.958
 10
190.19200000000006
 20
257.13800000000003
 10
190.76700000000005
 20
261.391
 10
190.93400000000008
 20
265.68
 10
190.69200000000006
 20
269.966
 10
190.0420000000001
 20
274.209
 10
188.99100000000007
 20
278.371
 10
187.54800000000006
 20
282.413
 10
190.9170000000001
 20
283.80899999999997
 10
190.9890000000001
 20
283.791
 10
191.06200000000007
 20
283.795
 10
191.13100000000009
 20
283.819
 10
191.19000000000005
 20
283.863
 10
191.23400000000007
 20
283.922
 10
191.25800000000007
 20
283.991
 10
191.26200000000006
 20
284.064
 10
191.24400000000009
 20
284.136
 10
191.22100000000006
 20
284.179
 10
191.17200000000008
 20
284.233
 10
191.10900000000007
 20
284.271
 10
190.05800000000008
 20
286.808
 10
193.19900000000007
 20
288.109
 10
194.25000000000006
 20
285.572
 10
194.23200000000008
 20
285.501
 10
194.23600000000008
 20
285.428
 10
194.26000000000008
 20
285.358
 10
194.3040000000001
 20
285.3
 10
194.34200000000007
 20
285.26800000000003
 10
194.40800000000007
 20
285.237
 10
194.48100000000008
 20
285.226
 10
194.5540000000001
 20
285.237
 10
194.62000000000006
 20
285.26800000000003
 10
194.67400000000006
 20
285.318
 10
194.71200000000007
 20
285.381
 10
197.93900000000008
 20
286.717
 10
198.01000000000008
 20
286.699
 10
198.08300000000008
 20
286.703
 10
198.17400000000006
 20
286.74
 10
198.22800000000007
 20
286.79
 10
198.26600000000008
 20
286.853
 10
198.28300000000007
 20
286.924
 10
198.28300000000007
 20
286.973
 10
198.26600000000008
 20
287.044
 10
198.22800000000007
 20
287.10699999999997
 10
198.19300000000007
 20
287.142
 10
198.13000000000005
 20
287.179
 10
197.07900000000006
 20
289.717
 10
200.22000000000008
 20
291.01800000000003
 10
201.27100000000007
 20
288.48
 10
201.25400000000008
 20
288.409
 10
201.25700000000006
 20
288.336
 10
201.27100000000007
 20
288.289
 10
201.30900000000008
 20
288.226
 10
201.34400000000008
 20
288.19100000000003
 10
201.40700000000007
 20
288.154
 10
201.47800000000007
 20
288.136
 10
201.55100000000007
 20
288.14
 10
201.62000000000006
 20
288.164
 10
201.69600000000008
 20
288.226
 10
201.73300000000006
 20
288.289
 10
205.1020000000001
 20
289.684
 10
207.20200000000006
 20
283.79200000000003
 10
208.71600000000007
 20
277.722
 10
209.63000000000005
 20
271.533
 10
209.93600000000006
 20
265.28499999999997
 10
209.43600000000006
 20
265.28499999999997
 10
209.13000000000005
 20
259.06100000000004
 10
208.21600000000007
 20
252.897
 10
206.70100000000008
 20
246.852
 10
204.6020000000001
 20
240.985
 10
201.93800000000007
 20
235.351
 10
198.73400000000007
 20
230.006
 10
195.02200000000008
 20
225.001
 10
190.83700000000007
 20
220.38400000000001
 10
191.1910000000001
 20
220.03
 10
189.65100000000007
 20
218.542
 10
187.18800000000007
 20
217.52100000000002
 10
186.13700000000006
 20
220.059
 10
186.15400000000005
 20
220.13
 10
186.15100000000007
 20
220.203
 10
186.13700000000006
 20
220.25
 10
186.09900000000007
 20
220.313
 10
186.04500000000007
 20
220.362
 10
185.97800000000007
 20
220.394
 10
185.90600000000006
 20
220.404
 10
185.83300000000008
 20
220.394
 10
185.76700000000005
 20
220.362
 10
185.71200000000007
 20
220.313
 10
185.67500000000007
 20
220.25
 10
183.8640000000001
 20
219.5
 10
183.79300000000006
 20
219.518
 10
183.72000000000008
 20
219.514
 10
183.65100000000007
 20
219.49
 10
183.59200000000007
 20
219.446
 10
183.54800000000006
 20
219.387
 10
183.52300000000008
 20
219.318
 10
183.52300000000008
 20
219.22
 10
183.53800000000007
 20
219.173
 10
183.57500000000007
 20
219.11
 10
183.61000000000007
 20
219.076
 10
183.67300000000006
 20
219.038
 10
184.72400000000007
 20
216.501
 10
182.26000000000008
 20
215.48000000000002
 10
175.63400000000007
 20
231.477
 10
178.72000000000008
 20
234.46
 10
181.50800000000007
 20
237.724
 10
183.97200000000007
 20
241.239
 10
186.0900000000001
 20
244.972
 10
187.84300000000007
 20
248.89100000000002
 10
189.21400000000006
 20
252.958
  0
SEQEND
  0
LWPOLYLINE
100
AcDbPolyline
 90
110
 70
0
 43
0.0
 10
153.91200000000003
 20
252.958
 10
154.89000000000004
 20
257.13800000000003
 10
155.46500000000003
 20
261.391
 10
155.63200000000006
 20
265.68
 10
155.39000000000004
 20
269.966
 10
154.74000000000007
 20
274.209
 10
153.68900000000005
 20
278.371
 10
152.24600000000004
 20
282.413
 10
155.61500000000007
 20
283.80899999999997
 10
155.68700000000007
 20
283.791
 10
155.76000000000005
 20
283.795
 10
155.82900000000006
 20
283.819
 10
155.88800000000003
 20
283.863
 10
155.93200000000004
 20
283.922
 10
155.95600000000005
 20
283.991
 10
155.96000000000004
 20
284.064
 10
155.94200000000006
 20
284.136
 10
155.91900000000004
 20
284.179
 10
155.87000000000006
 20
284.233
 10
155.80700000000004
 20
284.271
 10
154.75600000000006
 20
286.808
 10
157.89700000000005
 20
288.109
 10
158.94800000000004
 20
285.572
 10
158.93000000000006
 20
285.501
 10
158.93400000000005
 20
285.428
 10
158.95800000000006
 20
285.358
 10
159.00200000000007
 20
285.3
 10
159.04000000000005
 20
285.26800000000003
 10
159.10600000000005
 20
285.237
 10
159.17900000000006
 20
285.226
 10
159.25200000000007
 20
285.237
 10
159.31800000000004
 20
285.26800000000003
 10
159.37200000000004
 20
285.318
 10
159.41000000000005
 20
285.381
 10
162.63700000000006
 20
286.717
 10
162.70800000000006
 20
286.699
 10
162.78100000000006
 20
286.703
 10
162.87200000000004
 20
286.74
 10
162.92600000000004
 20
286.79
 10
162.96400000000006
 20
286.853
 10
162.98100000000005
 20
286.924
 10
162.98100000000005
 20
286.973
 10
162.96400000000006
 20
287.044
 10
162.92600000000004
 20
287.10699999999997
 10
162.89100000000005
 20
287.142
 10
162.82800000000003
 20
287.179
 10
161.77700000000004
 20
289.717
 10
164.91800000000006
 20
291.01800000000003
 10
165.96900000000005
 20
288.48
 10
165.95200000000006
 20
288.409
 10
165.95500000000004
 20
288.336
 10
165.96900000000005
 20
288.289
 10
166.00700000000006
 20
288.226
 10
166.04200000000006
 20
288.19100000000003
 10
166.10500000000005
 20
288.154
 10
166.17600000000004
 20
288.136
 10
166.24900000000005
 20
288.14
 10
166.31800000000004
 20
288.164
 10
166.39400000000006
 20
288.226
 10
166.43100000000004
 20
288.289
 10
169.80000000000007
 20
289.684
 10
171.90000000000003
 20
283.79200000000003
 10
173.41400000000004
 20
277.722
 10
174.32800000000003
 20
271.533
 10
174.63400000000004
 20
265.28499999999997
 10
174.13400000000004
 20
265.28499999999997
 10
173.82800000000003
 20
259.06100000000004
 10
172.91400000000004
 20
252.897
 10
171.39900000000006
 20
246.852
 10
169.30000000000007
 20
240.985
 10
166.63600000000005
 20
235.351
 10
163.43200000000004
 20
230.006
 10
159.72000000000006
 20
225.001
 10
155.53500000000005
 20
220.38400000000001
 10
155.88900000000007
 20
220.03
 10
154.34900000000005
 20
218.542
 10
151.88600000000005
 20
217.52100000000002
 10
150.83500000000004
 20
220.059
 10
150.85200000000003
 20
220.13
 10
150.84900000000005
 20
220.203
 10
150.83500000000004
 20
220.25
 10
150.79700000000005
 20
220.313
 10
150.74300000000005
 20
220.362
 10
150.67600000000004
 20
220.394
 10
150.60400000000004
 20
220.404
 10
150.53100000000006
 20
220.394
 10
150.46500000000003
 20
220.362
 10
150.41000000000005
 20
220.313
 10
150.37300000000005
 20
220.25
 10
148.56200000000007
 20
219.5
 10
148.49100000000004
 20
219.518
 10
148.41800000000006
 20
219.514
 10
148.34900000000005
 20
219.49
 10
148.29000000000005
 20
219.446
 10
148.24600000000004
 20
219.387
 10
148.22100000000006
 20
219.318
 10
148.22100000000006
 20
219.22
 10
148.23600000000005
 20
219.173
 10
148.27300000000005
 20
219.11
 10
148.30800000000005
 20
219.076
 10
148.37100000000004
 20
219.038
 10
149.42200000000005
 20
216.501
 10
146.95800000000006
 20
215.48000000000002
 10
140.33200000000005
 20
231.477
 10
143.41800000000006
 20
234.46
 10
146.20600000000005
 20
237.724
 10
148.67000000000004
 20
241.239
 10
150.78800000000007
 20
244.972
 10
152.54100000000005
 20
248.89100000000002
 10
153.91200000000003
 20
252.958
  0
SEQEND
  0
LWPOLYLINE
100
AcDbPolyline
 90
110
 70
0
 43
0.0
 10
118.61000000000003
 20
253.54
 10
117.23900000000003
 20
257.60699999999997
 10
115.48600000000002
 20
261.526
 10
113.36800000000002
 20
265.259
 10
110.90400000000002
 20
268.774
 10
108.11600000000004
 20
272.038
 10
105.03000000000003
 20
275.021
 10
111.65600000000003
 20
291.01800000000003
 10
114.12000000000003
 20
289.997
 10
113.06900000000002
 20
287.46
 10
113.00600000000003
 20
287.422
 10
112.97100000000003
 20
287.38800000000003
 10
112.93400000000003
 20
287.325
 10
112.91900000000004
 20
287.278
 10
112.91900000000004
 20
287.18
 10
112.94400000000002
 20
287.111
 10
112.98800000000003
 20
287.052
 10
113.04700000000003
 20
287.008
 10
113.11600000000004
 20
286.984
 10
113.18900000000002
 20
286.98
 10
113.26000000000002
 20
286.998
 10
115.07100000000003
 20
286.248
 10
115.10800000000003
 20
286.185
 10
115.16300000000004
 20
286.136
 10
115.22900000000004
 20
286.104
 10
115.30200000000002
 20
286.094
 10
115.37400000000002
 20
286.104
 10
115.44100000000003
 20
286.136
 10
115.49500000000003
 20
286.185
 10
115.53300000000002
 20
286.248
 10
115.54700000000003
 20
286.295
 10
115.55000000000004
 20
286.368
 10
115.53300000000002
 20
286.439
 10
116.58400000000003
 20
288.977
 10
119.04700000000003
 20
287.956
 10
120.58700000000003
 20
286.468
 10
120.23300000000003
 20
286.11400000000003
 10
124.41800000000003
 20
281.497
 10
128.13000000000002
 20
276.492
 10
131.33400000000003
 20
271.147
 10
133.99800000000005
 20
265.51300000000003
 10
136.09700000000004
 20
259.646
 10
137.61200000000002
 20
253.601
 10
138.526
 20
247.437
 10
138.83200000000002
 20
241.213
 10
139.33200000000002
 20
241.213
 10
139.026
 20
234.965
 10
138.11200000000002
 20
228.776
 10
136.598
 20
222.70600000000002
 10
134.49800000000005
 20
216.814
 10
131.12900000000002
 20
218.209
 10
131.09200000000004
 20
218.272
 10
131.01600000000002
 20
218.334
 10
130.94700000000003
 20
218.358
 10
130.87400000000002
 20
218.362
 10
130.80300000000003
 20
218.344
 10
130.74000000000004
 20
218.30700000000002
 10
130.70500000000004
 20
218.272
 10
130.66700000000003
 20
218.209
 10
130.65300000000002
 20
218.162
 10
130.65000000000003
 20
218.089
 10
130.66700000000003
 20
218.018
 10
129.61600000000004
 20
215.48000000000002
 10
126.47500000000002
 20
216.781
 10
127.52600000000002
 20
219.31900000000002
 10
127.58900000000003
 20
219.356
 10
127.62400000000002
 20
219.39100000000002
 10
127.66200000000003
 20
219.454
 10
127.67900000000003
 20
219.525
 10
127.67900000000003
 20
219.574
 10
127.66200000000003
 20
219.645
 10
127.62400000000002
 20
219.708
 10
127.57000000000002
 20
219.758
 10
127.47900000000003
 20
219.79500000000002
 10
127.40600000000003
 20
219.799
 10
127.33500000000004
 20
219.781
 10
124.10800000000003
 20
221.11700000000002
 10
124.07000000000002
 20
221.18
 10
124.01600000000003
 20
221.23000000000002
 10
123.95000000000003
 20
221.261
 10
123.87700000000004
 20
221.272
 10
123.80400000000003
 20
221.261
 10
123.73800000000003
 20
221.23000000000002
 10
123.70000000000003
 20
221.198
 10
123.65600000000003
 20
221.14
 10
123.63200000000003
 20
221.07
 10
123.62800000000003
 20
220.997
 10
123.64600000000003
 20
220.926
 10
122.59500000000003
 20
218.389
 10
119.45400000000004
 20
219.69
 10
120.50500000000002
 20
222.227
 10
120.56800000000003
 20
222.265
 10
120.61700000000003
 20
222.31900000000002
 10
120.64000000000003
 20
222.362
 10
120.65800000000003
 20
222.434
 10
120.65400000000002
 20
222.507
 10
120.63000000000002
 20
222.57600000000002
 10
120.58600000000003
 20
222.635
 10
120.52700000000003
 20
222.679
 10
120.45800000000003
 20
222.703
 10
120.38500000000003
 20
222.707
 10
120.31300000000003
 20
222.68900000000002
 10
116.94400000000002
 20
224.085
 10
118.38700000000003
 20
228.127
 10
119.43800000000003
 20
232.289
 10
120.08800000000002
 20
236.532
 10
120.33000000000003
 20
240.818
 10
120.16300000000003
 20
245.107
 10
119.58800000000002
 20
249.36
 10
118.61000000000003
 20
253.54
  0
SEQEND
  0
LWPOLYLINE
100
AcDbPolyline
 90
111
 70
0
 43
0.0
 10
87.03000000000003
 20
280.003
 10
87.03000000000003
 20
246.003
 10
100.93000000000004
 20
246.003
 10
100.93000000000004
 20
243.757
 10
100.88600000000002
 20
243.698
 10
100.86200000000002
 20
243.62900000000002
 10
100.85800000000003
 20
243.555
 10
100.87600000000003
 20
243.484
 10
100.91400000000004
 20
243.421
 10
100.96800000000002
 20
243.372
 10
101.03400000000002
 20
243.341
 10
101.08200000000002
 20
243.33100000000002
 10
101.15600000000003
 20
243.335
 10
101.22500000000002
 20
243.359
 10
101.28400000000002
 20
243.403
 10
104.03000000000003
 20
243.403
 10
104.03000000000003
 20
241.403
 10
101.28400000000002
 20
241.403
 10
101.20200000000003
 20
241.457
 10
101.13100000000003
 20
241.475
 10
101.05800000000002
 20
241.471
 10
100.98900000000003
 20
241.447
 10
100.93000000000004
 20
241.403
 10
100.88600000000002
 20
241.344
 10
100.86200000000002
 20
241.275
 10
100.85800000000003
 20
241.202
 10
100.87600000000003
 20
241.131
 10
100.93000000000004
 20
241.049
 10
100.93000000000004
 20
238.957
 10
100.88600000000002
 20
238.898
 10
100.86200000000002
 20
238.829
 10
100.85800000000003
 20
238.755
 10
100.87600000000003
 20
238.684
 10
100.91400000000004
 20
238.62099999999998
 10
100.96800000000002
 20
238.572
 10
101.03400000000002
 20
238.541
 10
101.08200000000002
 20
238.531
 10
101.15600000000003
 20
238.535
 10
101.22500000000002
 20
238.559
 10
101.28400000000002
 20
238.603
 10
104.03000000000003
 20
238.603
 10
104.03000000000003
 20
236.603
 10
101.28400000000002
 20
236.603
 10
101.20200000000003
 20
236.65699999999998
 10
101.13100000000003
 20
236.675
 10
101.05800000000002
 20
236.671
 10
100.98900000000003
 20
236.647
 10
100.93000000000004
 20
236.603
 10
100.88600000000002
 20
236.54399999999998
 10
100.86200000000002
 20
236.475
 10
100.85800000000003
 20
236.402
 10
100.87600000000003
 20
236.33100000000002
 10
100.93000000000004
 20
236.249
 10
100.93000000000004
 20
234.988
 10
84.48700000000002
 20
240.216
 10
81.03000000000003
 20
246.003
 10
81.03000000000003
 20
280.003
 10
84.48700000000002
 20
285.78999999999996
 10
100.93000000000004
 20
291.01800000000003
 10
100.93000000000004
 20
289.757
 10
100.87600000000003
 20
289.675
 10
100.85800000000003
 20
289.604
 10
100.86200000000002
 20
289.531
 10
100.88600000000002
 20
289.462
 10
100.93000000000004
 20
289.403
 10
100.98900000000003
 20
289.35900000000004
 10
101.05800000000002
 20
289.33500000000004
 10
101.13100000000003
 20
289.331
 10
101.20200000000003
 20
289.349
 10
101.28400000000002
 20
289.403
 10
104.03000000000003
 20
289.403
 10
104.03000000000003
 20
287.403
 10
101.28400000000002
 20
287.403
 10
101.22500000000002
 20
287.447
 10
101.15600000000003
 20
287.471
 10
101.08200000000002
 20
287.475
 10
101.03400000000002
 20
287.46500000000003
 10
100.96800000000002
 20
287.43399999999997
 10
100.91400000000004
 20
287.385
 10
100.87600000000003
 20
287.322
 10
100.85800000000003
 20
287.251
 10
100.86200000000002
 20
287.177
 10
100.88600000000002
 20
287.108
 10
100.93000000000004
 20
287.049
 10
100.93000000000004
 20
284.957
 10
100.87600000000003
 20
284.875
 10
100.85800000000003
 20
284.804
 10
100.86200000000002
 20
284.731
 10
100.88600000000002
 20
284.66200000000003
 10
100.93000000000004
 20
284.603
 10
100.98900000000003
 20
284.55899999999997
 10
101.05800000000002
 20
284.53499999999997
 10
101.13100000000003
 20
284.531
 10
101.20200000000003
 20
284.549
 10
101.28400000000002
 20
284.603
 10
104.03000000000003
 20
284.603
 10
104.03000000000003
 20
282.603
 10
101.28400000000002
 20
282.603
 10
101.22500000000002
 20
282.647
 10
101.15600000000003
 20
282.671
 10
101.08200000000002
 20
282.675
 10
101.03400000000002
 20
282.66499999999996
 10
100.96800000000002
 20
282.634
 10
100.91400000000004
 20
282.58500000000004
 10
100.87600000000003
 20
282.522
 10
100.85800000000003
 20
282.451
 10
100.86200000000002
 20
282.377
 10
100.88600000000002
 20
282.308
 10
100.93000000000004
 20
282.249
 10
100.93000000000004
 20
280.003
 10
87.03000000000003
 20
280.003
  0
SEQEND
  0
LWPOLYLINE
100
AcDbPolyline
 90
111
 70
0
 43
0.0
 10
63.03000000000003
 20
280.003
 10
63.03000000000003
 20
246.003
 10
76.93000000000004
 20
246.003
 10
76.93000000000004
 20
243.757
 10
76.88600000000002
 20
243.698
 10
76.86200000000002
 20
243.62900000000002
 10
76.85800000000003
 20
243.555
 10
76.87600000000003
 20
243.484
 10
76.91400000000004
 20
243.421
 10
76.96800000000002
 20
243.372
 10
77.03400000000002
 20
243.341
 10
77.08200000000002
 20
243.33100000000002
 10
77.15600000000003
 20
243.335
 10
77.22500000000002
 20
243.359
 10
77.28400000000002
 20
243.403
 10
80.03000000000003
 20
243.403
 10
80.03000000000003
 20
241.403
 10
77.28400000000002
 20
241.403
 10
77.20200000000003
 20
241.457
 10
77.13100000000003
 20
241.475
 10
77.05800000000002
 20
241.471
 10
76.98900000000003
 20
241.447
 10
76.93000000000004
 20
241.403
 10
76.88600000000002
 20
241.344
 10
76.86200000000002
 20
241.275
 10
76.85800000000003
 20
241.202
 10
76.87600000000003
 20
241.131
 10
76.93000000000004
 20
241.049
 10
76.93000000000004
 20
238.957
 10
76.88600000000002
 20
238.898
 10
76.86200000000002
 20
238.829
 10
76.85800000000003
 20
238.755
 10
76.87600000000003
 20
238.684
 10
76.91400000000004
 20
238.62099999999998
 10
76.96800000000002
 20
238.572
 10
77.03400000000002
 20
238.541
 10
77.08200000000002
 20
238.531
 10
77.15600000000003
 20
238.535
 10
77.22500000000002
 20
238.559
 10
77.28400000000002
 20
238.603
 10
80.03000000000003
 20
238.603
 10
80.03000000000003
 20
236.603
 10
77.28400000000002
 20
236.603
 10
77.20200000000003
 20
236.65699999999998
 10
77.13100000000003
 20
236.675
 10
77.05800000000002
 20
236.671
 10
76.98900000000003
 20
236.647
 10
76.93000000000004
 20
236.603
 10
76.88600000000002
 20
236.54399999999998
 10
76.86200000000002
 20
236.475
 10
76.85800000000003
 20
236.402
 10
76.87600000000003
 20
236.33100000000002
 10
76.93000000000004
 20
236.249
 10
76.93000000000004
 20
234.988
 10
60.48700000000002
 20
240.216
 10
57.03000000000003
 20
246.003
 10
57.03000000000003
 20
280.003
 10
60.48700000000002
 20
285.78999999999996
 10
76.93000000000004
 20
291.01800000000003
 10
76.93000000000004
 20
289.757
 10
76.87600000000003
 20
289.675
 10
76.85800000000003
 20
289.604
 10
76.86200000000002
 20
289.531
 10
76.88600000000002
 20
289.462
 10
76.93000000000004
 20
289.403
 10
76.98900000000003
 20
289.35900000000004
 10
77.05800000000002
 20
289.33500000000004
 10
77.13100000000003
 20
289.331
 10
77.20200000000003
 20
289.349
 10
77.28400000000002
 20
289.403
 10
80.03000000000003
 20
289.403
 10
80.03000000000003
 20
287.403
 10
77.28400000000002
 20
287.403
 10
77.22500000000002
 20
287.447
 10
77.15600000000003
 20
287.471
 10
77.08200000000002
 20
287.475
 10
77.03400000000002
 20
287.46500000000003
 10
76.96800000000002
 20
287.43399999999997
 10
76.91400000000004
 20
287.385
 10
76.87600000000003
 20
287.322
 10
76.85800000000003
 20
287.251
 10
76.86200000000002
 20
287.177
 10
76.88600000000002
 20
287.108
 10
76.93000000000004
 20
287.049
 10
76.93000000000004
 20
284.957
 10
76.87600000000003
 20
284.875
 10
76.85800000000003
 20
284.804
 10
76.86200000000002
 20
284.731
 10
76.88600000000002
 20
284.66200000000003
 10
76.93000000000004
 20
284.603
 10
76.98900000000003
 20
284.55899999999997
 10
77.05800000000002
 20
284.53499999999997
 10
77.13100000000003
 20
284.531
 10
77.20200000000003
 20
284.549
 10
77.28400000000002
 20
284.603
 10
80.03000000000003
 20
284.603
 10
80.03000000000003
 20
282.603
 10
77.28400000000002
 20
282.603
 10
77.22500000000002
 20
282.647
 10
77.15600000000003
 20
282.671
 10
77.08200000000002
 20
282.675
 10
77.03400000000002
 20
282.66499999999996
 10
76.96800000000002
 20
282.634
 10
76.91400000000004
 20
282.58500000000004
 10
76.87600000000003
 20
282.522
 10
76.85800000000003
 20
282.451
 10
76.86200000000002
 20
282.377
 10
76.88600000000002
 20
282.308
 10
76.93000000000004
 20
282.249
 10
76.93000000000004
 20
280.003
 10
63.03000000000003
 20
280.003
  0
SEQEND
  0
LWPOLYLINE
100
AcDbPolyline
 90
112
 70
0
 43
0.0
 10
45.014999999999986
 20
285.01800000000003
 10
11.014999999999986
 20
285.01800000000003
 10
11.014999999999986
 20
271.118
 10
8.769000000000005
 20
271.118
 10
8.710000000000008
 20
271.16200000000003
 10
8.640999999999991
 20
271.18600000000004
 10
8.567000000000007
 20
271.19
 10
8.49600000000001
 20
271.172
 10
8.432999999999993
 20
271.134
 10
8.384000000000015
 20
271.08
 10
8.353000000000009
 20
271.014
 10
8.34299999999999
 20
270.966
 10
8.347000000000008
 20
270.892
 10
8.37100000000001
 20
270.823
 10
8.414999999999992
 20
270.764
 10
8.414999999999992
 20
268.01800000000003
 10
6.414999999999992
 20
268.01800000000003
 10
6.414999999999992
 20
270.764
 10
6.468999999999994
 20
270.846
 10
6.486999999999995
 20
270.91700000000003
 10
6.483000000000004
 20
270.99
 10
6.459000000000003
 20
271.05899999999997
 10
6.414999999999992
 20
271.118
 10
6.3559999999999945
 20
271.16200000000003
 10
6.287000000000006
 20
271.18600000000004
 10
6.213999999999999
 20
271.19
 10
6.143000000000001
 20
271.172
 10
6.061000000000007
 20
271.118
 10
3.968999999999994
 20
271.118
 10
3.9099999999999966
 20
271.16200000000003
 10
3.841000000000008
 20
271.18600000000004
 10
3.766999999999996
 20
271.19
 10
3.695999999999998
 20
271.172
 10
3.6330000000000098
 20
271.134
 10
3.584000000000003
 20
271.08
 10
3.5529999999999973
 20
271.014
 10
3.5430000000000064
 20
270.966
 10
3.546999999999997
 20
270.892
 10
3.570999999999998
 20
270.823
 10
3.615000000000009
 20
270.764
 10
3.615000000000009
 20
268.01800000000003
 10
1.615000000000009
 20
268.01800000000003
 10
1.615000000000009
 20
270.764
 10
1.6690000000000111
 20
270.846
 10
1.6870000000000118
 20
270.91700000000003
 10
1.6829999999999927
 20
270.99
 10
1.6589999999999918
 20
271.05899999999997
 10
1.615000000000009
 20
271.118
 10
1.5560000000000116
 20
271.16200000000003
 10
1.4869999999999948
 20
271.18600000000004
 10
1.4139999999999873
 20
271.19
 10
1.3429999999999893
 20
271.172
 10
1.2609999999999957
 20
271.118
 10
0
 20
271.118
 10
5.228000000000009
 20
287.56100000000004
 10
11.014999999999986
 20
291.01800000000003
 10
45.014999999999986
 20
291.01800000000003
 10
50.80199999999999
 20
287.56100000000004
 10
56.03
 20
271.118
 10
54.769000000000005
 20
271.118
 10
54.68700000000001
 20
271.172
 10
54.615999999999985
 20
271.19
 10
54.543000000000006
 20
271.18600000000004
 10
54.47399999999999
 20
271.16200000000003
 10
54.41499999999999
 20
271.118
 10
54.37100000000001
 20
271.05899999999997
 10
54.34700000000001
 20
270.99
 10
54.34300000000002
 20
270.91700000000003
 10
54.36099999999999
 20
270.846
 10
54.41499999999999
 20
270.764
 10
54.41499999999999
 20
268.01800000000003
 10
52.41499999999999
 20
268.01800000000003
 10
52.41499999999999
 20
270.764
 10
52.459
 20
270.823
 10
52.483000000000004
 20
270.892
 10
52.488
 20
270.94100000000003
 10
52.477000000000004
 20
271.014
 10
52.446
 20
271.08
 10
52.39699999999999
 20
271.134
 10
52.334
 20
271.172
 10
52.263000000000005
 20
271.19
 10
52.18899999999999
 20
271.18600000000004
 10
52.120000000000005
 20
271.16200000000003
 10
52.06100000000001
 20
271.118
 10
49.968999999999994
 20
271.118
 10
49.91
 20
271.16200000000003
 10
49.84100000000001
 20
271.18600000000004
 10
49.766999999999996
 20
271.19
 10
49.718999999999994
 20
271.18
 10
49.65300000000002
 20
271.149
 10
49.59800000000001
 20
271.1
 10
49.571
 20
271.05899999999997
 10
49.547
 20
270.99
 10
49.543000000000006
 20
270.91700000000003
 10
49.56100000000001
 20
270.846
 10
49.61500000000001
 20
270.764
 10
49.61500000000001
 20
268.01800000000003
 10
47.61500000000001
 20
268.01800000000003
 10
47.61500000000001
 20
270.764
 10
47.65899999999999
 20
270.823
 10
47.68299999999999
 20
270.892
 10
47.68799999999999
 20
270.94100000000003
 10
47.67699999999999
 20
271.014
 10
47.646000000000015
 20
271.08
 10
47.59700000000001
 20
271.134
 10
47.53399999999999
 20
271.172
 10
47.462999999999994
 20
271.19
 10
47.38900000000001
 20
271.18600000000004
 10
47.31999999999999
 20
271.16200000000003
 10
47.260999999999996
 20
271.118
 10
45.014999999999986
 20
271.118
 10
45.014999999999986
 20
285.01800000000003
  0
SEQEND
  0
LWPOLYLINE
100
AcDbPolyline
 90
112
 70
0
 43
0.0
 10
454.8740000000001
 20
193.75799999999998
 10
450.6940000000001
 20
194.736
 10
446.4410000000001
 20
195.31099999999998
 10
442.15200000000004
 20
195.478
 10
437.8660000000001
 20
195.236
 10
433.62300000000005
 20
194.586
 10
429.46100000000007
 20
193.535
 10
425.4190000000001
 20
192.09199999999998
 10
424.0230000000001
 20
195.461
 10
424.04100000000005
 20
195.53300000000002
 10
424.0370000000001
 20
195.606
 10
424.0130000000001
 20
195.675
 10
423.96900000000005
 20
195.73399999999998
 10
423.9100000000001
 20
195.778
 10
423.84100000000007
 20
195.802
 10
423.7680000000001
 20
195.80599999999998
 10
423.6960000000001
 20
195.788
 10
423.6530000000001
 20
195.765
 10
423.59900000000005
 20
195.716
 10
423.5610000000001
 20
195.653
 10
421.0240000000001
 20
194.602
 10
419.72300000000007
 20
197.743
 10
422.2600000000001
 20
198.79399999999998
 10
422.3560000000001
 20
198.775
 10
422.4280000000001
 20
198.786
 10
422.49500000000006
 20
198.817
 10
422.5490000000001
 20
198.86599999999999
 10
422.5870000000001
 20
198.929
 10
422.6010000000001
 20
198.976
 10
422.60400000000004
 20
199.04899999999998
 10
422.5870000000001
 20
199.12099999999998
 10
422.5490000000001
 20
199.184
 10
422.49500000000006
 20
199.233
 10
422.4510000000001
 20
199.256
 10
421.11500000000007
 20
202.483
 10
421.1290000000001
 20
202.53
 10
421.13300000000004
 20
202.603
 10
421.11500000000007
 20
202.67399999999998
 10
421.0920000000001
 20
202.718
 10
421.0420000000001
 20
202.772
 10
420.97900000000004
 20
202.81
 10
420.9080000000001
 20
202.827
 10
420.8350000000001
 20
202.824
 10
420.78800000000007
 20
202.81
 10
420.7250000000001
 20
202.772
 10
420.67600000000004
 20
202.718
 10
420.6530000000001
 20
202.67399999999998
 10
418.11500000000007
 20
201.623
 10
416.8140000000001
 20
204.764
 10
419.3520000000001
 20
205.815
 10
419.3990000000001
 20
205.801
 10
419.4720000000001
 20
205.798
 10
419.54300000000006
 20
205.815
 10
419.6060000000001
 20
205.853
 10
419.66800000000006
 20
205.929
 10
419.69200000000006
 20
205.998
 10
419.6960000000001
 20
206.071
 10
419.68700000000007
 20
206.119
 10
419.6550000000001
 20
206.185
 10
419.6060000000001
 20
206.24
 10
419.54300000000006
 20
206.277
 10
418.1480000000001
 20
209.64600000000002
 10
424.0400000000001
 20
211.74599999999998
 10
430.11000000000007
 20
213.26
 10
436.2990000000001
 20
214.17399999999998
 10
442.5470000000001
 20
214.48
 10
442.5470000000001
 20
213.98
 10
448.7710000000001
 20
213.67399999999998
 10
454.93500000000006
 20
212.76
 10
460.9800000000001
 20
211.245
 10
466.8470000000001
 20
209.14600000000002
 10
472.4810000000001
 20
206.482
 10
477.8260000000001
 20
203.278
 10
482.8310000000001
 20
199.566
 10
487.4480000000001
 20
195.381
 10
487.8020000000001
 20
195.735
 10
489.2900000000001
 20
194.195
 10
490.3110000000001
 20
191.732
 10
487.7730000000001
 20
190.68099999999998
 10
487.6780000000001
 20
190.7
 10
487.6050000000001
 20
190.689
 10
487.5390000000001
 20
190.65800000000002
 10
487.4840000000001
 20
190.608
 10
487.4570000000001
 20
190.567
 10
487.4330000000001
 20
190.498
 10
487.4290000000001
 20
190.425
 10
487.4380000000001
 20
190.377
 10
487.4700000000001
 20
190.31099999999998
 10
487.51900000000006
 20
190.256
 10
487.5820000000001
 20
190.219
 10
488.3320000000001
 20
188.40800000000002
 10
488.3180000000001
 20
188.361
 10
488.3140000000001
 20
188.288
 10
488.3320000000001
 20
188.21699999999998
 10
488.37000000000006
 20
188.154
 10
488.4040000000001
 20
188.119
 10
488.4670000000001
 20
188.082
 10
488.51400000000007
 20
188.067
 10
488.5870000000001
 20
188.064
 10
488.6350000000001
 20
188.07299999999998
 10
488.7020000000001
 20
188.105
 10
488.7560000000001
 20
188.154
 10
488.7940000000001
 20
188.21699999999998
 10
491.3310000000001
 20
189.268
 10
492.3520000000001
 20
186.804
 10
476.3550000000001
 20
180.178
 10
473.37200000000007
 20
183.264
 10
470.10800000000006
 20
186.052
 10
466.5930000000001
 20
188.516
 10
462.86000000000007
 20
190.63400000000001
 10
458.9410000000001
 20
192.387
 10
454.8740000000001
 20
193.75799999999998
  0
SEQEND
  0
LWPOLYLINE
100
AcDbPolyline
 90
48
 70
0
 43
0.0
 10
481.07400000000007
 20
165.461
 10
481.0340000000001
 20
165.523
 10
481.0140000000001
 20
165.593
 10
481.0200000000001
 20
165.691
 10
479.7740000000001
 20
167.85
 10
479.6860000000001
 20
167.893
 10
479.6350000000001
 20
167.945
 10
479.6110000000001
 20
167.988
 10
479.5910000000001
 20
168.058
 10
479.5920000000001
 20
168.132
 10
479.6140000000001
 20
168.202
 10
479.65600000000006
 20
168.262
 10
479.71400000000006
 20
168.308
 10
479.8060000000001
 20
168.339
 10
479.9030000000001
 20
168.332
 10
481.9470000000001
 20
169.512
 10
481.9760000000001
 20
169.57999999999998
 10
482.0230000000001
 20
169.636
 10
482.0850000000001
 20
169.675
 10
482.1310000000001
 20
169.691
 10
482.2050000000001
 20
169.697
 10
482.27600000000007
 20
169.68200000000002
 10
482.3400000000001
 20
169.64600000000002
 10
482.3910000000001
 20
169.593
 10
482.42500000000007
 20
169.528
 10
482.4380000000001
 20
169.45600000000002
 10
482.43000000000006
 20
169.38299999999998
 10
483.6760000000001
 20
167.224
 10
483.7440000000001
 20
167.195
 10
483.7990000000001
 20
167.147
 10
483.83900000000006
 20
167.086
 10
483.8590000000001
 20
167.015
 10
483.8610000000001
 20
166.966
 10
483.8450000000001
 20
166.894
 10
483.81000000000006
 20
166.82999999999998
 10
483.75700000000006
 20
166.779
 10
483.6920000000001
 20
166.74599999999998
 10
483.6200000000001
 20
166.733
 10
483.5470000000001
 20
166.74099999999999
 10
481.5030000000001
 20
165.561
 10
481.4860000000001
 20
165.515
 10
481.4440000000001
 20
165.45499999999998
 10
481.38700000000006
 20
165.409
 10
481.3190000000001
 20
165.382
 10
481.2700000000001
 20
165.376
 10
481.1970000000001
 20
165.38400000000001
 10
481.1300000000001
 20
165.414
 10
481.07400000000007
 20
165.461
  0
SEQEND
  0
LWPOLYLINE
100
AcDbPolyline
 90
48
 70
0
 43
0.0
 10
458.4520000000001
 20
165.461
 10
458.3960000000001
 20
165.414
 10
458.32900000000006
 20
165.38400000000001
 10
458.2560000000001
 20
165.376
 10
458.2070000000001
 20
165.382
 10
458.1390000000001
 20
165.409
 10
458.0820000000001
 20
165.45499999999998
 10
458.0400000000001
 20
165.515
 10
458.0230000000001
 20
165.561
 10
455.9790000000001
 20
166.74099999999999
 10
455.90600000000006
 20
166.733
 10
455.83400000000006
 20
166.74599999999998
 10
455.7690000000001
 20
166.779
 10
455.7160000000001
 20
166.82999999999998
 10
455.6810000000001
 20
166.894
 10
455.6650000000001
 20
166.966
 10
455.6670000000001
 20
167.015
 10
455.6870000000001
 20
167.086
 10
455.7270000000001
 20
167.147
 10
455.7820000000001
 20
167.195
 10
455.8500000000001
 20
167.224
 10
457.0960000000001
 20
169.38299999999998
 10
457.0880000000001
 20
169.43099999999998
 10
457.09400000000005
 20
169.504
 10
457.1210000000001
 20
169.573
 10
457.1670000000001
 20
169.63
 10
457.2270000000001
 20
169.672
 10
457.2970000000001
 20
169.69400000000002
 10
457.3700000000001
 20
169.695
 10
457.4410000000001
 20
169.675
 10
457.5030000000001
 20
169.636
 10
457.55000000000007
 20
169.57999999999998
 10
457.57900000000006
 20
169.512
 10
459.6230000000001
 20
168.332
 10
459.7200000000001
 20
168.339
 10
459.8120000000001
 20
168.308
 10
459.8700000000001
 20
168.262
 10
459.9120000000001
 20
168.202
 10
459.9340000000001
 20
168.132
 10
459.93500000000006
 20
168.058
 10
459.9150000000001
 20
167.988
 10
459.8910000000001
 20
167.945
 10
459.8400000000001
 20
167.893
 10
459.75200000000007
 20
167.85
 10
458.5060000000001
 20
165.691
 10
458.51200000000006
 20
165.593
 10
458.4920000000001
 20
165.523
 10
458.4520000000001
 20
165.461
  0
SEQEND
  0
LWPOLYLINE
100
AcDbPolyline
 90
48
 70
0
 43
0.0
 10
481.07400000000007
 20
147.71699999999998
 10
481.1300000000001
 20
147.764
 10
481.1970000000001
 20
147.794
 10
481.2700000000001
 20
147.802
 10
481.3190000000001
 20
147.796
 10
481.38700000000006
 20
147.769
 10
481.4440000000001
 20
147.723
 10
481.4860000000001
 20
147.663
 10
481.5030000000001
 20
147.617
 10
483.5470000000001
 20
146.437
 10
483.6200000000001
 20
146.445
 10
483.6920000000001
 20
146.432
 10
483.75700000000006
 20
146.399
 10
483.81000000000006
 20
146.348
 10
483.8450000000001
 20
146.284
 10
483.8610000000001
 20
146.212
 10
483.8590000000001
 20
146.163
 10
483.83900000000006
 20
146.09199999999998
 10
483.7990000000001
 20
146.031
 10
483.7440000000001
 20
145.983
 10
483.6760000000001
 20
145.954
 10
482.43000000000006
 20
143.795
 10
482.4380000000001
 20
143.722
 10
482.42500000000007
 20
143.65
 10
482.3910000000001
 20
143.585
 10
482.3400000000001
 20
143.532
 10
482.27600000000007
 20
143.496
 10
482.2050000000001
 20
143.481
 10
482.1310000000001
 20
143.487
 10
482.0850000000001
 20
143.503
 10
482.0230000000001
 20
143.542
 10
481.9760000000001
 20
143.598
 10
481.9470000000001
 20
143.666
 10
479.9030000000001
 20
144.845
 10
479.8060000000001
 20
144.839
 10
479.71400000000006
 20
144.87
 10
479.65600000000006
 20
144.916
 10
479.6140000000001
 20
144.976
 10
479.5920000000001
 20
145.046
 10
479.5910000000001
 20
145.12
 10
479.6110000000001
 20
145.19
 10
479.6350000000001
 20
145.233
 10
479.6860000000001
 20
145.285
 10
479.7740000000001
 20
145.328
 10
481.0200000000001
 20
147.487
 10
481.0140000000001
 20
147.585
 10
481.0340000000001
 20
147.655
 10
481.07400000000007
 20
147.71699999999998
  0
SEQEND
  0
LWPOLYLINE
100
AcDbPolyline
 90
48
 70
0
 43
0.0
 10
458.4520000000001
 20
147.71699999999998
 10
458.4920000000001
 20
147.655
 10
458.51200000000006
 20
147.585
 10
458.5060000000001
 20
147.487
 10
459.75200000000007
 20
145.328
 10
459.8400000000001
 20
145.285
 10
459.8910000000001
 20
145.233
 10
459.9150000000001
 20
145.19
 10
459.93500000000006
 20
145.12
 10
459.9340000000001
 20
145.046
 10
459.9120000000001
 20
144.976
 10
459.8700000000001
 20
144.916
 10
459.8120000000001
 20
144.87
 10
459.7200000000001
 20
144.839
 10
459.6230000000001
 20
144.845
 10
457.57900000000006
 20
143.666
 10
457.55000000000007
 20
143.598
 10
457.5030000000001
 20
143.542
 10
457.4410000000001
 20
143.503
 10
457.3700000000001
 20
143.483
 10
457.2970000000001
 20
143.484
 10
457.2270000000001
 20
143.506
 10
457.1670000000001
 20
143.548
 10
457.1210000000001
 20
143.605
 10
457.09400000000005
 20
143.674
 10
457.0880000000001
 20
143.74699999999999
 10
457.0960000000001
 20
143.795
 10
455.8500000000001
 20
145.954
 10
455.7820000000001
 20
145.983
 10
455.7270000000001
 20
146.031
 10
455.6870000000001
 20
146.09199999999998
 10
455.6670000000001
 20
146.163
 10
455.6650000000001
 20
146.212
 10
455.6810000000001
 20
146.284
 10
455.7160000000001
 20
146.348
 10
455.7690000000001
 20
146.399
 10
455.83400000000006
 20
146.432
 10
455.90600000000006
 20
146.445
 10
455.9790000000001
 20
146.437
 10
458.0230000000001
 20
147.617
 10
458.0400000000001
 20
147.663
 10
458.0820000000001
 20
147.723
 10
458.1390000000001
 20
147.769
 10
458.2070000000001
 20
147.796
 10
458.2560000000001
 20
147.802
 10
458.32900000000006
 20
147.794
 10
458.3960000000001
 20
147.764
 10
458.4520000000001
 20
147.71699999999998
  0
SEQEND
  0
LWPOLYLINE
100
AcDbPolyline
 90
48
 70
0
 43
0.0
 10
467.7350000000001
 20
142.357
 10
467.8040000000001
 20
142.333
 10
467.86300000000006
 20
142.289
 10
467.9070000000001
 20
142.23
 10
467.9310000000001
 20
142.161
 10
467.93500000000006
 20
142.088
 10
467.9170000000001
 20
142.017
 10
467.86300000000006
 20
141.935
 10
467.86300000000006
 20
139.576
 10
467.9070000000001
 20
139.517
 10
467.9310000000001
 20
139.448
 10
467.93500000000006
 20
139.375
 10
467.9170000000001
 20
139.303
 10
467.8790000000001
 20
139.24
 10
467.8250000000001
 20
139.191
 10
467.7590000000001
 20
139.16
 10
467.7110000000001
 20
139.15
 10
467.63700000000006
 20
139.154
 10
467.5680000000001
 20
139.179
 10
467.5090000000001
 20
139.222
 10
465.01700000000005
 20
139.222
 10
464.9580000000001
 20
139.179
 10
464.8890000000001
 20
139.154
 10
464.81500000000005
 20
139.15
 10
464.7440000000001
 20
139.168
 10
464.6810000000001
 20
139.206
 10
464.63200000000006
 20
139.26
 10
464.6090000000001
 20
139.303
 10
464.5910000000001
 20
139.375
 10
464.5950000000001
 20
139.448
 10
464.6190000000001
 20
139.517
 10
464.6630000000001
 20
139.576
 10
464.6630000000001
 20
141.935
 10
464.6190000000001
 20
141.994
 10
464.5950000000001
 20
142.063
 10
464.5900000000001
 20
142.112
 10
464.6010000000001
 20
142.185
 10
464.63200000000006
 20
142.251
 10
464.6810000000001
 20
142.305
 10
464.7440000000001
 20
142.343
 10
464.81500000000005
 20
142.361
 10
464.8890000000001
 20
142.357
 10
464.9580000000001
 20
142.333
 10
465.01700000000005
 20
142.289
 10
467.5090000000001
 20
142.289
 10
467.5910000000001
 20
142.343
 10
467.6620000000001
 20
142.361
 10
467.7350000000001
 20
142.357
  0
SEQEND
  0
LWPOLYLINE
100
AcDbPolyline
 90
48
 70
0
 43
0.0
 10
471.79100000000005
 20
142.357
 10
471.8640000000001
 20
142.361
 10
471.93500000000006
 20
142.343
 10
472.01700000000005
 20
142.289
 10
474.5090000000001
 20
142.289
 10
474.5680000000001
 20
142.333
 10
474.63700000000006
 20
142.357
 10
474.7110000000001
 20
142.361
 10
474.7820000000001
 20
142.343
 10
474.8450000000001
 20
142.305
 10
474.8940000000001
 20
142.251
 10
474.92500000000007
 20
142.185
 10
474.9360000000001
 20
142.112
 10
474.9310000000001
 20
142.063
 10
474.9070000000001
 20
141.994
 10
474.86300000000006
 20
141.935
 10
474.86300000000006
 20
139.576
 10
474.9070000000001
 20
139.517
 10
474.9310000000001
 20
139.448
 10
474.93500000000006
 20
139.375
 10
474.9170000000001
 20
139.303
 10
474.8940000000001
 20
139.26
 10
474.8450000000001
 20
139.206
 10
474.7820000000001
 20
139.168
 10
474.7110000000001
 20
139.15
 10
474.63700000000006
 20
139.154
 10
474.5680000000001
 20
139.179
 10
474.5090000000001
 20
139.222
 10
472.01700000000005
 20
139.222
 10
471.9580000000001
 20
139.179
 10
471.8890000000001
 20
139.154
 10
471.81500000000005
 20
139.15
 10
471.76700000000005
 20
139.16
 10
471.7010000000001
 20
139.191
 10
471.6470000000001
 20
139.24
 10
471.6090000000001
 20
139.303
 10
471.5910000000001
 20
139.375
 10
471.5950000000001
 20
139.448
 10
471.6190000000001
 20
139.517
 10
471.6630000000001
 20
139.576
 10
471.6630000000001
 20
141.935
 10
471.6090000000001
 20
142.017
 10
471.5910000000001
 20
142.088
 10
471.5950000000001
 20
142.161
 10
471.6190000000001
 20
142.23
 10
471.6630000000001
 20
142.289
 10
471.7220000000001
 20
142.333
 10
471.79100000000005
 20
142.357
  0
SEQEND
  0
LWPOLYLINE
100
AcDbPolyline
 90
48
 70
0
 43
0.0
 10
467.7350000000001
 20
170.821
 10
467.6620000000001
 20
170.817
 10
467.5910000000001
 20
170.835
 10
467.5090000000001
 20
170.889
 10
465.01700000000005
 20
170.889
 10
464.9580000000001
 20
170.845
 10
464.8890000000001
 20
170.821
 10
464.81500000000005
 20
170.817
 10
464.7440000000001
 20
170.835
 10
464.6810000000001
 20
170.873
 10
464.63200000000006
 20
170.927
 10
464.6010000000001
 20
170.993
 10
464.5900000000001
 20
171.066
 10
464.5950000000001
 20
171.115
 10
464.6190000000001
 20
171.184
 10
464.6630000000001
 20
171.243
 10
464.6630000000001
 20
173.602
 10
464.6190000000001
 20
173.661
 10
464.5950000000001
 20
173.73
 10
464.5910000000001
 20
173.803
 10
464.6090000000001
 20
173.875
 10
464.63200000000006
 20
173.918
 10
464.6810000000001
 20
173.97199999999998
 10
464.7440000000001
 20
174.01
 10
464.81500000000005
 20
174.028
 10
464.8890000000001
 20
174.024
 10
464.9580000000001
 20
173.999
 10
465.01700000000005
 20
173.95600000000002
 10
467.5090000000001
 20
173.95600000000002
 10
467.5680000000001
 20
173.999
 10
467.63700000000006
 20
174.024
 10
467.7110000000001
 20
174.028
 10
467.7820000000001
 20
174.01
 10
467.8450000000001
 20
173.97199999999998
 10
467.8940000000001
 20
173.918
 10
467.9170000000001
 20
173.875
 10
467.93500000000006
 20
173.803
 10
467.9310000000001
 20
173.73
 10
467.9070000000001
 20
173.661
 10
467.86300000000006
 20
173.602
 10
467.86300000000006
 20
171.243
 10
467.9170000000001
 20
171.161
 10
467.93500000000006
 20
171.09
 10
467.9310000000001
 20
171.017
 10
467.9070000000001
 20
170.948
 10
467.86300000000006
 20
170.889
 10
467.8040000000001
 20
170.845
 10
467.7350000000001
 20
170.821
  0
SEQEND
  0
LWPOLYLINE
100
AcDbPolyline
 90
48
 70
0
 43
0.0
 10
471.79100000000005
 20
170.821
 10
471.7220000000001
 20
170.845
 10
471.6630000000001
 20
170.889
 10
471.6190000000001
 20
170.948
 10
471.5950000000001
 20
171.017
 10
471.5910000000001
 20
171.09
 10
471.6090000000001
 20
171.161
 10
471.6630000000001
 20
171.243
 10
471.6630000000001
 20
173.602
 10
471.6190000000001
 20
173.661
 10
471.5950000000001
 20
173.73
 10
471.5910000000001
 20
173.803
 10
471.6090000000001
 20
173.875
 10
471.63200000000006
 20
173.918
 10
471.6810000000001
 20
173.97199999999998
 10
471.7440000000001
 20
174.01
 10
471.81500000000005
 20
174.028
 10
471.8890000000001
 20
174.024
 10
471.9580000000001
 20
173.999
 10
472.01700000000005
 20
173.95600000000002
 10
474.5090000000001
 20
173.95600000000002
 10
474.5680000000001
 20
173.999
 10
474.63700000000006
 20
174.024
 10
474.7110000000001
 20
174.028
 10
474.7820000000001
 20
174.01
 10
474.8450000000001
 20
173.97199999999998
 10
474.8940000000001
 20
173.918
 10
474.9170000000001
 20
173.875
 10
474.93500000000006
 20
173.803
 10
474.9310000000001
 20
173.73
 10
474.9070000000001
 20
173.661
 10
474.86300000000006
 20
173.602
 10
474.86300000000006
 20
171.243
 10
474.9070000000001
 20
171.184
 10
474.9310000000001
 20
171.115
 10
474.9360000000001
 20
171.066
 10
474.92500000000007
 20
170.993
 10
474.8940000000001
 20
170.927
 10
474.8450000000001
 20
170.873
 10
474.7820000000001
 20
170.835
 10
474.7110000000001
 20
170.817
 10
474.63700000000006
 20
170.821
 10
474.5680000000001
 20
170.845
 10
474.5090000000001
 20
170.889
 10
472.01700000000005
 20
170.889
 10
471.93500000000006
 20
170.835
 10
471.8640000000001
 20
170.817
 10
471.79100000000005
 20
170.821
  0
SEQEND
  0
LWPOLYLINE
100
AcDbPolyline
 90
49
 70
0
 43
0.0
 10
456.4150000000001
 20
151.252
 10
456.43500000000006
 20
151.182
 10
456.4340000000001
 20
151.108
 10
456.4120000000001
 20
151.039
 10
456.3700000000001
 20
150.978
 10
456.3120000000001
 20
150.933
 10
456.2680000000001
 20
150.912
 10
456.1960000000001
 20
150.899
 10
456.1230000000001
 20
150.908
 10
454.07900000000006
 20
149.728
 10
454.05000000000007
 20
149.661
 10
454.0030000000001
 20
149.605
 10
453.9410000000001
 20
149.565
 10
453.8950000000001
 20
149.549
 10
453.8210000000001
 20
149.543
 10
453.76150000000007
 20
149.555
 10
453.70600000000013
 20
149.57999999999998
 10
453.6500000000001
 20
149.628
 10
453.6100000000001
 20
149.689
 10
453.5900000000001
 20
149.76
 10
453.5960000000001
 20
149.857
 10
452.3500000000001
 20
152.016
 10
452.2820000000001
 20
152.045
 10
452.2270000000001
 20
152.093
 10
452.1870000000001
 20
152.154
 10
452.1670000000001
 20
152.225
 10
452.1650000000001
 20
152.274
 10
452.1810000000001
 20
152.346
 10
452.2160000000001
 20
152.41
 10
452.2690000000001
 20
152.461
 10
452.33400000000006
 20
152.494
 10
452.40600000000006
 20
152.508
 10
452.4790000000001
 20
152.499
 10
454.5230000000001
 20
153.679
 10
454.5400000000001
 20
153.725
 10
454.5820000000001
 20
153.785
 10
454.6390000000001
 20
153.831
 10
454.7070000000001
 20
153.858
 10
454.7560000000001
 20
153.864
 10
454.82900000000006
 20
153.856
 10
454.8960000000001
 20
153.827
 10
454.9520000000001
 20
153.779
 10
454.9920000000001
 20
153.71699999999998
 10
455.01200000000006
 20
153.647
 10
455.0060000000001
 20
153.55
 10
456.25200000000007
 20
151.391
 10
456.3400000000001
 20
151.347
 10
456.3910000000001
 20
151.295
 10
456.4150000000001
 20
151.252
  0
SEQEND
  0
LWPOLYLINE
100
AcDbPolyline
 90
49
 70
0
 43
0.0
 10
456.4150000000001
 20
161.926
 10
456.3910000000001
 20
161.883
 10
456.3400000000001
 20
161.82999999999998
 10
456.25200000000007
 20
161.787
 10
455.0060000000001
 20
159.628
 10
455.01200000000006
 20
159.531
 10
454.9920000000001
 20
159.461
 10
454.9520000000001
 20
159.399
 10
454.8960000000001
 20
159.351
 10
454.82900000000006
 20
159.322
 10
454.7560000000001
 20
159.314
 10
454.7070000000001
 20
159.32
 10
454.6390000000001
 20
159.347
 10
454.5820000000001
 20
159.393
 10
454.5400000000001
 20
159.453
 10
454.5230000000001
 20
159.499
 10
452.4790000000001
 20
160.679
 10
452.40600000000006
 20
160.67
 10
452.33400000000006
 20
160.684
 10
452.2690000000001
 20
160.71699999999998
 10
452.2160000000001
 20
160.768
 10
452.1810000000001
 20
160.832
 10
452.1650000000001
 20
160.904
 10
452.1690000000001
 20
160.965
 10
452.1870000000001
 20
161.023
 10
452.2270000000001
 20
161.085
 10
452.2820000000001
 20
161.133
 10
452.3500000000001
 20
161.162
 10
453.5960000000001
 20
163.321
 10
453.5900000000001
 20
163.418
 10
453.6100000000001
 20
163.489
 10
453.6500000000001
 20
163.55
 10
453.70600000000013
 20
163.598
 10
453.76150000000007
 20
163.623
 10
453.8210000000001
 20
163.635
 10
453.8950000000001
 20
163.629
 10
453.9410000000001
 20
163.613
 10
454.0030000000001
 20
163.573
 10
454.05000000000007
 20
163.517
 10
454.07900000000006
 20
163.45
 10
456.1230000000001
 20
162.27
 10
456.1960000000001
 20
162.279
 10
456.2680000000001
 20
162.266
 10
456.3120000000001
 20
162.245
 10
456.3700000000001
 20
162.2
 10
456.4120000000001
 20
162.139
 10
456.4340000000001
 20
162.07
 10
456.43500000000006
 20
161.996
 10
456.4150000000001
 20
161.926
  0
SEQEND
  0
LWPOLYLINE
100
AcDbPolyline
 90
49
 70
0
 43
0.0
 10
483.1110000000001
 20
151.252
 10
483.1350000000001
 20
151.295
 10
483.1860000000001
 20
151.347
 10
483.2740000000001
 20
151.391
 10
484.5200000000001
 20
153.55
 10
484.5140000000001
 20
153.647
 10
484.5340000000001
 20
153.71699999999998
 10
484.57400000000007
 20
153.779
 10
484.6300000000001
 20
153.827
 10
484.6970000000001
 20
153.856
 10
484.7700000000001
 20
153.864
 10
484.8190000000001
 20
153.858
 10
484.88700000000006
 20
153.831
 10
484.9440000000001
 20
153.785
 10
484.9860000000001
 20
153.725
 10
485.0030000000001
 20
153.679
 10
487.0470000000001
 20
152.499
 10
487.1200000000001
 20
152.508
 10
487.1920000000001
 20
152.494
 10
487.25700000000006
 20
152.461
 10
487.31000000000006
 20
152.41
 10
487.3450000000001
 20
152.346
 10
487.3610000000001
 20
152.274
 10
487.3590000000001
 20
152.225
 10
487.33900000000006
 20
152.154
 10
487.2990000000001
 20
152.093
 10
487.2440000000001
 20
152.045
 10
487.1760000000001
 20
152.016
 10
485.93000000000006
 20
149.857
 10
485.9380000000001
 20
149.7965
 10
485.9320000000001
 20
149.736
 10
485.9050000000001
 20
149.668
 10
485.8590000000001
 20
149.61
 10
485.7990000000001
 20
149.56799999999998
 10
485.7290000000001
 20
149.546
 10
485.65600000000006
 20
149.545
 10
485.5850000000001
 20
149.565
 10
485.5230000000001
 20
149.605
 10
485.4760000000001
 20
149.661
 10
485.4470000000001
 20
149.728
 10
483.4030000000001
 20
150.908
 10
483.3300000000001
 20
150.899
 10
483.2580000000001
 20
150.912
 10
483.21400000000006
 20
150.933
 10
483.15600000000006
 20
150.978
 10
483.1140000000001
 20
151.039
 10
483.0920000000001
 20
151.108
 10
483.0910000000001
 20
151.182
 10
483.1110000000001
 20
151.252
  0
SEQEND
  0
LWPOLYLINE
100
AcDbPolyline
 90
49
 70
0
 43
0.0
 10
483.1110000000001
 20
161.926
 10
483.0910000000001
 20
161.996
 10
483.0920000000001
 20
162.07
 10
483.1140000000001
 20
162.139
 10
483.15600000000006
 20
162.2
 10
483.21400000000006
 20
162.245
 10
483.2580000000001
 20
162.266
 10
483.3300000000001
 20
162.279
 10
483.4030000000001
 20
162.27
 10
485.4470000000001
 20
163.45
 10
485.4760000000001
 20
163.517
 10
485.5230000000001
 20
163.573
 10
485.5850000000001
 20
163.613
 10
485.65600000000006
 20
163.633
 10
485.7290000000001
 20
163.632
 10
485.7990000000001
 20
163.61
 10
485.8590000000001
 20
163.56799999999998
 10
485.9050000000001
 20
163.51
 10
485.9320000000001
 20
163.442
 10
485.9380000000001
 20
163.3815
 10
485.93000000000006
 20
163.321
 10
487.1760000000001
 20
161.162
 10
487.2440000000001
 20
161.133
 10
487.2990000000001
 20
161.085
 10
487.33900000000006
 20
161.023
 10
487.3570000000001
 20
160.965
 10
487.3610000000001
 20
160.904
 10
487.3450000000001
 20
160.832
 10
487.31000000000006
 20
160.768
 10
487.25700000000006
 20
160.71699999999998
 10
487.1920000000001
 20
160.684
 10
487.1200000000001
 20
160.67
 10
487.0470000000001
 20
160.679
 10
485.0030000000001
 20
159.499
 10
484.9860000000001
 20
159.453
 10
484.9440000000001
 20
159.393
 10
484.88700000000006
 20
159.347
 10
484.8190000000001
 20
159.32
 10
484.7700000000001
 20
159.314
 10
484.6970000000001
 20
159.322
 10
484.6300000000001
 20
159.351
 10
484.57400000000007
 20
159.399
 10
484.5340000000001
 20
159.461
 10
484.5140000000001
 20
159.531
 10
484.5200000000001
 20
159.628
 10
483.2740000000001
 20
161.787
 10
483.1860000000001
 20
161.82999999999998
 10
483.1350000000001
 20
161.883
 10
483.1110000000001
 20
161.926
  0
SEQEND
  0
LWPOLYLINE
100
AcDbPolyline
 90
64
 70
0
 43
0.0
 10
463.9260000000001
 20
148.47
 10
463.1460000000001
 20
149.091
 10
462.4330000000001
 20
149.787
 10
461.7920000000001
 20
150.551
 10
461.23000000000013
 20
151.375
 10
460.7530000000001
 20
152.25
 10
460.3660000000001
 20
153.16899999999998
 10
460.0720000000001
 20
154.121
 10
459.8750000000001
 20
155.099
 10
459.7750000000001
 20
156.091
 10
459.7750000000001
 20
157.087
 10
459.8750000000001
 20
158.079
 10
460.0720000000001
 20
159.057
 10
460.3660000000001
 20
160.00900000000001
 10
460.7530000000001
 20
160.928
 10
461.23000000000013
 20
161.803
 10
461.7920000000001
 20
162.627
 10
462.4330000000001
 20
163.391
 10
463.1460000000001
 20
164.087
 10
463.9260000000001
 20
164.708
 10
464.7630000000001
 20
165.249
 10
465.6500000000001
 20
165.704
 10
466.5780000000001
 20
166.06799999999998
 10
467.5380000000001
 20
166.338
 10
468.5200000000001
 20
166.511
 10
469.5140000000001
 20
166.586
 10
470.5100000000001
 20
166.561
 10
471.4990000000001
 20
166.437
 10
472.4710000000001
 20
166.215
 10
473.41600000000005
 20
165.898
 10
474.3250000000001
 20
165.488
 10
475.1880000000001
 20
164.989
 10
475.9980000000001
 20
164.40699999999998
 10
476.7450000000001
 20
163.748
 10
477.4230000000001
 20
163.017
 10
478.0250000000001
 20
162.222
 10
478.5450000000001
 20
161.372
 10
478.97800000000007
 20
160.473
 10
479.3190000000001
 20
159.537
 10
479.56500000000005
 20
158.57
 10
479.7130000000001
 20
157.585
 10
479.7630000000001
 20
156.589
 10
479.7130000000001
 20
155.593
 10
479.56500000000005
 20
154.608
 10
479.3190000000001
 20
153.641
 10
478.97800000000007
 20
152.70499999999998
 10
478.5450000000001
 20
151.80599999999998
 10
478.0250000000001
 20
150.956
 10
477.4230000000001
 20
150.161
 10
476.7450000000001
 20
149.43
 10
475.9980000000001
 20
148.771
 10
475.1880000000001
 20
148.189
 10
474.3250000000001
 20
147.69
 10
473.41600000000005
 20
147.28
 10
472.4710000000001
 20
146.963
 10
471.4990000000001
 20
146.74099999999999
 10
470.5100000000001
 20
146.617
 10
469.5140000000001
 20
146.59199999999998
 10
468.5200000000001
 20
146.667
 10
467.5380000000001
 20
146.84
 10
466.5780000000001
 20
147.11
 10
465.6500000000001
 20
147.474
 10
464.7630000000001
 20
147.929
 10
463.9260000000001
 20
148.47
  0
SEQEND
  0
LWPOLYLINE
100
AcDbPolyline
 90
343
 70
0
 43
0.0
 10
453.8490000000001
 20
145.031
 10
453.7980000000001
 20
145.084
 10
453.7560000000001
 20
145.11
 10
453.6860000000001
 20
145.132
 10
453.61300000000006
 20
145.133
 10
453.5420000000001
 20
145.113
 10
453.5000000000001
 20
145.089
 10
453.4470000000001
 20
145.038
 10
453.4040000000001
 20
144.95
 10
451.2200000000001
 20
143.689
 10
450.2010000000001
 20
145.295
 10
449.32000000000005
 20
146.98
 10
451.5040000000001
 20
148.24099999999999
 10
451.5770000000001
 20
148.233
 10
451.6490000000001
 20
148.246
 10
451.71400000000006
 20
148.279
 10
451.76700000000005
 20
148.32999999999998
 10
451.8030000000001
 20
148.394
 10
451.81500000000005
 20
148.442
 10
451.8160000000001
 20
148.515
 10
451.7960000000001
 20
148.586
 10
451.75700000000006
 20
148.647
 10
451.7010000000001
 20
148.695
 10
451.6330000000001
 20
148.724
 10
450.38700000000006
 20
150.883
 10
450.3930000000001
 20
150.98
 10
450.3730000000001
 20
151.051
 10
450.3490000000001
 20
151.093
 10
450.2980000000001
 20
151.14600000000002
 10
450.23300000000006
 20
151.182
 10
450.1620000000001
 20
151.197
 10
450.08900000000006
 20
151.191
 10
450.0200000000001
 20
151.164
 10
449.9800000000001
 20
151.136
 10
449.9330000000001
 20
151.07999999999998
 10
449.9040000000001
 20
151.012
 10
448.15600000000006
 20
150.003
 10
447.6120000000001
 20
152.162
 10
447.2840000000001
 20
154.365
 10
447.1740000000001
 20
156.589
 10
447.2840000000001
 20
158.813
 10
447.6120000000001
 20
161.016
 10
448.15600000000006
 20
163.175
 10
449.9040000000001
 20
162.166
 10
449.9330000000001
 20
162.098
 10
449.9800000000001
 20
162.042
 10
450.0200000000001
 20
162.014
 10
450.08900000000006
 20
161.987
 10
450.1620000000001
 20
161.981
 10
450.23300000000006
 20
161.996
 10
450.2980000000001
 20
162.03199999999998
 10
450.3490000000001
 20
162.085
 10
450.3730000000001
 20
162.127
 10
450.3930000000001
 20
162.198
 10
450.38700000000006
 20
162.295
 10
451.6330000000001
 20
164.454
 10
451.7010000000001
 20
164.483
 10
451.75700000000006
 20
164.531
 10
451.7960000000001
 20
164.59199999999998
 10
451.8160000000001
 20
164.663
 10
451.81500000000005
 20
164.736
 10
451.8030000000001
 20
164.784
 10
451.76700000000005
 20
164.848
 10
451.71400000000006
 20
164.899
 10
451.6490000000001
 20
164.932
 10
451.5770000000001
 20
164.945
 10
451.5040000000001
 20
164.937
 10
449.32000000000005
 20
166.198
 10
450.2010000000001
 20
167.88299999999998
 10
451.2200000000001
 20
169.489
 10
453.4040000000001
 20
168.228
 10
453.4470000000001
 20
168.14
 10
453.5000000000001
 20
168.089
 10
453.5420000000001
 20
168.065
 10
453.61300000000006
 20
168.04500000000002
 10
453.6860000000001
 20
168.046
 10
453.7560000000001
 20
168.06799999999998
 10
453.8160000000001
 20
168.11
 10
453.8620000000001
 20
168.168
 10
453.8890000000001
 20
168.236
 10
453.88700000000006
 20
168.357
 10
455.1330000000001
 20
170.516
 10
455.2010000000001
 20
170.54500000000002
 10
455.25700000000006
 20
170.593
 10
455.29600000000005
 20
170.654
 10
455.3160000000001
 20
170.725
 10
455.31500000000005
 20
170.798
 10
455.3030000000001
 20
170.846
 10
455.26700000000005
 20
170.91
 10
455.21400000000006
 20
170.961
 10
455.1490000000001
 20
170.994
 10
455.0770000000001
 20
171.00799999999998
 10
455.0040000000001
 20
170.999
 10
453.2560000000001
 20
172.00799999999998
 10
454.8540000000001
 20
173.559
 10
456.5970000000001
 20
174.94400000000002
 10
458.46900000000005
 20
176.151
 10
460.4500000000001
 20
177.168
 10
462.5210000000001
 20
177.985
 10
464.6630000000001
 20
178.594
 10
464.6630000000001
 20
176.576
 10
464.6190000000001
 20
176.517
 10
464.5950000000001
 20
176.448
 10
464.5910000000001
 20
176.375
 10
464.6090000000001
 20
176.303
 10
464.63200000000006
 20
176.26
 10
464.6810000000001
 20
176.20600000000002
 10
464.7440000000001
 20
176.168
 10
464.81500000000005
 20
176.15
 10
464.8890000000001
 20
176.154
 10
464.9580000000001
 20
176.179
 10
465.01700000000005
 20
176.22199999999998
 10
467.5090000000001
 20
176.22199999999998
 10
467.5910000000001
 20
176.168
 10
467.6620000000001
 20
176.15
 10
467.7350000000001
 20
176.154
 10
467.8040000000001
 20
176.179
 10
467.86300000000006
 20
176.22199999999998
 10
467.9070000000001
 20
176.281
 10
467.9310000000001
 20
176.35
 10
467.93500000000006
 20
176.424
 10
467.9170000000001
 20
176.495
 10
467.86300000000006
 20
176.576
 10
467.86300000000006
 20
179.098
 10
469.7630000000001
 20
179.178
 10
471.6630000000001
 20
179.098
 10
471.6630000000001
 20
176.576
 10
471.6090000000001
 20
176.495
 10
471.5910000000001
 20
176.424
 10
471.5950000000001
 20
176.35
 10
471.6190000000001
 20
176.281
 10
471.6630000000001
 20
176.22199999999998
 10
471.7220000000001
 20
176.179
 10
471.79100000000005
 20
176.154
 10
471.8640000000001
 20
176.15
 10
471.93500000000006
 20
176.168
 10
472.01700000000005
 20
176.22199999999998
 10
474.5090000000001
 20
176.22199999999998
 10
474.5680000000001
 20
176.179
 10
474.63700000000006
 20
176.154
 10
474.7110000000001
 20
176.15
 10
474.7820000000001
 20
176.168
 10
474.8450000000001
 20
176.20600000000002
 10
474.8940000000001
 20
176.26
 10
474.9170000000001
 20
176.303
 10
474.9360000000001
 20
176.399
 10
474.9310000000001
 20
176.448
 10
474.9070000000001
 20
176.517
 10
474.86300000000006
 20
176.576
 10
474.86300000000006
 20
178.594
 10
477.0050000000001
 20
177.985
 10
479.0760000000001
 20
177.168
 10
481.0570000000001
 20
176.151
 10
482.9290000000001
 20
174.94400000000002
 10
484.6720000000001
 20
173.559
 10
486.2700000000001
 20
172.00799999999998
 10
484.5220000000001
 20
170.999
 10
484.44900000000007
 20
171.00799999999998
 10
484.37700000000007
 20
170.994
 10
484.3120000000001
 20
170.961
 10
484.2590000000001
 20
170.91
 10
484.22300000000007
 20
170.846
 10
484.2110000000001
 20
170.798
 10
484.2100000000001
 20
170.725
 10
484.2300000000001
 20
170.654
 10
484.2690000000001
 20
170.593
 10
484.3250000000001
 20
170.54500000000002
 10
484.3930000000001
 20
170.516
 10
485.6390000000001
 20
168.357
 10
485.6330000000001
 20
168.26
 10
485.6530000000001
 20
168.189
 10
485.6770000000001
 20
168.147
 10
485.72800000000007
 20
168.094
 10
485.7700000000001
 20
168.06799999999998
 10
485.8400000000001
 20
168.046
 10
485.9130000000001
 20
168.04500000000002
 10
485.9840000000001
 20
168.065
 10
486.02600000000007
 20
168.089
 10
486.07900000000006
 20
168.14
 10
486.12200000000007
 20
168.228
 10
488.3060000000001
 20
169.489
 10
489.3250000000001
 20
167.88299999999998
 10
490.2060000000001
 20
166.198
 10
488.0220000000001
 20
164.937
 10
487.94900000000007
 20
164.945
 10
487.87700000000007
 20
164.932
 10
487.8120000000001
 20
164.899
 10
487.75900000000007
 20
164.848
 10
487.72300000000007
 20
164.784
 10
487.7110000000001
 20
164.736
 10
487.7100000000001
 20
164.663
 10
487.7300000000001
 20
164.59199999999998
 10
487.7540000000001
 20
164.55
 10
487.80500000000006
 20
164.497
 10
487.8930000000001
 20
164.454
 10
489.1390000000001
 20
162.295
 10
489.1330000000001
 20
162.198
 10
489.1530000000001
 20
162.127
 10
489.1770000000001
 20
162.085
 10
489.22800000000007
 20
162.03199999999998
 10
489.2930000000001
 20
161.996
 10
489.3640000000001
 20
161.981
 10
489.4370000000001
 20
161.987
 10
489.5060000000001
 20
162.014
 10
489.5460000000001
 20
162.042
 10
489.5930000000001
 20
162.098
 10
489.62200000000007
 20
162.166
 10
491.3700000000001
 20
163.175
 10
491.9140000000001
 20
161.016
 10
492.2420000000001
 20
158.813
 10
492.3520000000001
 20
156.589
 10
492.2420000000001
 20
154.365
 10
491.9140000000001
 20
152.162
 10
491.3700000000001
 20
150.003
 10
489.62200000000007
 20
151.012
 10
489.5930000000001
 20
151.07999999999998
 10
489.5460000000001
 20
151.136
 10
489.5060000000001
 20
151.164
 10
489.4370000000001
 20
151.191
 10
489.3640000000001
 20
151.197
 10
489.2930000000001
 20
151.182
 10
489.22800000000007
 20
151.14600000000002
 10
489.1770000000001
 20
151.093
 10
489.1530000000001
 20
151.051
 10
489.1330000000001
 20
150.98
 10
489.1390000000001
 20
150.883
 10
487.8930000000001
 20
148.724
 10
487.80500000000006
 20
148.68099999999998
 10
487.7540000000001
 20
148.628
 10
487.7300000000001
 20
148.586
 10
487.7100000000001
 20
148.515
 10
487.7110000000001
 20
148.442
 10
487.72300000000007
 20
148.394
 10
487.75900000000007
 20
148.32999999999998
 10
487.8120000000001
 20
148.279
 10
487.87700000000007
 20
148.246
 10
487.94900000000007
 20
148.233
 10
488.0220000000001
 20
148.24099999999999
 10
490.2060000000001
 20
146.98
 10
489.3250000000001
 20
145.295
 10
488.3060000000001
 20
143.689
 10
486.12200000000007
 20
144.95
 10
486.07900000000006
 20
145.038
 10
486.02600000000007
 20
145.089
 10
485.9840000000001
 20
145.113
 10
485.9130000000001
 20
145.133
 10
485.8400000000001
 20
145.132
 10
485.7700000000001
 20
145.11
 10
485.7100000000001
 20
145.06799999999998
 10
485.6640000000001
 20
145.01
 10
485.63700000000006
 20
144.942
 10
485.6390000000001
 20
144.821
 10
484.3930000000001
 20
142.662
 10
484.3250000000001
 20
142.633
 10
484.2690000000001
 20
142.585
 10
484.2300000000001
 20
142.523
 10
484.2100000000001
 20
142.453
 10
484.2110000000001
 20
142.38
 10
484.22300000000007
 20
142.332
 10
484.2590000000001
 20
142.268
 10
484.3120000000001
 20
142.21699999999998
 10
484.37700000000007
 20
142.184
 10
484.44900000000007
 20
142.17
 10
484.5220000000001
 20
142.179
 10
486.2700000000001
 20
141.17
 10
484.6720000000001
 20
139.619
 10
482.9290000000001
 20
138.234
 10
481.0570000000001
 20
137.027
 10
479.0760000000001
 20
136.01
 10
477.0050000000001
 20
135.19299999999998
 10
474.86300000000006
 20
134.584
 10
474.86300000000006
 20
136.602
 10
474.9070000000001
 20
136.661
 10
474.9310000000001
 20
136.73
 10
474.93500000000006
 20
136.803
 10
474.9170000000001
 20
136.875
 10
474.8940000000001
 20
136.918
 10
474.8450000000001
 20
136.972
 10
474.7820000000001
 20
137.01
 10
474.7110000000001
 20
137.028
 10
474.63700000000006
 20
137.024
 10
474.5680000000001
 20
136.999
 10
474.5090000000001
 20
136.956
 10
472.01700000000005
 20
136.956
 10
471.93500000000006
 20
137.01
 10
471.8640000000001
 20
137.028
 10
471.79100000000005
 20
137.024
 10
471.7220000000001
 20
136.999
 10
471.6630000000001
 20
136.956
 10
471.6190000000001
 20
136.897
 10
471.5950000000001
 20
136.828
 10
471.5910000000001
 20
136.754
 10
471.6090000000001
 20
136.683
 10
471.6630000000001
 20
136.602
 10
471.6630000000001
 20
134.07999999999998
 10
469.7630000000001
 20
134
 10
467.86300000000006
 20
134.07999999999998
 10
467.86300000000006
 20
136.602
 10
467.9170000000001
 20
136.683
 10
467.93500000000006
 20
136.754
 10
467.9310000000001
 20
136.828
 10
467.9070000000001
 20
136.897
 10
467.86300000000006
 20
136.956
 10
467.8040000000001
 20
136.999
 10
467.7350000000001
 20
137.024
 10
467.6620000000001
 20
137.028
 10
467.5910000000001
 20
137.01
 10
467.5090000000001
 20
136.956
 10
465.01700000000005
 20
136.956
 10
464.9580000000001
 20
136.999
 10
464.8890000000001
 20
137.024
 10
464.81500000000005
 20
137.028
 10
464.7440000000001
 20
137.01
 10
464.6810000000001
 20
136.972
 10
464.63200000000006
 20
136.918
 10
464.6090000000001
 20
136.875
 10
464.5900000000001
 20
136.779
 10
464.5950000000001
 20
136.73
 10
464.6190000000001
 20
136.661
 10
464.6630000000001
 20
136.602
 10
464.6630000000001
 20
134.584
 10
462.5210000000001
 20
135.19299999999998
 10
460.4500000000001
 20
136.01
 10
458.46900000000005
 20
137.027
 10
456.5970000000001
 20
138.234
 10
454.8540000000001
 20
139.619
 10
453.2560000000001
 20
141.17
 10
455.0040000000001
 20
142.179
 10
455.0770000000001
 20
142.17
 10
455.1490000000001
 20
142.184
 10
455.21400000000006
 20
142.21699999999998
 10
455.26700000000005
 20
142.268
 10
455.3030000000001
 20
142.332
 10
455.31500000000005
 20
142.38
 10
455.3160000000001
 20
142.453
 10
455.29600000000005
 20
142.523
 10
455.25700000000006
 20
142.585
 10
455.2010000000001
 20
142.633
 10
455.1330000000001
 20
142.662
 10
453.88700000000006
 20
144.821
 10
453.8930000000001
 20
144.918
 10
453.8730000000001
 20
144.989
 10
453.8490000000001
 20
145.031
  0
SEQEND
  0
LWPOLYLINE
100
AcDbPolyline
 90
50
 70
0
 43
0.0
 10
397.9640000000001
 20
21.036
 10
398.0220000000001
 20
20.991
 10
398.0510000000001
 20
20.951999999999998
 10
398.08100000000013
 20
20.884
 10
400.2390000000001
 20
19.638000000000005
 10
400.3120000000001
 20
19.646000000000015
 10
400.3850000000001
 20
19.63300000000001
 10
400.4500000000001
 20
19.599999999999994
 10
400.4870000000001
 20
19.567000000000007
 10
400.5280000000001
 20
19.507000000000005
 10
400.5510000000001
 20
19.437000000000012
 10
400.5520000000001
 20
19.364000000000004
 10
400.5320000000001
 20
19.293000000000006
 10
400.4920000000001
 20
19.232
 10
400.4360000000001
 20
19.183999999999997
 10
400.3690000000001
 20
19.155
 10
399.6020000000001
 20
17.826999999999998
 10
399.6090000000001
 20
17.72999999999999
 10
399.5880000000001
 20
17.658999999999992
 10
399.5490000000001
 20
17.59700000000001
 10
399.4930000000001
 20
17.55000000000001
 10
399.44900000000007
 20
17.52799999999999
 10
399.37700000000007
 20
17.513000000000005
 10
399.3280000000001
 20
17.51400000000001
 10
399.25700000000006
 20
17.534999999999997
 10
399.1960000000001
 20
17.574000000000012
 10
399.1480000000001
 20
17.629999999999995
 10
399.1190000000001
 20
17.698000000000008
 10
396.9600000000001
 20
18.944000000000017
 10
396.9120000000001
 20
18.936000000000007
 10
396.8390000000001
 20
18.942000000000007
 10
396.7710000000001
 20
18.968999999999994
 10
396.7130000000001
 20
19.014999999999986
 10
396.6830000000001
 20
19.052999999999997
 10
396.6540000000001
 20
19.12100000000001
 10
396.6460000000001
 20
19.168999999999983
 10
396.6520000000001
 20
19.24199999999999
 10
396.6790000000001
 20
19.311000000000007
 10
396.7080000000001
 20
19.349999999999994
 10
396.7640000000001
 20
19.397999999999996
 10
396.83100000000013
 20
19.426999999999992
 10
397.59800000000007
 20
20.754999999999995
 10
397.5910000000001
 20
20.852000000000004
 10
397.6110000000001
 20
20.923000000000002
 10
397.65100000000007
 20
20.985
 10
397.7070000000001
 20
21.031999999999996
 10
397.7740000000001
 20
21.061000000000007
 10
397.8470000000001
 20
21.069999999999993
 10
397.8960000000001
 20
21.063000000000002
 10
397.9640000000001
 20
21.036
  0
SEQEND
  0
LWPOLYLINE
100
AcDbPolyline
 90
50
 70
0
 43
0.0
 10
397.9640000000001
 20
111.964
 10
397.8960000000001
 20
111.937
 10
397.8470000000001
 20
111.93
 10
397.7740000000001
 20
111.939
 10
397.7070000000001
 20
111.968
 10
397.65100000000007
 20
112.015
 10
397.6110000000001
 20
112.077
 10
397.5910000000001
 20
112.148
 10
397.59800000000007
 20
112.245
 10
396.83100000000013
 20
113.57300000000001
 10
396.7640000000001
 20
113.602
 10
396.7080000000001
 20
113.65
 10
396.6790000000001
 20
113.689
 10
396.6520000000001
 20
113.75800000000001
 10
396.6460000000001
 20
113.831
 10
396.6540000000001
 20
113.87899999999999
 10
396.6830000000001
 20
113.947
 10
396.7130000000001
 20
113.985
 10
396.7710000000001
 20
114.031
 10
396.8390000000001
 20
114.05799999999999
 10
396.9120000000001
 20
114.064
 10
396.9600000000001
 20
114.056
 10
399.1190000000001
 20
115.30199999999999
 10
399.1480000000001
 20
115.37
 10
399.1960000000001
 20
115.426
 10
399.25700000000006
 20
115.465
 10
399.3280000000001
 20
115.48599999999999
 10
399.37700000000007
 20
115.487
 10
399.44900000000007
 20
115.47200000000001
 10
399.4930000000001
 20
115.45
 10
399.5490000000001
 20
115.40299999999999
 10
399.5880000000001
 20
115.34100000000001
 10
399.6090000000001
 20
115.27000000000001
 10
399.6020000000001
 20
115.173
 10
400.3690000000001
 20
113.845
 10
400.4360000000001
 20
113.816
 10
400.4920000000001
 20
113.768
 10
400.5320000000001
 20
113.707
 10
400.5520000000001
 20
113.636
 10
400.5510000000001
 20
113.563
 10
400.5280000000001
 20
113.493
 10
400.4870000000001
 20
113.43299999999999
 10
400.4500000000001
 20
113.4
 10
400.3850000000001
 20
113.36699999999999
 10
400.3120000000001
 20
113.354
 10
400.2390000000001
 20
113.362
 10
398.08100000000013
 20
112.116
 10
398.0510000000001
 20
112.048
 10
398.0220000000001
 20
112.009
 10
397.9640000000001
 20
111.964
  0
SEQEND
  0
LWPOLYLINE
100
AcDbPolyline
 90
49
 70
0
 43
0.0
 10
372.53600000000006
 20
67.948
 10
372.5320000000001
 20
67.874
 10
372.5080000000001
 20
67.805
 10
372.46400000000006
 20
67.746
 10
372.46400000000006
 20
65.254
 10
372.5080000000001
 20
65.195
 10
372.5320000000001
 20
65.126
 10
372.53600000000006
 20
65.052
 10
372.5180000000001
 20
64.981
 10
372.48000000000013
 20
64.918
 10
372.4260000000001
 20
64.869
 10
372.3600000000001
 20
64.838
 10
372.3120000000001
 20
64.828
 10
372.23800000000006
 20
64.832
 10
372.1690000000001
 20
64.856
 10
372.1100000000001
 20
64.9
 10
370.5770000000001
 20
64.9
 10
370.5180000000001
 20
64.856
 10
370.44900000000007
 20
64.832
 10
370.3760000000001
 20
64.828
 10
370.30500000000006
 20
64.846
 10
370.2610000000001
 20
64.869
 10
370.2070000000001
 20
64.918
 10
370.1690000000001
 20
64.981
 10
370.15100000000007
 20
65.052
 10
370.1550000000001
 20
65.126
 10
370.18000000000006
 20
65.195
 10
370.22300000000007
 20
65.254
 10
370.22300000000007
 20
67.746
 10
370.18000000000006
 20
67.805
 10
370.1550000000001
 20
67.874
 10
370.1500000000001
 20
67.923
 10
370.1690000000001
 20
68.019
 10
370.2070000000001
 20
68.082
 10
370.2610000000001
 20
68.131
 10
370.30500000000006
 20
68.154
 10
370.3760000000001
 20
68.172
 10
370.44900000000007
 20
68.168
 10
370.5180000000001
 20
68.144
 10
370.5770000000001
 20
68.1
 10
372.1100000000001
 20
68.1
 10
372.1690000000001
 20
68.144
 10
372.23800000000006
 20
68.168
 10
372.3120000000001
 20
68.172
 10
372.3600000000001
 20
68.162
 10
372.4260000000001
 20
68.131
 10
372.48000000000013
 20
68.082
 10
372.5180000000001
 20
68.019
 10
372.53600000000006
 20
67.948
  0
SEQEND
  0
LWPOLYLINE
100
AcDbPolyline
 90
48
 70
0
 43
0.0
 10
400.95600000000013
 20
42.3
 10
401.0000000000001
 20
42.241
 10
401.0240000000001
 20
42.172
 10
401.0280000000001
 20
42.099000000000004
 10
401.0100000000001
 20
42.02799999999999
 10
400.95600000000013
 20
41.946
 10
400.95600000000013
 20
40.254000000000005
 10
401.0000000000001
 20
40.19499999999999
 10
401.0240000000001
 20
40.126000000000005
 10
401.0280000000001
 20
40.05199999999999
 10
401.0100000000001
 20
39.980999999999995
 10
400.9720000000001
 20
39.918000000000006
 10
400.9180000000001
 20
39.869
 10
400.8520000000001
 20
39.837999999999994
 10
400.7790000000001
 20
39.827
 10
400.7070000000001
 20
39.837999999999994
 10
400.66100000000006
 20
39.855999999999995
 10
400.6020000000001
 20
39.900000000000006
 10
398.1100000000001
 20
39.900000000000006
 10
398.0510000000001
 20
39.855999999999995
 10
397.9820000000001
 20
39.831999999999994
 10
397.90800000000013
 20
39.828
 10
397.8370000000001
 20
39.846000000000004
 10
397.7740000000001
 20
39.884
 10
397.7250000000001
 20
39.938
 10
397.6940000000001
 20
40.004000000000005
 10
397.6840000000001
 20
40.05199999999999
 10
397.6880000000001
 20
40.126000000000005
 10
397.7120000000001
 20
40.19499999999999
 10
397.7560000000001
 20
40.254000000000005
 10
397.7560000000001
 20
41.946
 10
397.7120000000001
 20
42.004999999999995
 10
397.6880000000001
 20
42.074
 10
397.6830000000001
 20
42.123000000000005
 10
397.6940000000001
 20
42.196
 10
397.7250000000001
 20
42.262
 10
397.7740000000001
 20
42.316
 10
397.8370000000001
 20
42.354
 10
397.90800000000013
 20
42.372
 10
397.9820000000001
 20
42.367999999999995
 10
398.0510000000001
 20
42.343999999999994
 10
398.1100000000001
 20
42.3
 10
400.6020000000001
 20
42.3
 10
400.6840000000001
 20
42.354
 10
400.7550000000001
 20
42.372
 10
400.8280000000001
 20
42.367999999999995
 10
400.8970000000001
 20
42.343999999999994
 10
400.95600000000013
 20
42.3
  0
SEQEND
  0
LWPOLYLINE
100
AcDbPolyline
 90
48
 70
0
 43
0.0
 10
400.95600000000013
 20
90.7
 10
400.8970000000001
 20
90.656
 10
400.8280000000001
 20
90.632
 10
400.7550000000001
 20
90.628
 10
400.6840000000001
 20
90.646
 10
400.6020000000001
 20
90.7
 10
398.1100000000001
 20
90.7
 10
398.0510000000001
 20
90.656
 10
397.9820000000001
 20
90.632
 10
397.90800000000013
 20
90.628
 10
397.8370000000001
 20
90.646
 10
397.7740000000001
 20
90.684
 10
397.7250000000001
 20
90.738
 10
397.6940000000001
 20
90.804
 10
397.6830000000001
 20
90.877
 10
397.6880000000001
 20
90.926
 10
397.7120000000001
 20
90.995
 10
397.7560000000001
 20
91.054
 10
397.7560000000001
 20
92.746
 10
397.7120000000001
 20
92.805
 10
397.6880000000001
 20
92.874
 10
397.6840000000001
 20
92.94800000000001
 10
397.6940000000001
 20
92.996
 10
397.7250000000001
 20
93.062
 10
397.7740000000001
 20
93.116
 10
397.8370000000001
 20
93.154
 10
397.90800000000013
 20
93.172
 10
397.9820000000001
 20
93.168
 10
398.0510000000001
 20
93.144
 10
398.1100000000001
 20
93.1
 10
400.6020000000001
 20
93.1
 10
400.66100000000006
 20
93.144
 10
400.7070000000001
 20
93.162
 10
400.7790000000001
 20
93.173
 10
400.8520000000001
 20
93.162
 10
400.9180000000001
 20
93.131
 10
400.9720000000001
 20
93.082
 10
401.0100000000001
 20
93.019
 10
401.0280000000001
 20
92.94800000000001
 10
401.0240000000001
 20
92.874
 10
401.0000000000001
 20
92.805
 10
400.95600000000013
 20
92.746
 10
400.95600000000013
 20
91.054
 10
401.0100000000001
 20
90.97200000000001
 10
401.0280000000001
 20
90.901
 10
401.0240000000001
 20
90.828
 10
401.0000000000001
 20
90.759
 10
400.95600000000013
 20
90.7
  0
SEQEND
  0
LWPOLYLINE
100
AcDbPolyline
 90
48
 70
0
 43
0.0
 10
400.95600000000013
 20
47.099999999999994
 10
401.0000000000001
 20
47.041
 10
401.0240000000001
 20
46.97200000000001
 10
401.0280000000001
 20
46.899
 10
401.0100000000001
 20
46.828
 10
400.95600000000013
 20
46.745999999999995
 10
400.95600000000013
 20
45.054
 10
401.0000000000001
 20
44.995000000000005
 10
401.0240000000001
 20
44.926
 10
401.0280000000001
 20
44.852000000000004
 10
401.0100000000001
 20
44.781000000000006
 10
400.9720000000001
 20
44.718
 10
400.9180000000001
 20
44.669
 10
400.8520000000001
 20
44.638000000000005
 10
400.7790000000001
 20
44.626999999999995
 10
400.7070000000001
 20
44.638000000000005
 10
400.66100000000006
 20
44.656000000000006
 10
400.6020000000001
 20
44.7
 10
398.1100000000001
 20
44.7
 10
398.0510000000001
 20
44.656000000000006
 10
397.9820000000001
 20
44.632000000000005
 10
397.90800000000013
 20
44.628
 10
397.8370000000001
 20
44.646
 10
397.7740000000001
 20
44.684
 10
397.7250000000001
 20
44.738
 10
397.6940000000001
 20
44.804
 10
397.6840000000001
 20
44.852000000000004
 10
397.6880000000001
 20
44.926
 10
397.7120000000001
 20
44.995000000000005
 10
397.7560000000001
 20
45.054
 10
397.7560000000001
 20
46.745999999999995
 10
397.7120000000001
 20
46.80500000000001
 10
397.6880000000001
 20
46.873999999999995
 10
397.6830000000001
 20
46.923
 10
397.6940000000001
 20
46.995999999999995
 10
397.7250000000001
 20
47.062
 10
397.7740000000001
 20
47.116
 10
397.8370000000001
 20
47.153999999999996
 10
397.90800000000013
 20
47.172
 10
397.9820000000001
 20
47.168000000000006
 10
398.0510000000001
 20
47.144000000000005
 10
398.1100000000001
 20
47.099999999999994
 10
400.6020000000001
 20
47.099999999999994
 10
400.6840000000001
 20
47.153999999999996
 10
400.7550000000001
 20
47.172
 10
400.8280000000001
 20
47.168000000000006
 10
400.8970000000001
 20
47.144000000000005
 10
400.95600000000013
 20
47.099999999999994
  0
SEQEND
  0
LWPOLYLINE
100
AcDbPolyline
 90
48
 70
0
 43
0.0
 10
400.95600000000013
 20
85.9
 10
400.8970000000001
 20
85.856
 10
400.8280000000001
 20
85.832
 10
400.7550000000001
 20
85.828
 10
400.6840000000001
 20
85.846
 10
400.6020000000001
 20
85.9
 10
398.1100000000001
 20
85.9
 10
398.0510000000001
 20
85.856
 10
397.9820000000001
 20
85.832
 10
397.90800000000013
 20
85.828
 10
397.8370000000001
 20
85.846
 10
397.7740000000001
 20
85.884
 10
397.7250000000001
 20
85.938
 10
397.6940000000001
 20
86.004
 10
397.6830000000001
 20
86.077
 10
397.6880000000001
 20
86.126
 10
397.7120000000001
 20
86.195
 10
397.7560000000001
 20
86.254
 10
397.7560000000001
 20
87.946
 10
397.7120000000001
 20
88.005
 10
397.6880000000001
 20
88.074
 10
397.6840000000001
 20
88.148
 10
397.6940000000001
 20
88.196
 10
397.7250000000001
 20
88.262
 10
397.7740000000001
 20
88.316
 10
397.8370000000001
 20
88.354
 10
397.90800000000013
 20
88.372
 10
397.9820000000001
 20
88.368
 10
398.0510000000001
 20
88.344
 10
398.1100000000001
 20
88.3
 10
400.6020000000001
 20
88.3
 10
400.66100000000006
 20
88.344
 10
400.7070000000001
 20
88.362
 10
400.7790000000001
 20
88.373
 10
400.8520000000001
 20
88.362
 10
400.9180000000001
 20
88.331
 10
400.9720000000001
 20
88.282
 10
401.0100000000001
 20
88.219
 10
401.0280000000001
 20
88.148
 10
401.0240000000001
 20
88.074
 10
401.0000000000001
 20
88.005
 10
400.95600000000013
 20
87.946
 10
400.95600000000013
 20
86.254
 10
401.0100000000001
 20
86.172
 10
401.0280000000001
 20
86.101
 10
401.0240000000001
 20
86.02799999999999
 10
401.0000000000001
 20
85.959
 10
400.95600000000013
 20
85.9
  0
SEQEND
  0
LWPOLYLINE
100
AcDbPolyline
 90
48
 70
0
 43
0.0
 10
427.8840000000001
 20
47.168000000000006
 10
427.9570000000001
 20
47.172
 10
428.0280000000001
 20
47.153999999999996
 10
428.1100000000001
 20
47.099999999999994
 10
430.6020000000001
 20
47.099999999999994
 10
430.66100000000006
 20
47.144000000000005
 10
430.7300000000001
 20
47.168000000000006
 10
430.8040000000001
 20
47.172
 10
430.8750000000001
 20
47.153999999999996
 10
430.9380000000001
 20
47.116
 10
430.9870000000001
 20
47.062
 10
431.0180000000001
 20
46.995999999999995
 10
431.0290000000001
 20
46.923
 10
431.0240000000001
 20
46.873999999999995
 10
431.0000000000001
 20
46.80500000000001
 10
430.9560000000001
 20
46.745999999999995
 10
430.9560000000001
 20
45.054
 10
431.0000000000001
 20
44.995000000000005
 10
431.0240000000001
 20
44.926
 10
431.0280000000001
 20
44.852000000000004
 10
431.0180000000001
 20
44.804
 10
430.9870000000001
 20
44.738
 10
430.9380000000001
 20
44.684
 10
430.8750000000001
 20
44.646
 10
430.8040000000001
 20
44.628
 10
430.7300000000001
 20
44.632000000000005
 10
430.66100000000006
 20
44.656000000000006
 10
430.6020000000001
 20
44.7
 10
428.1100000000001
 20
44.7
 10
428.0510000000001
 20
44.656000000000006
 10
427.9820000000001
 20
44.632000000000005
 10
427.90800000000013
 20
44.628
 10
427.8600000000001
 20
44.638000000000005
 10
427.7940000000001
 20
44.669
 10
427.7400000000001
 20
44.718
 10
427.7020000000001
 20
44.781000000000006
 10
427.6840000000001
 20
44.852000000000004
 10
427.6880000000001
 20
44.926
 10
427.7120000000001
 20
44.995000000000005
 10
427.7560000000001
 20
45.054
 10
427.7560000000001
 20
46.745999999999995
 10
427.7020000000001
 20
46.828
 10
427.6840000000001
 20
46.899
 10
427.6880000000001
 20
46.97200000000001
 10
427.7120000000001
 20
47.041
 10
427.7560000000001
 20
47.099999999999994
 10
427.8150000000001
 20
47.144000000000005
 10
427.8840000000001
 20
47.168000000000006
  0
SEQEND
  0
LWPOLYLINE
100
AcDbPolyline
 90
48
 70
0
 43
0.0
 10
427.8840000000001
 20
85.832
 10
427.8150000000001
 20
85.856
 10
427.7560000000001
 20
85.9
 10
427.7120000000001
 20
85.959
 10
427.6880000000001
 20
86.02799999999999
 10
427.6840000000001
 20
86.101
 10
427.7020000000001
 20
86.172
 10
427.7560000000001
 20
86.254
 10
427.7560000000001
 20
87.946
 10
427.7120000000001
 20
88.005
 10
427.6880000000001
 20
88.074
 10
427.6840000000001
 20
88.148
 10
427.7020000000001
 20
88.219
 10
427.7400000000001
 20
88.282
 10
427.7940000000001
 20
88.331
 10
427.8600000000001
 20
88.362
 10
427.90800000000013
 20
88.372
 10
427.9820000000001
 20
88.368
 10
428.0510000000001
 20
88.344
 10
428.1100000000001
 20
88.3
 10
430.6020000000001
 20
88.3
 10
430.66100000000006
 20
88.344
 10
430.7300000000001
 20
88.368
 10
430.8040000000001
 20
88.372
 10
430.8750000000001
 20
88.354
 10
430.9380000000001
 20
88.316
 10
430.9870000000001
 20
88.262
 10
431.0180000000001
 20
88.196
 10
431.0280000000001
 20
88.148
 10
431.0240000000001
 20
88.074
 10
431.0000000000001
 20
88.005
 10
430.9560000000001
 20
87.946
 10
430.9560000000001
 20
86.254
 10
431.0000000000001
 20
86.195
 10
431.0240000000001
 20
86.126
 10
431.0290000000001
 20
86.077
 10
431.0180000000001
 20
86.004
 10
430.9870000000001
 20
85.938
 10
430.9380000000001
 20
85.884
 10
430.8750000000001
 20
85.846
 10
430.8040000000001
 20
85.828
 10
430.7300000000001
 20
85.832
 10
430.66100000000006
 20
85.856
 10
430.6020000000001
 20
85.9
 10
428.1100000000001
 20
85.9
 10
428.0280000000001
 20
85.846
 10
427.9570000000001
 20
85.828
 10
427.8840000000001
 20
85.832
  0
SEQEND
  0
LWPOLYLINE
100
AcDbPolyline
 90
48
 70
0
 43
0.0
 10
457.7120000000001
 20
47.041
 10
457.7560000000001
 20
47.099999999999994
 10
457.8150000000001
 20
47.144000000000005
 10
457.8840000000001
 20
47.168000000000006
 10
457.9570000000001
 20
47.172
 10
458.0280000000001
 20
47.153999999999996
 10
458.1100000000001
 20
47.099999999999994
 10
460.6020000000001
 20
47.099999999999994
 10
460.66100000000006
 20
47.144000000000005
 10
460.73000000000013
 20
47.168000000000006
 10
460.8040000000001
 20
47.172
 10
460.8750000000001
 20
47.153999999999996
 10
460.9380000000001
 20
47.116
 10
460.9870000000001
 20
47.062
 10
461.0180000000001
 20
46.995999999999995
 10
461.0290000000001
 20
46.923
 10
461.0240000000001
 20
46.873999999999995
 10
461.0000000000001
 20
46.80500000000001
 10
460.95600000000013
 20
46.745999999999995
 10
460.95600000000013
 20
45.054
 10
461.0000000000001
 20
44.995000000000005
 10
461.0240000000001
 20
44.926
 10
461.0280000000001
 20
44.852000000000004
 10
461.0180000000001
 20
44.804
 10
460.9870000000001
 20
44.738
 10
460.9380000000001
 20
44.684
 10
460.8750000000001
 20
44.646
 10
460.8040000000001
 20
44.628
 10
460.73000000000013
 20
44.632000000000005
 10
460.66100000000006
 20
44.656000000000006
 10
460.6020000000001
 20
44.7
 10
458.1100000000001
 20
44.7
 10
458.0510000000001
 20
44.656000000000006
 10
457.9820000000001
 20
44.632000000000005
 10
457.90800000000013
 20
44.628
 10
457.8600000000001
 20
44.638000000000005
 10
457.7940000000001
 20
44.669
 10
457.7400000000001
 20
44.718
 10
457.7020000000001
 20
44.781000000000006
 10
457.6840000000001
 20
44.852000000000004
 10
457.6880000000001
 20
44.926
 10
457.7120000000001
 20
44.995000000000005
 10
457.7560000000001
 20
45.054
 10
457.7560000000001
 20
46.745999999999995
 10
457.7020000000001
 20
46.828
 10
457.6840000000001
 20
46.899
 10
457.6880000000001
 20
46.97200000000001
 10
457.7120000000001
 20
47.041
  0
SEQEND
  0
LWPOLYLINE
100
AcDbPolyline
 90
48
 70
0
 43
0.0
 10
457.7120000000001
 20
85.959
 10
457.6880000000001
 20
86.02799999999999
 10
457.6840000000001
 20
86.101
 10
457.7020000000001
 20
86.172
 10
457.7560000000001
 20
86.254
 10
457.7560000000001
 20
87.946
 10
457.7120000000001
 20
88.005
 10
457.6880000000001
 20
88.074
 10
457.6840000000001
 20
88.148
 10
457.7020000000001
 20
88.219
 10
457.7400000000001
 20
88.282
 10
457.7940000000001
 20
88.331
 10
457.8600000000001
 20
88.362
 10
457.90800000000013
 20
88.372
 10
457.9820000000001
 20
88.368
 10
458.0510000000001
 20
88.344
 10
458.1100000000001
 20
88.3
 10
460.6020000000001
 20
88.3
 10
460.66100000000006
 20
88.344
 10
460.73000000000013
 20
88.368
 10
460.8040000000001
 20
88.372
 10
460.8750000000001
 20
88.354
 10
460.9380000000001
 20
88.316
 10
460.9870000000001
 20
88.262
 10
461.0180000000001
 20
88.196
 10
461.0280000000001
 20
88.148
 10
461.0240000000001
 20
88.074
 10
461.0000000000001
 20
88.005
 10
460.95600000000013
 20
87.946
 10
460.95600000000013
 20
86.254
 10
461.0000000000001
 20
86.195
 10
461.0240000000001
 20
86.126
 10
461.0290000000001
 20
86.077
 10
461.0180000000001
 20
86.004
 10
460.9870000000001
 20
85.938
 10
460.9380000000001
 20
85.884
 10
460.8750000000001
 20
85.846
 10
460.8040000000001
 20
85.828
 10
460.73000000000013
 20
85.832
 10
460.66100000000006
 20
85.856
 10
460.6020000000001
 20
85.9
 10
458.1100000000001
 20
85.9
 10
458.0280000000001
 20
85.846
 10
457.9570000000001
 20
85.828
 10
457.8840000000001
 20
85.832
 10
457.8150000000001
 20
85.856
 10
457.7560000000001
 20
85.9
 10
457.7120000000001
 20
85.959
  0
SEQEND
  0
LWPOLYLINE
100
AcDbPolyline
 90
48
 70
0
 43
0.0
 10
427.8840000000001
 20
42.367999999999995
 10
427.9570000000001
 20
42.372
 10
428.0280000000001
 20
42.354
 10
428.1100000000001
 20
42.3
 10
430.6020000000001
 20
42.3
 10
430.66100000000006
 20
42.343999999999994
 10
430.7300000000001
 20
42.367999999999995
 10
430.8040000000001
 20
42.372
 10
430.8750000000001
 20
42.354
 10
430.9380000000001
 20
42.316
 10
430.9870000000001
 20
42.262
 10
431.0180000000001
 20
42.196
 10
431.0290000000001
 20
42.123000000000005
 10
431.0240000000001
 20
42.074
 10
431.0000000000001
 20
42.004999999999995
 10
430.9560000000001
 20
41.946
 10
430.9560000000001
 20
40.254000000000005
 10
431.0000000000001
 20
40.19499999999999
 10
431.0240000000001
 20
40.126000000000005
 10
431.0280000000001
 20
40.05199999999999
 10
431.0180000000001
 20
40.004000000000005
 10
430.9870000000001
 20
39.938
 10
430.9380000000001
 20
39.884
 10
430.8750000000001
 20
39.846000000000004
 10
430.8040000000001
 20
39.828
 10
430.7300000000001
 20
39.831999999999994
 10
430.66100000000006
 20
39.855999999999995
 10
430.6020000000001
 20
39.900000000000006
 10
428.1100000000001
 20
39.900000000000006
 10
428.0510000000001
 20
39.855999999999995
 10
427.9820000000001
 20
39.831999999999994
 10
427.90800000000013
 20
39.828
 10
427.8600000000001
 20
39.837999999999994
 10
427.7940000000001
 20
39.869
 10
427.7400000000001
 20
39.918000000000006
 10
427.7020000000001
 20
39.980999999999995
 10
427.6840000000001
 20
40.05199999999999
 10
427.6880000000001
 20
40.126000000000005
 10
427.7120000000001
 20
40.19499999999999
 10
427.7560000000001
 20
40.254000000000005
 10
427.7560000000001
 20
41.946
 10
427.7020000000001
 20
42.02799999999999
 10
427.6840000000001
 20
42.099000000000004
 10
427.6880000000001
 20
42.172
 10
427.7120000000001
 20
42.241
 10
427.7560000000001
 20
42.3
 10
427.8150000000001
 20
42.343999999999994
 10
427.8840000000001
 20
42.367999999999995
  0
SEQEND
  0
LWPOLYLINE
100
AcDbPolyline
 90
48
 70
0
 43
0.0
 10
427.8840000000001
 20
90.632
 10
427.8150000000001
 20
90.656
 10
427.7560000000001
 20
90.7
 10
427.7120000000001
 20
90.759
 10
427.6880000000001
 20
90.828
 10
427.6840000000001
 20
90.901
 10
427.7020000000001
 20
90.97200000000001
 10
427.7560000000001
 20
91.054
 10
427.7560000000001
 20
92.746
 10
427.7120000000001
 20
92.805
 10
427.6880000000001
 20
92.874
 10
427.6840000000001
 20
92.94800000000001
 10
427.7020000000001
 20
93.019
 10
427.7400000000001
 20
93.082
 10
427.7940000000001
 20
93.131
 10
427.8600000000001
 20
93.162
 10
427.90800000000013
 20
93.172
 10
427.9820000000001
 20
93.168
 10
428.0510000000001
 20
93.144
 10
428.1100000000001
 20
93.1
 10
430.6020000000001
 20
93.1
 10
430.66100000000006
 20
93.144
 10
430.7300000000001
 20
93.168
 10
430.8040000000001
 20
93.172
 10
430.8750000000001
 20
93.154
 10
430.9380000000001
 20
93.116
 10
430.9870000000001
 20
93.062
 10
431.0180000000001
 20
92.996
 10
431.0280000000001
 20
92.94800000000001
 10
431.0240000000001
 20
92.874
 10
431.0000000000001
 20
92.805
 10
430.9560000000001
 20
92.746
 10
430.9560000000001
 20
91.054
 10
431.0000000000001
 20
90.995
 10
431.0240000000001
 20
90.926
 10
431.0290000000001
 20
90.877
 10
431.0180000000001
 20
90.804
 10
430.9870000000001
 20
90.738
 10
430.9380000000001
 20
90.684
 10
430.8750000000001
 20
90.646
 10
430.8040000000001
 20
90.628
 10
430.7300000000001
 20
90.632
 10
430.66100000000006
 20
90.656
 10
430.6020000000001
 20
90.7
 10
428.1100000000001
 20
90.7
 10
428.0280000000001
 20
90.646
 10
427.9570000000001
 20
90.628
 10
427.8840000000001
 20
90.632
  0
SEQEND
  0
LWPOLYLINE
100
AcDbPolyline
 90
48
 70
0
 43
0.0
 10
457.7560000000001
 20
42.3
 10
457.8150000000001
 20
42.343999999999994
 10
457.8840000000001
 20
42.367999999999995
 10
457.9570000000001
 20
42.372
 10
458.0280000000001
 20
42.354
 10
458.1100000000001
 20
42.3
 10
460.6020000000001
 20
42.3
 10
460.66100000000006
 20
42.343999999999994
 10
460.73000000000013
 20
42.367999999999995
 10
460.8040000000001
 20
42.372
 10
460.8750000000001
 20
42.354
 10
460.9380000000001
 20
42.316
 10
460.9870000000001
 20
42.262
 10
461.0180000000001
 20
42.196
 10
461.0290000000001
 20
42.123000000000005
 10
461.0240000000001
 20
42.074
 10
461.0000000000001
 20
42.004999999999995
 10
460.95600000000013
 20
41.946
 10
460.95600000000013
 20
40.254000000000005
 10
461.0000000000001
 20
40.19499999999999
 10
461.0240000000001
 20
40.126000000000005
 10
461.0280000000001
 20
40.05199999999999
 10
461.0180000000001
 20
40.004000000000005
 10
460.9870000000001
 20
39.938
 10
460.9380000000001
 20
39.884
 10
460.8750000000001
 20
39.846000000000004
 10
460.8040000000001
 20
39.828
 10
460.73000000000013
 20
39.831999999999994
 10
460.66100000000006
 20
39.855999999999995
 10
460.6020000000001
 20
39.900000000000006
 10
458.1100000000001
 20
39.900000000000006
 10
458.0510000000001
 20
39.855999999999995
 10
457.9820000000001
 20
39.831999999999994
 10
457.90800000000013
 20
39.828
 10
457.8600000000001
 20
39.837999999999994
 10
457.7940000000001
 20
39.869
 10
457.7400000000001
 20
39.918000000000006
 10
457.7020000000001
 20
39.980999999999995
 10
457.6840000000001
 20
40.05199999999999
 10
457.6880000000001
 20
40.126000000000005
 10
457.7120000000001
 20
40.19499999999999
 10
457.7560000000001
 20
40.254000000000005
 10
457.7560000000001
 20
41.946
 10
457.7020000000001
 20
42.02799999999999
 10
457.6840000000001
 20
42.099000000000004
 10
457.6880000000001
 20
42.172
 10
457.7120000000001
 20
42.241
 10
457.7560000000001
 20
42.3
  0
SEQEND
  0
LWPOLYLINE
100
AcDbPolyline
 90
48
 70
0
 43
0.0
 10
457.7560000000001
 20
90.7
 10
457.7120000000001
 20
90.759
 10
457.6880000000001
 20
90.828
 10
457.6840000000001
 20
90.901
 10
457.7020000000001
 20
90.97200000000001
 10
457.7560000000001
 20
91.054
 10
457.7560000000001
 20
92.746
 10
457.7120000000001
 20
92.805
 10
457.6880000000001
 20
92.874
 10
457.6840000000001
 20
92.94800000000001
 10
457.7020000000001
 20
93.019
 10
457.7400000000001
 20
93.082
 10
457.7940000000001
 20
93.131
 10
457.8600000000001
 20
93.162
 10
457.90800000000013
 20
93.172
 10
457.9820000000001
 20
93.168
 10
458.0510000000001
 20
93.144
 10
458.1100000000001
 20
93.1
 10
460.6020000000001
 20
93.1
 10
460.66100000000006
 20
93.144
 10
460.73000000000013
 20
93.168
 10
460.8040000000001
 20
93.172
 10
460.8750000000001
 20
93.154
 10
460.9380000000001
 20
93.116
 10
460.9870000000001
 20
93.062
 10
461.0180000000001
 20
92.996
 10
461.0280000000001
 20
92.94800000000001
 10
461.0240000000001
 20
92.874
 10
461.0000000000001
 20
92.805
 10
460.95600000000013
 20
92.746
 10
460.95600000000013
 20
91.054
 10
461.0000000000001
 20
90.995
 10
461.0240000000001
 20
90.926
 10
461.0290000000001
 20
90.877
 10
461.0180000000001
 20
90.804
 10
460.9870000000001
 20
90.738
 10
460.9380000000001
 20
90.684
 10
460.8750000000001
 20
90.646
 10
460.8040000000001
 20
90.628
 10
460.73000000000013
 20
90.632
 10
460.66100000000006
 20
90.656
 10
460.6020000000001
 20
90.7
 10
458.1100000000001
 20
90.7
 10
458.0280000000001
 20
90.646
 10
457.9570000000001
 20
90.628
 10
457.8840000000001
 20
90.632
 10
457.8150000000001
 20
90.656
 10
457.7560000000001
 20
90.7
  0
SEQEND
  0
LWPOLYLINE
100
AcDbPolyline
 90
48
 70
0
 43
0.0
 10
423.7550000000001
 20
17.77199999999999
 10
423.8280000000001
 20
17.768
 10
423.8970000000001
 20
17.744
 10
423.9560000000001
 20
17.69999999999999
 10
424.0000000000001
 20
17.64099999999999
 10
424.0240000000001
 20
17.572000000000003
 10
424.0280000000001
 20
17.498999999999995
 10
424.0100000000001
 20
17.427999999999997
 10
423.9560000000001
 20
17.346000000000004
 10
423.9560000000001
 20
14.25399999999999
 10
424.0000000000001
 20
14.194999999999993
 10
424.0240000000001
 20
14.126000000000005
 10
424.0280000000001
 20
14.051999999999992
 10
424.0100000000001
 20
13.980999999999995
 10
423.9720000000001
 20
13.918000000000006
 10
423.9180000000001
 20
13.869
 10
423.8520000000001
 20
13.837999999999994
 10
423.8040000000001
 20
13.828000000000003
 10
423.7300000000001
 20
13.831999999999994
 10
423.6610000000001
 20
13.855999999999995
 10
423.6020000000001
 20
13.900000000000006
 10
421.1100000000001
 20
13.900000000000006
 10
421.0510000000001
 20
13.855999999999995
 10
420.9820000000001
 20
13.831999999999994
 10
420.90800000000013
 20
13.828000000000003
 10
420.8370000000001
 20
13.846000000000004
 10
420.7740000000001
 20
13.884000000000015
 10
420.7250000000001
 20
13.937999999999988
 10
420.6940000000001
 20
14.00399999999999
 10
420.6840000000001
 20
14.051999999999992
 10
420.6880000000001
 20
14.126000000000005
 10
420.7120000000001
 20
14.194999999999993
 10
420.7560000000001
 20
14.25399999999999
 10
420.7560000000001
 20
17.346000000000004
 10
420.7120000000001
 20
17.405
 10
420.6880000000001
 20
17.47399999999999
 10
420.6830000000001
 20
17.522999999999996
 10
420.6940000000001
 20
17.596000000000004
 10
420.7250000000001
 20
17.662000000000006
 10
420.7740000000001
 20
17.716000000000008
 10
420.8370000000001
 20
17.75399999999999
 10
420.90800000000013
 20
17.77199999999999
 10
420.9820000000001
 20
17.768
 10
421.0510000000001
 20
17.744
 10
421.1100000000001
 20
17.69999999999999
 10
423.6020000000001
 20
17.69999999999999
 10
423.6840000000001
 20
17.75399999999999
 10
423.7550000000001
 20
17.77199999999999
  0
SEQEND
  0
LWPOLYLINE
100
AcDbPolyline
 90
48
 70
0
 43
0.0
 10
423.7550000000001
 20
115.22800000000001
 10
423.6840000000001
 20
115.24600000000001
 10
423.6020000000001
 20
115.3
 10
421.1100000000001
 20
115.3
 10
421.0510000000001
 20
115.256
 10
420.9820000000001
 20
115.232
 10
420.90800000000013
 20
115.22800000000001
 10
420.8370000000001
 20
115.24600000000001
 10
420.7740000000001
 20
115.28399999999999
 10
420.7250000000001
 20
115.338
 10
420.6940000000001
 20
115.404
 10
420.6830000000001
 20
115.477
 10
420.6880000000001
 20
115.52600000000001
 10
420.7120000000001
 20
115.595
 10
420.7560000000001
 20
115.654
 10
420.7560000000001
 20
118.74600000000001
 10
420.7120000000001
 20
118.805
 10
420.6880000000001
 20
118.874
 10
420.6840000000001
 20
118.94800000000001
 10
420.6940000000001
 20
118.99600000000001
 10
420.7250000000001
 20
119.062
 10
420.7740000000001
 20
119.116
 10
420.8370000000001
 20
119.154
 10
420.90800000000013
 20
119.172
 10
420.9820000000001
 20
119.168
 10
421.0510000000001
 20
119.144
 10
421.1100000000001
 20
119.1
 10
423.6020000000001
 20
119.1
 10
423.6610000000001
 20
119.144
 10
423.7300000000001
 20
119.168
 10
423.8040000000001
 20
119.172
 10
423.8520000000001
 20
119.162
 10
423.9180000000001
 20
119.131
 10
423.9720000000001
 20
119.082
 10
424.0100000000001
 20
119.019
 10
424.0280000000001
 20
118.94800000000001
 10
424.0240000000001
 20
118.874
 10
424.0000000000001
 20
118.805
 10
423.9560000000001
 20
118.74600000000001
 10
423.9560000000001
 20
115.654
 10
424.0100000000001
 20
115.572
 10
424.0280000000001
 20
115.501
 10
424.0240000000001
 20
115.428
 10
424.0000000000001
 20
115.35900000000001
 10
423.9560000000001
 20
115.3
 10
423.8970000000001
 20
115.256
 10
423.8280000000001
 20
115.232
 10
423.7550000000001
 20
115.22800000000001
  0
SEQEND
  0
LWPOLYLINE
100
AcDbPolyline
 90
48
 70
0
 43
0.0
 10
427.9570000000001
 20
17.77199999999999
 10
428.0280000000001
 20
17.75399999999999
 10
428.1100000000001
 20
17.69999999999999
 10
430.6020000000001
 20
17.69999999999999
 10
430.66100000000006
 20
17.744
 10
430.7300000000001
 20
17.768
 10
430.8040000000001
 20
17.77199999999999
 10
430.8750000000001
 20
17.75399999999999
 10
430.9380000000001
 20
17.716000000000008
 10
430.9870000000001
 20
17.662000000000006
 10
431.0180000000001
 20
17.596000000000004
 10
431.0290000000001
 20
17.522999999999996
 10
431.0240000000001
 20
17.47399999999999
 10
431.0000000000001
 20
17.405
 10
430.9560000000001
 20
17.346000000000004
 10
430.9560000000001
 20
14.25399999999999
 10
431.0000000000001
 20
14.194999999999993
 10
431.0240000000001
 20
14.126000000000005
 10
431.0280000000001
 20
14.051999999999992
 10
431.0180000000001
 20
14.00399999999999
 10
430.9870000000001
 20
13.937999999999988
 10
430.9380000000001
 20
13.884000000000015
 10
430.8750000000001
 20
13.846000000000004
 10
430.8040000000001
 20
13.828000000000003
 10
430.7300000000001
 20
13.831999999999994
 10
430.66100000000006
 20
13.855999999999995
 10
430.6020000000001
 20
13.900000000000006
 10
428.1100000000001
 20
13.900000000000006
 10
428.0510000000001
 20
13.855999999999995
 10
427.9820000000001
 20
13.831999999999994
 10
427.90800000000013
 20
13.828000000000003
 10
427.8600000000001
 20
13.837999999999994
 10
427.7940000000001
 20
13.869
 10
427.7400000000001
 20
13.918000000000006
 10
427.7020000000001
 20
13.980999999999995
 10
427.6840000000001
 20
14.051999999999992
 10
427.6880000000001
 20
14.126000000000005
 10
427.7120000000001
 20
14.194999999999993
 10
427.7560000000001
 20
14.25399999999999
 10
427.7560000000001
 20
17.346000000000004
 10
427.7020000000001
 20
17.427999999999997
 10
427.6840000000001
 20
17.498999999999995
 10
427.6880000000001
 20
17.572000000000003
 10
427.7120000000001
 20
17.64099999999999
 10
427.7560000000001
 20
17.69999999999999
 10
427.8150000000001
 20
17.744
 10
427.8840000000001
 20
17.768
 10
427.9570000000001
 20
17.77199999999999
  0
SEQEND
  0
LWPOLYLINE
100
AcDbPolyline
 90
48
 70
0
 43
0.0
 10
427.9570000000001
 20
115.22800000000001
 10
427.8840000000001
 20
115.232
 10
427.8150000000001
 20
115.256
 10
427.7560000000001
 20
115.3
 10
427.7120000000001
 20
115.35900000000001
 10
427.6880000000001
 20
115.428
 10
427.6840000000001
 20
115.501
 10
427.7020000000001
 20
115.572
 10
427.7560000000001
 20
115.654
 10
427.7560000000001
 20
118.74600000000001
 10
427.7120000000001
 20
118.805
 10
427.6880000000001
 20
118.874
 10
427.6840000000001
 20
118.94800000000001
 10
427.7020000000001
 20
119.019
 10
427.7400000000001
 20
119.082
 10
427.7940000000001
 20
119.131
 10
427.8600000000001
 20
119.162
 10
427.90800000000013
 20
119.172
 10
427.9820000000001
 20
119.168
 10
428.0510000000001
 20
119.144
 10
428.1100000000001
 20
119.1
 10
430.6020000000001
 20
119.1
 10
430.66100000000006
 20
119.144
 10
430.7300000000001
 20
119.168
 10
430.8040000000001
 20
119.172
 10
430.8750000000001
 20
119.154
 10
430.9380000000001
 20
119.116
 10
430.9870000000001
 20
119.062
 10
431.0180000000001
 20
118.99600000000001
 10
431.0280000000001
 20
118.94800000000001
 10
431.0240000000001
 20
118.874
 10
431.0000000000001
 20
118.805
 10
430.9560000000001
 20
118.74600000000001
 10
430.9560000000001
 20
115.654
 10
431.0000000000001
 20
115.595
 10
431.0240000000001
 20
115.52600000000001
 10
431.0290000000001
 20
115.477
 10
431.0180000000001
 20
115.404
 10
430.9870000000001
 20
115.338
 10
430.9380000000001
 20
115.28399999999999
 10
430.8750000000001
 20
115.24600000000001
 10
430.8040000000001
 20
115.22800000000001
 10
430.7300000000001
 20
115.232
 10
430.66100000000006
 20
115.256
 10
430.6020000000001
 20
115.3
 10
428.1100000000001
 20
115.3
 10
428.0280000000001
 20
115.24600000000001
 10
427.9570000000001
 20
115.22800000000001
  0
SEQEND
  0
LWPOLYLINE
100
AcDbPolyline
 90
48
 70
0
 43
0.0
 10
423.7550000000001
 20
10.171999999999997
 10
423.8280000000001
 20
10.168000000000006
 10
423.8970000000001
 20
10.144000000000005
 10
423.9560000000001
 20
10.099999999999994
 10
424.0000000000001
 20
10.040999999999997
 10
424.0240000000001
 20
9.972000000000008
 10
424.0280000000001
 20
9.899000000000001
 10
424.0100000000001
 20
9.828000000000003
 10
423.9560000000001
 20
9.74600000000001
 10
423.9560000000001
 20
6.653999999999996
 10
424.0000000000001
 20
6.594999999999999
 10
424.0240000000001
 20
6.5260000000000105
 10
424.0280000000001
 20
6.451999999999998
 10
424.0100000000001
 20
6.381
 10
423.9720000000001
 20
6.317999999999984
 10
423.9180000000001
 20
6.2690000000000055
 10
423.8520000000001
 20
6.2379999999999995
 10
423.8040000000001
 20
6.228000000000009
 10
423.7300000000001
 20
6.231999999999999
 10
423.6610000000001
 20
6.256
 10
423.6020000000001
 20
6.300000000000011
 10
421.1100000000001
 20
6.300000000000011
 10
421.0510000000001
 20
6.256
 10
420.9820000000001
 20
6.231999999999999
 10
420.90800000000013
 20
6.228000000000009
 10
420.8370000000001
 20
6.246000000000009
 10
420.7740000000001
 20
6.283999999999992
 10
420.7250000000001
 20
6.337999999999994
 10
420.6940000000001
 20
6.403999999999996
 10
420.6840000000001
 20
6.451999999999998
 10
420.6880000000001
 20
6.5260000000000105
 10
420.7120000000001
 20
6.594999999999999
 10
420.7560000000001
 20
6.653999999999996
 10
420.7560000000001
 20
9.74600000000001
 10
420.7120000000001
 20
9.805000000000007
 10
420.6880000000001
 20
9.873999999999995
 10
420.6830000000001
 20
9.923000000000002
 10
420.6940000000001
 20
9.99600000000001
 10
420.7250000000001
 20
10.062000000000012
 10
420.7740000000001
 20
10.115999999999985
 10
420.8370000000001
 20
10.153999999999996
 10
420.90800000000013
 20
10.171999999999997
 10
420.9820000000001
 20
10.168000000000006
 10
421.0510000000001
 20
10.144000000000005
 10
421.1100000000001
 20
10.099999999999994
 10
423.6020000000001
 20
10.099999999999994
 10
423.6840000000001
 20
10.153999999999996
 10
423.7550000000001
 20
10.171999999999997
  0
SEQEND
  0
LWPOLYLINE
100
AcDbPolyline
 90
48
 70
0
 43
0.0
 10
423.7550000000001
 20
122.828
 10
423.6840000000001
 20
122.846
 10
423.6020000000001
 20
122.9
 10
421.1100000000001
 20
122.9
 10
421.0510000000001
 20
122.856
 10
420.9820000000001
 20
122.832
 10
420.90800000000013
 20
122.828
 10
420.8370000000001
 20
122.846
 10
420.7740000000001
 20
122.884
 10
420.7250000000001
 20
122.938
 10
420.6940000000001
 20
123.00399999999999
 10
420.6830000000001
 20
123.077
 10
420.6880000000001
 20
123.126
 10
420.7120000000001
 20
123.195
 10
420.7560000000001
 20
123.25399999999999
 10
420.7560000000001
 20
126.346
 10
420.7120000000001
 20
126.405
 10
420.6880000000001
 20
126.47399999999999
 10
420.6840000000001
 20
126.548
 10
420.6940000000001
 20
126.596
 10
420.7250000000001
 20
126.662
 10
420.7740000000001
 20
126.71600000000001
 10
420.8370000000001
 20
126.75399999999999
 10
420.90800000000013
 20
126.77199999999999
 10
420.9820000000001
 20
126.768
 10
421.0510000000001
 20
126.744
 10
421.1100000000001
 20
126.7
 10
423.6020000000001
 20
126.7
 10
423.6610000000001
 20
126.744
 10
423.7300000000001
 20
126.768
 10
423.8040000000001
 20
126.77199999999999
 10
423.8520000000001
 20
126.762
 10
423.9180000000001
 20
126.731
 10
423.9720000000001
 20
126.682
 10
424.0100000000001
 20
126.619
 10
424.0280000000001
 20
126.548
 10
424.0240000000001
 20
126.47399999999999
 10
424.0000000000001
 20
126.405
 10
423.9560000000001
 20
126.346
 10
423.9560000000001
 20
123.25399999999999
 10
424.0100000000001
 20
123.172
 10
424.0280000000001
 20
123.101
 10
424.0240000000001
 20
123.02799999999999
 10
424.0000000000001
 20
122.959
 10
423.9560000000001
 20
122.9
 10
423.8970000000001
 20
122.856
 10
423.8280000000001
 20
122.832
 10
423.7550000000001
 20
122.828
  0
SEQEND
  0
LWPOLYLINE
100
AcDbPolyline
 90
48
 70
0
 43
0.0
 10
427.9570000000001
 20
10.171999999999997
 10
428.0280000000001
 20
10.153999999999996
 10
428.1100000000001
 20
10.099999999999994
 10
430.6020000000001
 20
10.099999999999994
 10
430.66100000000006
 20
10.144000000000005
 10
430.7300000000001
 20
10.168000000000006
 10
430.8040000000001
 20
10.171999999999997
 10
430.8750000000001
 20
10.153999999999996
 10
430.9380000000001
 20
10.115999999999985
 10
430.9870000000001
 20
10.062000000000012
 10
431.0180000000001
 20
9.99600000000001
 10
431.0290000000001
 20
9.923000000000002
 10
431.0240000000001
 20
9.873999999999995
 10
431.0000000000001
 20
9.805000000000007
 10
430.9560000000001
 20
9.74600000000001
 10
430.9560000000001
 20
6.653999999999996
 10
431.0000000000001
 20
6.594999999999999
 10
431.0240000000001
 20
6.5260000000000105
 10
431.0280000000001
 20
6.451999999999998
 10
431.0180000000001
 20
6.403999999999996
 10
430.9870000000001
 20
6.337999999999994
 10
430.9380000000001
 20
6.283999999999992
 10
430.8750000000001
 20
6.246000000000009
 10
430.8040000000001
 20
6.228000000000009
 10
430.7300000000001
 20
6.231999999999999
 10
430.66100000000006
 20
6.256
 10
430.6020000000001
 20
6.300000000000011
 10
428.1100000000001
 20
6.300000000000011
 10
428.0510000000001
 20
6.256
 10
427.9820000000001
 20
6.231999999999999
 10
427.90800000000013
 20
6.228000000000009
 10
427.8600000000001
 20
6.2379999999999995
 10
427.7940000000001
 20
6.2690000000000055
 10
427.7400000000001
 20
6.317999999999984
 10
427.7020000000001
 20
6.381
 10
427.6840000000001
 20
6.451999999999998
 10
427.6880000000001
 20
6.5260000000000105
 10
427.7120000000001
 20
6.594999999999999
 10
427.7560000000001
 20
6.653999999999996
 10
427.7560000000001
 20
9.74600000000001
 10
427.7020000000001
 20
9.828000000000003
 10
427.6840000000001
 20
9.899000000000001
 10
427.6880000000001
 20
9.972000000000008
 10
427.7120000000001
 20
10.040999999999997
 10
427.7560000000001
 20
10.099999999999994
 10
427.8150000000001
 20
10.144000000000005
 10
427.8840000000001
 20
10.168000000000006
 10
427.9570000000001
 20
10.171999999999997
  0
SEQEND
  0
LWPOLYLINE
100
AcDbPolyline
 90
48
 70
0
 43
0.0
 10
427.9570000000001
 20
122.828
 10
427.8840000000001
 20
122.832
 10
427.8150000000001
 20
122.856
 10
427.7560000000001
 20
122.9
 10
427.7120000000001
 20
122.959
 10
427.6880000000001
 20
123.02799999999999
 10
427.6840000000001
 20
123.101
 10
427.7020000000001
 20
123.172
 10
427.7560000000001
 20
123.25399999999999
 10
427.7560000000001
 20
126.346
 10
427.7120000000001
 20
126.405
 10
427.6880000000001
 20
126.47399999999999
 10
427.6840000000001
 20
126.548
 10
427.7020000000001
 20
126.619
 10
427.7400000000001
 20
126.682
 10
427.7940000000001
 20
126.731
 10
427.8600000000001
 20
126.762
 10
427.90800000000013
 20
126.77199999999999
 10
427.9820000000001
 20
126.768
 10
428.0510000000001
 20
126.744
 10
428.1100000000001
 20
126.7
 10
430.6020000000001
 20
126.7
 10
430.66100000000006
 20
126.744
 10
430.7300000000001
 20
126.768
 10
430.8040000000001
 20
126.77199999999999
 10
430.8750000000001
 20
126.75399999999999
 10
430.9380000000001
 20
126.71600000000001
 10
430.9870000000001
 20
126.662
 10
431.0180000000001
 20
126.596
 10
431.0280000000001
 20
126.548
 10
431.0240000000001
 20
126.47399999999999
 10
431.0000000000001
 20
126.405
 10
430.9560000000001
 20
126.346
 10
430.9560000000001
 20
123.25399999999999
 10
431.0000000000001
 20
123.195
 10
431.0240000000001
 20
123.126
 10
431.0290000000001
 20
123.077
 10
431.0180000000001
 20
123.00399999999999
 10
430.9870000000001
 20
122.938
 10
430.9380000000001
 20
122.884
 10
430.8750000000001
 20
122.846
 10
430.8040000000001
 20
122.828
 10
430.7300000000001
 20
122.832
 10
430.66100000000006
 20
122.856
 10
430.6020000000001
 20
122.9
 10
428.1100000000001
 20
122.9
 10
428.0280000000001
 20
122.846
 10
427.9570000000001
 20
122.828
  0
SEQEND
  0
LWPOLYLINE
100
AcDbPolyline
 90
50
 70
0
 43
0.0
 10
475.6640000000001
 20
40.113
 10
475.7030000000001
 20
40.175
 10
475.7590000000001
 20
40.22200000000001
 10
475.8270000000001
 20
40.251999999999995
 10
477.0730000000001
 20
42.411
 10
477.0670000000001
 20
42.507999999999996
 10
477.0870000000001
 20
42.578
 10
477.1110000000001
 20
42.620999999999995
 10
477.1620000000001
 20
42.67400000000001
 10
477.2260000000001
 20
42.709
 10
477.2980000000001
 20
42.724999999999994
 10
477.3710000000001
 20
42.718999999999994
 10
477.4400000000001
 20
42.69200000000001
 10
477.49700000000007
 20
42.646
 10
477.5390000000001
 20
42.586
 10
477.5560000000001
 20
42.53999999999999
 10
480.2350000000001
 20
40.994
 10
480.30700000000013
 20
41.001999999999995
 10
480.3800000000001
 20
40.989000000000004
 10
480.4450000000001
 20
40.955
 10
480.4980000000001
 20
40.903999999999996
 10
480.53300000000013
 20
40.84
 10
480.5490000000001
 20
40.768
 10
480.5470000000001
 20
40.718999999999994
 10
480.5270000000001
 20
40.649
 10
480.4870000000001
 20
40.587
 10
480.4310000000001
 20
40.53999999999999
 10
480.3640000000001
 20
40.510999999999996
 10
479.1170000000001
 20
38.352000000000004
 10
479.1260000000001
 20
38.278999999999996
 10
479.1190000000001
 20
38.230000000000004
 10
479.0930000000001
 20
38.162000000000006
 10
479.0470000000001
 20
38.104
 10
479.0080000000001
 20
38.075
 10
478.9410000000001
 20
38.045
 10
478.8920000000001
 20
38.037000000000006
 10
478.8190000000001
 20
38.043000000000006
 10
478.7730000000001
 20
38.059
 10
478.7110000000001
 20
38.099000000000004
 10
478.6640000000001
 20
38.155
 10
478.6350000000001
 20
38.22200000000001
 10
475.95600000000013
 20
39.769000000000005
 10
475.8590000000001
 20
39.762
 10
475.7880000000001
 20
39.782
 10
475.7260000000001
 20
39.822
 10
475.6930000000001
 20
39.858000000000004
 10
475.6570000000001
 20
39.922
 10
475.6450000000001
 20
39.968999999999994
 10
475.6430000000001
 20
40.043000000000006
 10
475.6640000000001
 20
40.113
  0
SEQEND
  0
LWPOLYLINE
100
AcDbPolyline
 90
50
 70
0
 43
0.0
 10
475.6640000000001
 20
92.887
 10
475.6430000000001
 20
92.957
 10
475.6450000000001
 20
93.031
 10
475.6570000000001
 20
93.078
 10
475.6930000000001
 20
93.142
 10
475.7260000000001
 20
93.178
 10
475.7880000000001
 20
93.218
 10
475.8590000000001
 20
93.238
 10
475.95600000000013
 20
93.231
 10
478.6350000000001
 20
94.77799999999999
 10
478.6640000000001
 20
94.845
 10
478.7110000000001
 20
94.901
 10
478.7730000000001
 20
94.941
 10
478.8190000000001
 20
94.957
 10
478.8920000000001
 20
94.963
 10
478.9410000000001
 20
94.955
 10
479.0080000000001
 20
94.925
 10
479.0470000000001
 20
94.896
 10
479.0930000000001
 20
94.838
 10
479.1190000000001
 20
94.77
 10
479.1260000000001
 20
94.721
 10
479.1170000000001
 20
94.648
 10
480.3640000000001
 20
92.489
 10
480.4310000000001
 20
92.46000000000001
 10
480.4870000000001
 20
92.413
 10
480.5270000000001
 20
92.351
 10
480.5470000000001
 20
92.281
 10
480.5490000000001
 20
92.232
 10
480.53300000000013
 20
92.16
 10
480.4980000000001
 20
92.096
 10
480.4450000000001
 20
92.045
 10
480.3800000000001
 20
92.011
 10
480.30700000000013
 20
91.998
 10
480.2350000000001
 20
92.006
 10
477.5560000000001
 20
90.46000000000001
 10
477.5390000000001
 20
90.414
 10
477.49700000000007
 20
90.354
 10
477.4400000000001
 20
90.30799999999999
 10
477.3710000000001
 20
90.281
 10
477.2980000000001
 20
90.275
 10
477.2260000000001
 20
90.291
 10
477.1620000000001
 20
90.326
 10
477.1110000000001
 20
90.379
 10
477.0870000000001
 20
90.422
 10
477.0670000000001
 20
90.492
 10
477.0730000000001
 20
90.589
 10
475.8270000000001
 20
92.748
 10
475.7590000000001
 20
92.77799999999999
 10
475.7030000000001
 20
92.825
 10
475.6640000000001
 20
92.887
  0
SEQEND
  0
LWPOLYLINE
100
AcDbPolyline
 90
49
 70
0
 43
0.0
 10
384.7070000000001
 20
40.316
 10
384.7270000000001
 20
40.245999999999995
 10
384.7210000000001
 20
40.147999999999996
 10
385.9670000000001
 20
37.989000000000004
 10
386.05500000000006
 20
37.946
 10
386.1060000000001
 20
37.894000000000005
 10
386.1300000000001
 20
37.851
 10
386.1500000000001
 20
37.781000000000006
 10
386.1490000000001
 20
37.706999999999994
 10
386.12700000000007
 20
37.637
 10
386.0850000000001
 20
37.577
 10
386.0270000000001
 20
37.531000000000006
 10
385.98300000000006
 20
37.510999999999996
 10
385.91100000000006
 20
37.498000000000005
 10
385.8380000000001
 20
37.506
 10
383.1590000000001
 20
35.96000000000001
 10
383.1300000000001
 20
35.893
 10
383.0830000000001
 20
35.837
 10
383.0210000000001
 20
35.797
 10
382.9750000000001
 20
35.781000000000006
 10
382.90100000000007
 20
35.775000000000006
 10
382.8415000000001
 20
35.787000000000006
 10
382.78600000000006
 20
35.812
 10
382.73000000000013
 20
35.86
 10
382.6900000000001
 20
35.922
 10
382.6740000000001
 20
35.968
 10
382.6680000000001
 20
36.028999999999996
 10
382.6760000000001
 20
36.089
 10
381.43000000000006
 20
38.248000000000005
 10
381.36300000000006
 20
38.27799999999999
 10
381.2910000000001
 20
38.343999999999994
 10
381.2580000000001
 20
38.40899999999999
 10
381.2450000000001
 20
38.506
 10
381.2610000000001
 20
38.578
 10
381.2960000000001
 20
38.641999999999996
 10
381.3490000000001
 20
38.693
 10
381.4140000000001
 20
38.727000000000004
 10
381.4860000000001
 20
38.739999999999995
 10
381.5590000000001
 20
38.730999999999995
 10
384.23800000000006
 20
40.27799999999999
 10
384.2550000000001
 20
40.324
 10
384.2970000000001
 20
40.384
 10
384.3540000000001
 20
40.43000000000001
 10
384.4220000000001
 20
40.456999999999994
 10
384.4960000000001
 20
40.462999999999994
 10
384.5440000000001
 20
40.455
 10
384.6110000000001
 20
40.425
 10
384.6670000000001
 20
40.378
 10
384.7070000000001
 20
40.316
  0
SEQEND
  0
LWPOLYLINE
100
AcDbPolyline
 90
49
 70
0
 43
0.0
 10
384.7070000000001
 20
92.684
 10
384.6670000000001
 20
92.622
 10
384.6110000000001
 20
92.575
 10
384.5440000000001
 20
92.545
 10
384.4960000000001
 20
92.537
 10
384.4220000000001
 20
92.543
 10
384.3540000000001
 20
92.57
 10
384.2970000000001
 20
92.616
 10
384.2550000000001
 20
92.676
 10
384.23800000000006
 20
92.72200000000001
 10
381.5590000000001
 20
94.269
 10
381.4860000000001
 20
94.26
 10
381.4140000000001
 20
94.273
 10
381.3490000000001
 20
94.307
 10
381.2960000000001
 20
94.358
 10
381.2610000000001
 20
94.422
 10
381.2450000000001
 20
94.494
 10
381.2580000000001
 20
94.59100000000001
 10
381.2910000000001
 20
94.656
 10
381.36300000000006
 20
94.72200000000001
 10
381.43000000000006
 20
94.752
 10
382.6760000000001
 20
96.911
 10
382.6680000000001
 20
96.971
 10
382.6740000000001
 20
97.032
 10
382.6900000000001
 20
97.078
 10
382.73000000000013
 20
97.14
 10
382.78600000000006
 20
97.188
 10
382.8415000000001
 20
97.213
 10
382.90100000000007
 20
97.225
 10
382.9750000000001
 20
97.219
 10
383.0210000000001
 20
97.203
 10
383.0830000000001
 20
97.163
 10
383.1300000000001
 20
97.107
 10
383.1590000000001
 20
97.03999999999999
 10
385.8380000000001
 20
95.494
 10
385.91100000000006
 20
95.502
 10
385.98300000000006
 20
95.489
 10
386.0270000000001
 20
95.469
 10
386.0850000000001
 20
95.423
 10
386.12700000000007
 20
95.363
 10
386.1490000000001
 20
95.293
 10
386.1500000000001
 20
95.219
 10
386.1300000000001
 20
95.149
 10
386.1060000000001
 20
95.106
 10
386.05500000000006
 20
95.054
 10
385.9670000000001
 20
95.011
 10
384.7210000000001
 20
92.852
 10
384.7270000000001
 20
92.754
 10
384.7070000000001
 20
92.684
  0
SEQEND
  0
LWPOLYLINE
100
AcDbPolyline
 90
49
 70
0
 43
0.0
 10
467.0050000000001
 20
40.316
 10
467.0450000000001
 20
40.378
 10
467.1010000000001
 20
40.425
 10
467.1680000000001
 20
40.455
 10
467.2160000000001
 20
40.462999999999994
 10
467.2900000000001
 20
40.456999999999994
 10
467.35800000000006
 20
40.43000000000001
 10
467.4150000000001
 20
40.384
 10
467.4570000000001
 20
40.324
 10
467.4740000000001
 20
40.27799999999999
 10
470.1530000000001
 20
38.730999999999995
 10
470.2260000000001
 20
38.739999999999995
 10
470.2980000000001
 20
38.727000000000004
 10
470.36300000000006
 20
38.693
 10
470.4160000000001
 20
38.641999999999996
 10
470.4510000000001
 20
38.578
 10
470.4670000000001
 20
38.506
 10
470.45400000000006
 20
38.40899999999999
 10
470.4210000000001
 20
38.343999999999994
 10
470.3490000000001
 20
38.27799999999999
 10
470.2820000000001
 20
38.248000000000005
 10
469.03600000000006
 20
36.089
 10
469.0440000000001
 20
36.028999999999996
 10
469.0380000000001
 20
35.968
 10
469.0220000000001
 20
35.922
 10
468.9820000000001
 20
35.86
 10
468.9260000000001
 20
35.812
 10
468.8705000000001
 20
35.787000000000006
 10
468.8110000000001
 20
35.775000000000006
 10
468.7370000000001
 20
35.781000000000006
 10
468.6910000000001
 20
35.797
 10
468.62900000000013
 20
35.837
 10
468.5820000000001
 20
35.893
 10
468.5530000000001
 20
35.96000000000001
 10
465.8740000000001
 20
37.506
 10
465.8010000000001
 20
37.498000000000005
 10
465.7290000000001
 20
37.510999999999996
 10
465.68500000000006
 20
37.531000000000006
 10
465.62700000000007
 20
37.577
 10
465.5850000000001
 20
37.637
 10
465.5630000000001
 20
37.706999999999994
 10
465.5620000000001
 20
37.781000000000006
 10
465.5820000000001
 20
37.851
 10
465.6060000000001
 20
37.894000000000005
 10
465.6570000000001
 20
37.946
 10
465.7450000000001
 20
37.989000000000004
 10
466.9910000000001
 20
40.147999999999996
 10
466.9850000000001
 20
40.245999999999995
 10
467.0050000000001
 20
40.316
  0
SEQEND
  0
LWPOLYLINE
100
AcDbPolyline
 90
49
 70
0
 43
0.0
 10
467.0050000000001
 20
92.684
 10
466.9850000000001
 20
92.754
 10
466.9910000000001
 20
92.852
 10
465.7450000000001
 20
95.011
 10
465.6570000000001
 20
95.054
 10
465.6060000000001
 20
95.106
 10
465.5820000000001
 20
95.149
 10
465.5620000000001
 20
95.219
 10
465.5630000000001
 20
95.293
 10
465.5850000000001
 20
95.363
 10
465.62700000000007
 20
95.423
 10
465.68500000000006
 20
95.469
 10
465.7290000000001
 20
95.489
 10
465.8010000000001
 20
95.502
 10
465.8740000000001
 20
95.494
 10
468.5530000000001
 20
97.03999999999999
 10
468.5820000000001
 20
97.107
 10
468.62900000000013
 20
97.163
 10
468.6910000000001
 20
97.203
 10
468.7370000000001
 20
97.219
 10
468.8110000000001
 20
97.225
 10
468.8705000000001
 20
97.213
 10
468.9260000000001
 20
97.188
 10
468.9820000000001
 20
97.14
 10
469.0220000000001
 20
97.078
 10
469.0380000000001
 20
97.032
 10
469.0440000000001
 20
96.971
 10
469.03600000000006
 20
96.911
 10
470.2820000000001
 20
94.752
 10
470.3490000000001
 20
94.72200000000001
 10
470.4210000000001
 20
94.656
 10
470.45400000000006
 20
94.59100000000001
 10
470.4670000000001
 20
94.494
 10
470.4510000000001
 20
94.422
 10
470.4160000000001
 20
94.358
 10
470.36300000000006
 20
94.307
 10
470.2980000000001
 20
94.273
 10
470.2260000000001
 20
94.26
 10
470.1530000000001
 20
94.269
 10
467.4740000000001
 20
92.72200000000001
 10
467.4570000000001
 20
92.676
 10
467.4150000000001
 20
92.616
 10
467.35800000000006
 20
92.57
 10
467.2900000000001
 20
92.543
 10
467.2160000000001
 20
92.537
 10
467.1680000000001
 20
92.545
 10
467.1010000000001
 20
92.575
 10
467.0450000000001
 20
92.622
 10
467.0050000000001
 20
92.684
  0
SEQEND
  0
LWPOLYLINE
100
AcDbPolyline
 90
50
 70
0
 43
0.0
 10
382.6300000000001
 20
43.913
 10
382.6500000000001
 20
43.843
 10
382.6490000000001
 20
43.769000000000005
 10
382.62700000000007
 20
43.7
 10
382.5850000000001
 20
43.638999999999996
 10
382.5270000000001
 20
43.593999999999994
 10
382.48300000000006
 20
43.57300000000001
 10
382.41100000000006
 20
43.56
 10
382.3380000000001
 20
43.569
 10
379.6590000000001
 20
42.02199999999999
 10
379.6300000000001
 20
41.955
 10
379.5830000000001
 20
41.899
 10
379.5210000000001
 20
41.85900000000001
 10
379.4750000000001
 20
41.843
 10
379.40100000000007
 20
41.837
 10
379.35300000000007
 20
41.845
 10
379.28600000000006
 20
41.875
 10
379.24700000000007
 20
41.903999999999996
 10
379.2010000000001
 20
41.962
 10
379.1740000000001
 20
42.03
 10
379.1680000000001
 20
42.09100000000001
 10
379.1760000000001
 20
42.152
 10
377.93000000000006
 20
44.31100000000001
 10
377.86300000000006
 20
44.34
 10
377.80700000000013
 20
44.387
 10
377.7670000000001
 20
44.449
 10
377.74700000000007
 20
44.519000000000005
 10
377.7480000000001
 20
44.593
 10
377.7700000000001
 20
44.663
 10
377.7960000000001
 20
44.70400000000001
 10
377.8490000000001
 20
44.754999999999995
 10
377.9140000000001
 20
44.789
 10
377.9860000000001
 20
44.80199999999999
 10
378.0590000000001
 20
44.794
 10
380.73800000000006
 20
46.34
 10
380.7550000000001
 20
46.385999999999996
 10
380.7970000000001
 20
46.446
 10
380.8540000000001
 20
46.492000000000004
 10
380.9220000000001
 20
46.519000000000005
 10
380.9960000000001
 20
46.525000000000006
 10
381.0440000000001
 20
46.516999999999996
 10
381.1110000000001
 20
46.488
 10
381.1670000000001
 20
46.44
 10
381.2070000000001
 20
46.378
 10
381.2270000000001
 20
46.30799999999999
 10
381.2210000000001
 20
46.211
 10
382.4670000000001
 20
44.05199999999999
 10
382.55500000000006
 20
44.007999999999996
 10
382.6060000000001
 20
43.956
 10
382.6300000000001
 20
43.913
  0
SEQEND
  0
LWPOLYLINE
100
AcDbPolyline
 90
50
 70
0
 43
0.0
 10
382.6300000000001
 20
89.087
 10
382.6060000000001
 20
89.044
 10
382.55500000000006
 20
88.992
 10
382.4670000000001
 20
88.94800000000001
 10
381.2210000000001
 20
86.789
 10
381.2270000000001
 20
86.69200000000001
 10
381.2070000000001
 20
86.622
 10
381.1670000000001
 20
86.56
 10
381.1110000000001
 20
86.512
 10
381.0440000000001
 20
86.483
 10
380.9960000000001
 20
86.475
 10
380.9220000000001
 20
86.481
 10
380.8540000000001
 20
86.508
 10
380.7970000000001
 20
86.554
 10
380.7550000000001
 20
86.614
 10
380.73800000000006
 20
86.66
 10
378.0590000000001
 20
88.206
 10
377.9860000000001
 20
88.19800000000001
 10
377.9140000000001
 20
88.211
 10
377.8490000000001
 20
88.245
 10
377.7960000000001
 20
88.29599999999999
 10
377.7700000000001
 20
88.337
 10
377.7480000000001
 20
88.407
 10
377.74700000000007
 20
88.481
 10
377.7670000000001
 20
88.551
 10
377.80700000000013
 20
88.613
 10
377.86300000000006
 20
88.66
 10
377.93000000000006
 20
88.689
 10
379.1760000000001
 20
90.848
 10
379.1680000000001
 20
90.90899999999999
 10
379.1740000000001
 20
90.97
 10
379.2010000000001
 20
91.038
 10
379.24700000000007
 20
91.096
 10
379.28600000000006
 20
91.125
 10
379.35300000000007
 20
91.155
 10
379.40100000000007
 20
91.163
 10
379.4750000000001
 20
91.157
 10
379.5210000000001
 20
91.14099999999999
 10
379.5830000000001
 20
91.101
 10
379.6300000000001
 20
91.045
 10
379.6590000000001
 20
90.97800000000001
 10
382.3380000000001
 20
89.431
 10
382.41100000000006
 20
89.44
 10
382.48300000000006
 20
89.42699999999999
 10
382.5270000000001
 20
89.406
 10
382.5850000000001
 20
89.361
 10
382.62700000000007
 20
89.3
 10
382.6490000000001
 20
89.231
 10
382.6500000000001
 20
89.157
 10
382.6300000000001
 20
89.087
  0
SEQEND
  0
LWPOLYLINE
100
AcDbPolyline
 90
50
 70
0
 43
0.0
 10
469.0820000000001
 20
43.913
 10
469.1060000000001
 20
43.956
 10
469.1570000000001
 20
44.007999999999996
 10
469.2450000000001
 20
44.05199999999999
 10
470.4910000000001
 20
46.211
 10
470.4850000000001
 20
46.30799999999999
 10
470.5050000000001
 20
46.378
 10
470.5450000000001
 20
46.44
 10
470.6010000000001
 20
46.488
 10
470.6680000000001
 20
46.516999999999996
 10
470.7160000000001
 20
46.525000000000006
 10
470.7900000000001
 20
46.519000000000005
 10
470.85800000000006
 20
46.492000000000004
 10
470.9150000000001
 20
46.446
 10
470.9570000000001
 20
46.385999999999996
 10
470.9740000000001
 20
46.34
 10
473.6530000000001
 20
44.794
 10
473.7260000000001
 20
44.80199999999999
 10
473.7980000000001
 20
44.789
 10
473.86300000000006
 20
44.754999999999995
 10
473.9160000000001
 20
44.70400000000001
 10
473.9420000000001
 20
44.663
 10
473.96400000000006
 20
44.593
 10
473.9650000000001
 20
44.519000000000005
 10
473.9450000000001
 20
44.449
 10
473.9050000000001
 20
44.387
 10
473.8490000000001
 20
44.34
 10
473.7820000000001
 20
44.31100000000001
 10
472.53600000000006
 20
42.152
 10
472.5440000000001
 20
42.09100000000001
 10
472.5380000000001
 20
42.03
 10
472.5110000000001
 20
41.962
 10
472.4650000000001
 20
41.903999999999996
 10
472.4260000000001
 20
41.875
 10
472.3590000000001
 20
41.845
 10
472.3110000000001
 20
41.837
 10
472.2370000000001
 20
41.843
 10
472.1910000000001
 20
41.85900000000001
 10
472.12900000000013
 20
41.899
 10
472.0820000000001
 20
41.955
 10
472.0530000000001
 20
42.02199999999999
 10
469.3740000000001
 20
43.569
 10
469.3010000000001
 20
43.56
 10
469.2290000000001
 20
43.57300000000001
 10
469.18500000000006
 20
43.593999999999994
 10
469.12700000000007
 20
43.638999999999996
 10
469.0850000000001
 20
43.7
 10
469.0630000000001
 20
43.769000000000005
 10
469.0620000000001
 20
43.843
 10
469.0820000000001
 20
43.913
  0
SEQEND
  0
LWPOLYLINE
100
AcDbPolyline
 90
50
 70
0
 43
0.0
 10
469.0820000000001
 20
89.087
 10
469.0620000000001
 20
89.157
 10
469.0630000000001
 20
89.231
 10
469.0850000000001
 20
89.3
 10
469.12700000000007
 20
89.361
 10
469.18500000000006
 20
89.406
 10
469.2290000000001
 20
89.42699999999999
 10
469.3010000000001
 20
89.44
 10
469.3740000000001
 20
89.431
 10
472.0530000000001
 20
90.97800000000001
 10
472.0820000000001
 20
91.045
 10
472.12900000000013
 20
91.101
 10
472.1910000000001
 20
91.14099999999999
 10
472.2370000000001
 20
91.157
 10
472.3110000000001
 20
91.163
 10
472.3590000000001
 20
91.155
 10
472.4260000000001
 20
91.125
 10
472.4650000000001
 20
91.096
 10
472.5110000000001
 20
91.038
 10
472.5380000000001
 20
90.97
 10
472.5440000000001
 20
90.90899999999999
 10
472.53600000000006
 20
90.848
 10
473.7820000000001
 20
88.689
 10
473.8490000000001
 20
88.66
 10
473.9050000000001
 20
88.613
 10
473.9450000000001
 20
88.551
 10
473.9650000000001
 20
88.481
 10
473.96400000000006
 20
88.407
 10
473.9420000000001
 20
88.337
 10
473.9160000000001
 20
88.29599999999999
 10
473.86300000000006
 20
88.245
 10
473.7980000000001
 20
88.211
 10
473.7260000000001
 20
88.19800000000001
 10
473.6530000000001
 20
88.206
 10
470.9740000000001
 20
86.66
 10
470.9570000000001
 20
86.614
 10
470.9150000000001
 20
86.554
 10
470.85800000000006
 20
86.508
 10
470.7900000000001
 20
86.481
 10
470.7160000000001
 20
86.475
 10
470.6680000000001
 20
86.483
 10
470.6010000000001
 20
86.512
 10
470.5450000000001
 20
86.56
 10
470.5050000000001
 20
86.622
 10
470.4850000000001
 20
86.69200000000001
 10
470.4910000000001
 20
86.789
 10
469.2450000000001
 20
88.94800000000001
 10
469.1570000000001
 20
88.992
 10
469.1060000000001
 20
89.044
 10
469.0820000000001
 20
89.087
  0
SEQEND
  0
LWPOLYLINE
100
AcDbPolyline
 90
49
 70
0
 43
0.0
 10
378.1010000000001
 20
36.559
 10
378.1250000000001
 20
36.51599999999999
 10
378.1450000000001
 20
36.446
 10
378.1390000000001
 20
36.348
 10
379.3850000000001
 20
34.18899999999999
 10
379.4530000000001
 20
34.16
 10
379.5090000000001
 20
34.113
 10
379.5480000000001
 20
34.051
 10
379.5690000000001
 20
33.980999999999995
 10
379.5670000000001
 20
33.907
 10
379.5450000000001
 20
33.837
 10
379.5030000000001
 20
33.777
 10
379.4460000000001
 20
33.730999999999995
 10
379.40100000000007
 20
33.711
 10
379.32900000000006
 20
33.69800000000001
 10
379.2560000000001
 20
33.706
 10
376.5770000000001
 20
32.16
 10
376.5480000000001
 20
32.093
 10
376.5010000000001
 20
32.037000000000006
 10
376.4390000000001
 20
31.997
 10
376.3690000000001
 20
31.977000000000004
 10
376.2950000000001
 20
31.97800000000001
 10
376.2250000000001
 20
32.001000000000005
 10
376.1650000000001
 20
32.042
 10
376.1190000000001
 20
32.099999999999994
 10
376.0990000000001
 20
32.144000000000005
 10
376.0860000000001
 20
32.217
 10
376.0940000000001
 20
32.289
 10
374.84800000000007
 20
34.44800000000001
 10
374.78100000000006
 20
34.47800000000001
 10
374.7420000000001
 20
34.507000000000005
 10
374.6960000000001
 20
34.565
 10
374.6690000000001
 20
34.632999999999996
 10
374.6630000000001
 20
34.706
 10
374.6790000000001
 20
34.77799999999999
 10
374.71400000000006
 20
34.842
 10
374.7670000000001
 20
34.893
 10
374.8320000000001
 20
34.92699999999999
 10
374.9050000000001
 20
34.94
 10
374.9770000000001
 20
34.931
 10
377.65600000000006
 20
36.47800000000001
 10
377.6730000000001
 20
36.524
 10
377.7150000000001
 20
36.584
 10
377.7720000000001
 20
36.629999999999995
 10
377.8410000000001
 20
36.657
 10
377.9140000000001
 20
36.663
 10
377.9860000000001
 20
36.64699999999999
 10
378.05000000000007
 20
36.611000000000004
 10
378.1010000000001
 20
36.559
  0
SEQEND
  0
LWPOLYLINE
100
AcDbPolyline
 90
49
 70
0
 43
0.0
 10
378.1010000000001
 20
96.441
 10
378.05000000000007
 20
96.389
 10
377.9860000000001
 20
96.35300000000001
 10
377.9140000000001
 20
96.337
 10
377.8410000000001
 20
96.343
 10
377.7720000000001
 20
96.37
 10
377.7150000000001
 20
96.416
 10
377.6730000000001
 20
96.476
 10
377.65600000000006
 20
96.52199999999999
 10
374.9770000000001
 20
98.069
 10
374.9050000000001
 20
98.06
 10
374.8320000000001
 20
98.07300000000001
 10
374.7670000000001
 20
98.107
 10
374.71400000000006
 20
98.158
 10
374.6790000000001
 20
98.22200000000001
 10
374.6630000000001
 20
98.294
 10
374.6690000000001
 20
98.367
 10
374.6960000000001
 20
98.435
 10
374.7420000000001
 20
98.493
 10
374.78100000000006
 20
98.52199999999999
 10
374.84800000000007
 20
98.55199999999999
 10
376.0940000000001
 20
100.711
 10
376.0860000000001
 20
100.783
 10
376.0990000000001
 20
100.856
 10
376.1190000000001
 20
100.9
 10
376.1650000000001
 20
100.958
 10
376.2250000000001
 20
100.999
 10
376.2950000000001
 20
101.02199999999999
 10
376.3690000000001
 20
101.023
 10
376.4390000000001
 20
101.003
 10
376.5010000000001
 20
100.963
 10
376.5480000000001
 20
100.907
 10
376.5770000000001
 20
100.84
 10
379.2560000000001
 20
99.294
 10
379.32900000000006
 20
99.30199999999999
 10
379.40100000000007
 20
99.289
 10
379.4460000000001
 20
99.269
 10
379.5030000000001
 20
99.223
 10
379.5450000000001
 20
99.163
 10
379.5670000000001
 20
99.093
 10
379.5690000000001
 20
99.019
 10
379.5480000000001
 20
98.949
 10
379.5090000000001
 20
98.887
 10
379.4530000000001
 20
98.84
 10
379.3850000000001
 20
98.811
 10
378.1390000000001
 20
96.652
 10
378.1450000000001
 20
96.554
 10
378.1250000000001
 20
96.48400000000001
 10
378.1010000000001
 20
96.441
  0
SEQEND
  0
LWPOLYLINE
100
AcDbPolyline
 90
49
 70
0
 43
0.0
 10
473.6110000000001
 20
36.559
 10
473.6620000000001
 20
36.611000000000004
 10
473.7260000000001
 20
36.64699999999999
 10
473.7980000000001
 20
36.663
 10
473.8710000000001
 20
36.657
 10
473.9400000000001
 20
36.629999999999995
 10
473.99700000000007
 20
36.584
 10
474.0390000000001
 20
36.524
 10
474.0560000000001
 20
36.47800000000001
 10
476.7350000000001
 20
34.931
 10
476.80700000000013
 20
34.94
 10
476.8800000000001
 20
34.92699999999999
 10
476.9450000000001
 20
34.893
 10
476.9980000000001
 20
34.842
 10
477.03300000000013
 20
34.77799999999999
 10
477.0490000000001
 20
34.706
 10
477.0430000000001
 20
34.632999999999996
 10
477.0160000000001
 20
34.565
 10
476.9700000000001
 20
34.507000000000005
 10
476.9310000000001
 20
34.47800000000001
 10
476.8640000000001
 20
34.44800000000001
 10
475.6180000000001
 20
32.289
 10
475.6260000000001
 20
32.217
 10
475.61300000000006
 20
32.144000000000005
 10
475.5930000000001
 20
32.099999999999994
 10
475.5470000000001
 20
32.042
 10
475.4870000000001
 20
32.001000000000005
 10
475.4170000000001
 20
31.97800000000001
 10
475.3430000000001
 20
31.977000000000004
 10
475.2730000000001
 20
31.997
 10
475.2110000000001
 20
32.037000000000006
 10
475.1640000000001
 20
32.093
 10
475.1350000000001
 20
32.16
 10
472.45600000000013
 20
33.706
 10
472.3830000000001
 20
33.69800000000001
 10
472.3110000000001
 20
33.711
 10
472.2660000000001
 20
33.730999999999995
 10
472.20900000000006
 20
33.777
 10
472.1670000000001
 20
33.837
 10
472.1450000000001
 20
33.907
 10
472.1430000000001
 20
33.980999999999995
 10
472.1640000000001
 20
34.051
 10
472.2030000000001
 20
34.113
 10
472.2590000000001
 20
34.16
 10
472.3270000000001
 20
34.18899999999999
 10
473.5730000000001
 20
36.348
 10
473.5670000000001
 20
36.446
 10
473.5870000000001
 20
36.51599999999999
 10
473.6110000000001
 20
36.559
  0
SEQEND
  0
LWPOLYLINE
100
AcDbPolyline
 90
49
 70
0
 43
0.0
 10
473.6110000000001
 20
96.441
 10
473.5870000000001
 20
96.48400000000001
 10
473.5670000000001
 20
96.554
 10
473.5730000000001
 20
96.652
 10
472.3270000000001
 20
98.811
 10
472.2590000000001
 20
98.84
 10
472.2030000000001
 20
98.887
 10
472.1640000000001
 20
98.949
 10
472.1430000000001
 20
99.019
 10
472.1450000000001
 20
99.093
 10
472.1670000000001
 20
99.163
 10
472.20900000000006
 20
99.223
 10
472.2660000000001
 20
99.269
 10
472.3110000000001
 20
99.289
 10
472.3830000000001
 20
99.30199999999999
 10
472.45600000000013
 20
99.294
 10
475.1350000000001
 20
100.84
 10
475.1640000000001
 20
100.907
 10
475.2110000000001
 20
100.963
 10
475.2730000000001
 20
101.003
 10
475.3430000000001
 20
101.023
 10
475.4170000000001
 20
101.02199999999999
 10
475.4870000000001
 20
100.999
 10
475.5470000000001
 20
100.958
 10
475.5930000000001
 20
100.9
 10
475.61300000000006
 20
100.856
 10
475.6260000000001
 20
100.783
 10
475.6180000000001
 20
100.711
 10
476.8640000000001
 20
98.55199999999999
 10
476.9310000000001
 20
98.52199999999999
 10
476.9700000000001
 20
98.493
 10
477.0160000000001
 20
98.435
 10
477.0430000000001
 20
98.367
 10
477.0490000000001
 20
98.294
 10
477.03300000000013
 20
98.22200000000001
 10
476.9980000000001
 20
98.158
 10
476.9450000000001
 20
98.107
 10
476.8800000000001
 20
98.07300000000001
 10
476.80700000000013
 20
98.06
 10
476.7350000000001
 20
98.069
 10
474.0560000000001
 20
96.52199999999999
 10
474.0390000000001
 20
96.476
 10
473.99700000000007
 20
96.416
 10
473.9400000000001
 20
96.37
 10
473.8710000000001
 20
96.343
 10
473.7980000000001
 20
96.337
 10
473.7260000000001
 20
96.35300000000001
 10
473.6620000000001
 20
96.389
 10
473.6110000000001
 20
96.441
  0
SEQEND
  0
LWPOLYLINE
100
AcDbPolyline
 90
50
 70
0
 43
0.0
 10
376.0480000000001
 20
40.113
 10
376.0690000000001
 20
40.043000000000006
 10
376.0670000000001
 20
39.968999999999994
 10
376.05500000000006
 20
39.922
 10
376.0190000000001
 20
39.858000000000004
 10
375.9860000000001
 20
39.822
 10
375.9240000000001
 20
39.782
 10
375.85300000000007
 20
39.762
 10
375.7560000000001
 20
39.769000000000005
 10
373.0770000000001
 20
38.22200000000001
 10
373.0480000000001
 20
38.155
 10
373.0010000000001
 20
38.099000000000004
 10
372.9390000000001
 20
38.059
 10
372.8930000000001
 20
38.043000000000006
 10
372.8200000000001
 20
38.037000000000006
 10
372.7710000000001
 20
38.045
 10
372.70400000000006
 20
38.075
 10
372.6650000000001
 20
38.104
 10
372.6190000000001
 20
38.162000000000006
 10
372.5930000000001
 20
38.230000000000004
 10
372.5860000000001
 20
38.278999999999996
 10
372.5940000000001
 20
38.352000000000004
 10
371.34800000000007
 20
40.510999999999996
 10
371.28100000000006
 20
40.53999999999999
 10
371.2250000000001
 20
40.587
 10
371.18500000000006
 20
40.649
 10
371.1650000000001
 20
40.718999999999994
 10
371.1630000000001
 20
40.768
 10
371.1790000000001
 20
40.84
 10
371.21400000000006
 20
40.903999999999996
 10
371.2670000000001
 20
40.955
 10
371.3320000000001
 20
40.989000000000004
 10
371.4050000000001
 20
41.001999999999995
 10
371.4770000000001
 20
40.994
 10
374.15600000000006
 20
42.53999999999999
 10
374.1730000000001
 20
42.586
 10
374.2150000000001
 20
42.646
 10
374.2720000000001
 20
42.69200000000001
 10
374.3410000000001
 20
42.718999999999994
 10
374.4140000000001
 20
42.724999999999994
 10
374.4860000000001
 20
42.709
 10
374.55000000000007
 20
42.67400000000001
 10
374.6010000000001
 20
42.620999999999995
 10
374.6250000000001
 20
42.578
 10
374.6450000000001
 20
42.507999999999996
 10
374.6390000000001
 20
42.411
 10
375.8850000000001
 20
40.251999999999995
 10
375.9530000000001
 20
40.22200000000001
 10
376.0090000000001
 20
40.175
 10
376.0480000000001
 20
40.113
  0
SEQEND
  0
LWPOLYLINE
100
AcDbPolyline
 90
50
 70
0
 43
0.0
 10
376.0480000000001
 20
92.887
 10
376.0090000000001
 20
92.825
 10
375.9530000000001
 20
92.77799999999999
 10
375.8850000000001
 20
92.748
 10
374.6390000000001
 20
90.589
 10
374.6450000000001
 20
90.492
 10
374.6250000000001
 20
90.422
 10
374.6010000000001
 20
90.379
 10
374.55000000000007
 20
90.326
 10
374.4860000000001
 20
90.291
 10
374.4140000000001
 20
90.275
 10
374.3410000000001
 20
90.281
 10
374.2720000000001
 20
90.30799999999999
 10
374.2150000000001
 20
90.354
 10
374.1730000000001
 20
90.414
 10
374.15600000000006
 20
90.46000000000001
 10
371.4770000000001
 20
92.006
 10
371.4050000000001
 20
91.998
 10
371.3320000000001
 20
92.011
 10
371.2670000000001
 20
92.045
 10
371.21400000000006
 20
92.096
 10
371.1790000000001
 20
92.16
 10
371.1630000000001
 20
92.232
 10
371.1650000000001
 20
92.281
 10
371.18500000000006
 20
92.351
 10
371.2250000000001
 20
92.413
 10
371.28100000000006
 20
92.46000000000001
 10
371.34800000000007
 20
92.489
 10
372.5940000000001
 20
94.648
 10
372.5860000000001
 20
94.721
 10
372.5930000000001
 20
94.77
 10
372.6190000000001
 20
94.838
 10
372.6650000000001
 20
94.896
 10
372.70400000000006
 20
94.925
 10
372.7710000000001
 20
94.955
 10
372.8200000000001
 20
94.963
 10
372.8930000000001
 20
94.957
 10
372.9390000000001
 20
94.941
 10
373.0010000000001
 20
94.901
 10
373.0480000000001
 20
94.845
 10
373.0770000000001
 20
94.77799999999999
 10
375.7560000000001
 20
93.231
 10
375.85300000000007
 20
93.238
 10
375.9240000000001
 20
93.218
 10
375.9860000000001
 20
93.178
 10
376.0190000000001
 20
93.142
 10
376.05500000000006
 20
93.078
 10
376.0670000000001
 20
93.031
 10
376.0690000000001
 20
92.957
 10
376.0480000000001
 20
92.887
  0
SEQEND
  0
LWPOLYLINE
100
AcDbPolyline
 90
43
 70
0
 43
0.0
 10
466.3940000000001
 20
66.45
 10
466.3940000000001
 20
66.55
 10
466.4040000000001
 20
66.649
 10
466.4530000000001
 20
66.842
 10
466.4920000000001
 20
66.934
 10
466.5960000000001
 20
67.104
 10
466.7310000000001
 20
67.25
 10
466.8930000000001
 20
67.366
 10
481.4050000000001
 20
75.745
 10
481.5870000000001
 20
75.827
 10
481.6830000000001
 20
75.854
 10
481.78100000000006
 20
75.871
 10
481.98000000000013
 20
75.876
 10
482.07900000000006
 20
75.864
 10
482.2710000000001
 20
75.81
 10
482.3620000000001
 20
75.769
 10
482.5290000000001
 20
75.661
 10
482.6720000000001
 20
75.522
 10
482.7840000000001
 20
75.357
 10
482.8610000000001
 20
75.173
 10
482.8860000000001
 20
75.077
 10
482.90100000000007
 20
74.978
 10
482.90100000000007
 20
58.02199999999999
 10
482.8860000000001
 20
57.923
 10
482.8270000000001
 20
57.733000000000004
 10
482.7840000000001
 20
57.643
 10
482.6720000000001
 20
57.47800000000001
 10
482.5290000000001
 20
57.339
 10
482.3620000000001
 20
57.230999999999995
 10
482.2710000000001
 20
57.19
 10
482.07900000000006
 20
57.135999999999996
 10
481.8810000000001
 20
57.122
 10
481.78100000000006
 20
57.12899999999999
 10
481.6830000000001
 20
57.146
 10
481.5870000000001
 20
57.173
 10
481.4050000000001
 20
57.254999999999995
 10
466.8090000000001
 20
65.688
 10
466.7310000000001
 20
65.75
 10
466.5960000000001
 20
65.896
 10
466.4920000000001
 20
66.066
 10
466.4530000000001
 20
66.158
 10
466.4040000000001
 20
66.351
 10
466.3940000000001
 20
66.45
  0
SEQEND
  0
LWPOLYLINE
100
AcDbPolyline
 90
45
 70
0
 43
0.0
 10
360.8600000000001
 20
66.25
 10
360.8600000000001
 20
66.75
 10
359.3600000000001
 20
67.25
 10
359.7440000000001
 20
73.671
 10
360.7460000000001
 20
80.026
 10
362.3570000000001
 20
86.253
 10
364.5630000000001
 20
92.29599999999999
 10
367.3420000000001
 20
98.098
 10
370.6690000000001
 20
103.60300000000001
 10
374.51200000000006
 20
108.762
 10
378.8360000000001
 20
113.525
 10
390.8560000000001
 20
133
 10
460.8560000000001
 20
133
 10
472.8760000000001
 20
113.525
 10
477.2000000000001
 20
108.762
 10
481.0430000000001
 20
103.60300000000001
 10
484.3700000000001
 20
98.098
 10
487.1490000000001
 20
92.29599999999999
 10
489.35500000000013
 20
86.253
 10
490.9660000000001
 20
80.026
 10
491.9680000000001
 20
73.671
 10
492.3520000000001
 20
67.25
 10
490.8520000000001
 20
66.75
 10
490.8520000000001
 20
66.25
 10
492.3520000000001
 20
65.75
 10
491.9680000000001
 20
59.32900000000001
 10
490.9660000000001
 20
52.974000000000004
 10
489.35500000000013
 20
46.747
 10
487.1490000000001
 20
40.70400000000001
 10
484.3700000000001
 20
34.902
 10
481.0430000000001
 20
29.39699999999999
 10
477.2000000000001
 20
24.238
 10
472.8760000000001
 20
19.474999999999994
 10
460.8560000000001
 20
0
 10
390.8560000000001
 20
0
 10
378.8360000000001
 20
19.474999999999994
 10
374.51200000000006
 20
24.238
 10
370.6690000000001
 20
29.39699999999999
 10
367.3420000000001
 20
34.902
 10
364.5630000000001
 20
40.70400000000001
 10
362.3570000000001
 20
46.747
 10
360.7460000000001
 20
52.974000000000004
 10
359.7440000000001
 20
59.32900000000001
 10
359.3600000000001
 20
65.75
 10
360.8600000000001
 20
66.25
  0
SEQEND
  0
ENDSEC
  0
EOF